<?xml version="1.0" encoding="UTF-8" standalone="no"?>
<!DOCTYPE svg PUBLIC "-//W3C//DTD SVG 1.1//EN"
 "http://www.w3.org/Graphics/SVG/1.1/DTD/svg11.dtd">
<!-- Generated by graphviz version 2.40.1 (20161225.0304)
 -->
<!-- Title: osse::collaborate::DataProcessor Pages: 1 -->
<svg width="426pt" height="237pt"
 viewBox="0.00 0.00 425.50 237.00" xmlns="http://www.w3.org/2000/svg" xmlns:xlink="http://www.w3.org/1999/xlink">
<g id="graph0" class="graph" transform="scale(1 1) rotate(0) translate(4 233)">
<title>osse::collaborate::DataProcessor</title>
<polygon fill="#ffffff" stroke="transparent" points="-4,4 -4,-233 421.5,-233 421.5,4 -4,4"/>
<!-- Node0 -->
<g id="node1" class="node">
<title>Node0</title>
<polygon fill="#bfbfbf" stroke="#000000" points="149.5,-138.5 149.5,-228.5 246.5,-228.5 246.5,-138.5 149.5,-138.5"/>
<text text-anchor="start" x="157.5" y="-216.5" font-family="Helvetica,sans-Serif" font-size="10.00" fill="#000000">osse::collaborate::</text>
<text text-anchor="middle" x="198" y="-205.5" font-family="Helvetica,sans-Serif" font-size="10.00" fill="#000000">DataProcessor</text>
<polyline fill="none" stroke="#000000" points="149.5,-198.5 246.5,-198.5 "/>
<text text-anchor="middle" x="198" y="-186.5" font-family="Helvetica,sans-Serif" font-size="10.00" fill="#000000"> </text>
<polyline fill="none" stroke="#000000" points="149.5,-179.5 246.5,-179.5 "/>
<text text-anchor="start" x="157.5" y="-167.5" font-family="Helvetica,sans-Serif" font-size="10.00" fill="#000000">+ DataProcessor()</text>
<text text-anchor="start" x="157.5" y="-156.5" font-family="Helvetica,sans-Serif" font-size="10.00" fill="#000000">+ Compute()</text>
<text text-anchor="start" x="157.5" y="-145.5" font-family="Helvetica,sans-Serif" font-size="10.00" fill="#000000">+ Regression()</text>
</g>
<!-- Node1 -->
<g id="node2" class="node">
<title>Node1</title>
<g id="a_node2"><a xlink:href="classosse_1_1collaborate_1_1_data_processor_sink.html" target="_top" xlink:title="A sink satellite&#39;s internal data processor. ">
<polygon fill="#ffffff" stroke="#000000" points="0,-6 0,-96 116,-96 116,-6 0,-6"/>
<text text-anchor="start" x="8" y="-84" font-family="Helvetica,sans-Serif" font-size="10.00" fill="#000000">osse::collaborate::</text>
<text text-anchor="middle" x="58" y="-73" font-family="Helvetica,sans-Serif" font-size="10.00" fill="#000000">DataProcessorSink</text>
<polyline fill="none" stroke="#000000" points="0,-66 116,-66 "/>
<text text-anchor="middle" x="58" y="-54" font-family="Helvetica,sans-Serif" font-size="10.00" fill="#000000"> </text>
<polyline fill="none" stroke="#000000" points="0,-47 116,-47 "/>
<text text-anchor="start" x="8" y="-35" font-family="Helvetica,sans-Serif" font-size="10.00" fill="#000000">+ DataProcessorSink()</text>
<text text-anchor="start" x="8" y="-24" font-family="Helvetica,sans-Serif" font-size="10.00" fill="#000000">+ Compute()</text>
<text text-anchor="start" x="8" y="-13" font-family="Helvetica,sans-Serif" font-size="10.00" fill="#000000">+ Regression()</text>
</a>
</g>
</g>
<!-- Node0&#45;&gt;Node1 -->
<g id="edge1" class="edge">
<title>Node0&#45;&gt;Node1</title>
<path fill="none" stroke="#191970" d="M142.6679,-131.1321C130.3988,-119.5203 117.5003,-107.3128 105.5731,-96.0246"/>
<polygon fill="none" stroke="#191970" points="140.5427,-133.9398 150.2115,-138.2716 145.3544,-128.8557 140.5427,-133.9398"/>
</g>
<!-- Node2 -->
<g id="node3" class="node">
<title>Node2</title>
<g id="a_node3"><a xlink:href="classosse_1_1collaborate_1_1_data_processor_source.html" target="_top" xlink:title="A source/informer satellite&#39;s internal data processor. ">
<polygon fill="#ffffff" stroke="#000000" points="134,-.5 134,-101.5 262,-101.5 262,-.5 134,-.5"/>
<text text-anchor="start" x="142" y="-89.5" font-family="Helvetica,sans-Serif" font-size="10.00" fill="#000000">osse::collaborate::</text>
<text text-anchor="middle" x="198" y="-78.5" font-family="Helvetica,sans-Serif" font-size="10.00" fill="#000000">DataProcessorSource</text>
<polyline fill="none" stroke="#000000" points="134,-71.5 262,-71.5 "/>
<text text-anchor="start" x="142" y="-59.5" font-family="Helvetica,sans-Serif" font-size="10.00" fill="#000000">&#45; regression_step_</text>
<text text-anchor="start" x="142" y="-48.5" font-family="Helvetica,sans-Serif" font-size="10.00" fill="#000000">&#45; threshold_rain_</text>
<polyline fill="none" stroke="#000000" points="134,-41.5 262,-41.5 "/>
<text text-anchor="start" x="142" y="-29.5" font-family="Helvetica,sans-Serif" font-size="10.00" fill="#000000">+ DataProcessorSource()</text>
<text text-anchor="start" x="142" y="-18.5" font-family="Helvetica,sans-Serif" font-size="10.00" fill="#000000">+ Compute()</text>
<text text-anchor="start" x="142" y="-7.5" font-family="Helvetica,sans-Serif" font-size="10.00" fill="#000000">+ Regression()</text>
</a>
</g>
</g>
<!-- Node0&#45;&gt;Node2 -->
<g id="edge2" class="edge">
<title>Node0&#45;&gt;Node2</title>
<path fill="none" stroke="#191970" d="M198,-128.2098C198,-119.5051 198,-110.5409 198,-101.9407"/>
<polygon fill="none" stroke="#191970" points="194.5001,-128.2716 198,-138.2716 201.5001,-128.2716 194.5001,-128.2716"/>
</g>
<!-- Node3 -->
<g id="node4" class="node">
<title>Node3</title>
<g id="a_node4"><a xlink:href="classosse_1_1collaborate_1_1_data_processor_template.html" target="_top" xlink:title="A template satellite&#39;s internal data processor. ">
<polygon fill="#ffffff" stroke="#000000" points="280.5,-6 280.5,-96 417.5,-96 417.5,-6 280.5,-6"/>
<text text-anchor="start" x="288.5" y="-84" font-family="Helvetica,sans-Serif" font-size="10.00" fill="#000000">osse::collaborate::</text>
<text text-anchor="middle" x="349" y="-73" font-family="Helvetica,sans-Serif" font-size="10.00" fill="#000000">DataProcessorTemplate</text>
<polyline fill="none" stroke="#000000" points="280.5,-66 417.5,-66 "/>
<text text-anchor="middle" x="349" y="-54" font-family="Helvetica,sans-Serif" font-size="10.00" fill="#000000"> </text>
<polyline fill="none" stroke="#000000" points="280.5,-47 417.5,-47 "/>
<text text-anchor="start" x="288.5" y="-35" font-family="Helvetica,sans-Serif" font-size="10.00" fill="#000000">+ DataProcessorTemplate()</text>
<text text-anchor="start" x="288.5" y="-24" font-family="Helvetica,sans-Serif" font-size="10.00" fill="#000000">+ Compute()</text>
<text text-anchor="start" x="288.5" y="-13" font-family="Helvetica,sans-Serif" font-size="10.00" fill="#000000">+ Regression()</text>
</a>
</g>
</g>
<!-- Node0&#45;&gt;Node3 -->
<g id="edge3" class="edge">
<title>Node0&#45;&gt;Node3</title>
<path fill="none" stroke="#191970" d="M254.3735,-134.0331C268.554,-121.59 283.6982,-108.3012 297.6198,-96.0853"/>
<polygon fill="none" stroke="#191970" points="251.8166,-131.6204 246.6085,-140.8468 256.4335,-136.882 251.8166,-131.6204"/>
</g>
</g>
</svg>
