<?xml version="1.0" encoding="UTF-8" standalone="no"?>
<!DOCTYPE svg PUBLIC "-//W3C//DTD SVG 1.1//EN"
 "http://www.w3.org/Graphics/SVG/1.1/DTD/svg11.dtd">
<!-- Generated by graphviz version 2.40.1 (20161225.0304)
 -->
<!-- Title: osse::collaborate::DataProcessor Pages: 1 -->
<svg width="461pt" height="237pt"
 viewBox="0.00 0.00 461.00 237.00" xmlns="http://www.w3.org/2000/svg" xmlns:xlink="http://www.w3.org/1999/xlink">
<g id="graph0" class="graph" transform="scale(1 1) rotate(0) translate(4 233)">
<title>osse::collaborate::DataProcessor</title>
<polygon fill="#ffffff" stroke="transparent" points="-4,4 -4,-233 457,-233 457,4 -4,4"/>
<!-- Node0 -->
<g id="node1" class="node">
<title>Node0</title>
<polygon fill="#bfbfbf" stroke="#000000" points="161.5,-138.5 161.5,-228.5 267.5,-228.5 267.5,-138.5 161.5,-138.5"/>
<text text-anchor="start" x="169.5" y="-216.5" font-family="Helvetica,sans-Serif" font-size="10.00" fill="#000000">osse::collaborate::</text>
<text text-anchor="middle" x="214.5" y="-205.5" font-family="Helvetica,sans-Serif" font-size="10.00" fill="#000000">DataProcessor</text>
<polyline fill="none" stroke="#000000" points="161.5,-198.5 267.5,-198.5 "/>
<text text-anchor="middle" x="214.5" y="-186.5" font-family="Helvetica,sans-Serif" font-size="10.00" fill="#000000"> </text>
<polyline fill="none" stroke="#000000" points="161.5,-179.5 267.5,-179.5 "/>
<text text-anchor="start" x="169.5" y="-167.5" font-family="Helvetica,sans-Serif" font-size="10.00" fill="#000000">+ DataProcessor()</text>
<text text-anchor="start" x="169.5" y="-156.5" font-family="Helvetica,sans-Serif" font-size="10.00" fill="#000000">+ Compute()</text>
<text text-anchor="start" x="169.5" y="-145.5" font-family="Helvetica,sans-Serif" font-size="10.00" fill="#000000">+ Regression()</text>
</g>
<!-- Node1 -->
<g id="node2" class="node">
<title>Node1</title>
<g id="a_node2"><a xlink:href="classosse_1_1collaborate_1_1_data_processor_sink.html" target="_top" xlink:title="A sink satellite&#39;s internal data processor. ">
<polygon fill="#ffffff" stroke="#000000" points="0,-6 0,-96 127,-96 127,-6 0,-6"/>
<text text-anchor="start" x="8" y="-84" font-family="Helvetica,sans-Serif" font-size="10.00" fill="#000000">osse::collaborate::</text>
<text text-anchor="middle" x="63.5" y="-73" font-family="Helvetica,sans-Serif" font-size="10.00" fill="#000000">DataProcessorSink</text>
<polyline fill="none" stroke="#000000" points="0,-66 127,-66 "/>
<text text-anchor="middle" x="63.5" y="-54" font-family="Helvetica,sans-Serif" font-size="10.00" fill="#000000"> </text>
<polyline fill="none" stroke="#000000" points="0,-47 127,-47 "/>
<text text-anchor="start" x="8" y="-35" font-family="Helvetica,sans-Serif" font-size="10.00" fill="#000000">+ DataProcessorSink()</text>
<text text-anchor="start" x="8" y="-24" font-family="Helvetica,sans-Serif" font-size="10.00" fill="#000000">+ Compute()</text>
<text text-anchor="start" x="8" y="-13" font-family="Helvetica,sans-Serif" font-size="10.00" fill="#000000">+ Regression()</text>
</a>
</g>
</g>
<!-- Node0&#45;&gt;Node1 -->
<g id="edge1" class="edge">
<title>Node0&#45;&gt;Node1</title>
<path fill="none" stroke="#191970" d="M155.1947,-131.4606C141.8499,-119.7508 127.7967,-107.4193 114.811,-96.0246"/>
<polygon fill="none" stroke="#191970" points="153.1317,-134.3067 162.9567,-138.2716 157.7486,-129.0452 153.1317,-134.3067"/>
</g>
<!-- Node2 -->
<g id="node3" class="node">
<title>Node2</title>
<g id="a_node3"><a xlink:href="classosse_1_1collaborate_1_1_data_processor_source.html" target="_top" xlink:title="A source/informer satellite&#39;s internal data processor. ">
<polygon fill="#ffffff" stroke="#000000" points="145,-.5 145,-101.5 284,-101.5 284,-.5 145,-.5"/>
<text text-anchor="start" x="153" y="-89.5" font-family="Helvetica,sans-Serif" font-size="10.00" fill="#000000">osse::collaborate::</text>
<text text-anchor="middle" x="214.5" y="-78.5" font-family="Helvetica,sans-Serif" font-size="10.00" fill="#000000">DataProcessorSource</text>
<polyline fill="none" stroke="#000000" points="145,-71.5 284,-71.5 "/>
<text text-anchor="start" x="153" y="-59.5" font-family="Helvetica,sans-Serif" font-size="10.00" fill="#000000">&#45; regression_step_</text>
<text text-anchor="start" x="153" y="-48.5" font-family="Helvetica,sans-Serif" font-size="10.00" fill="#000000">&#45; threshold_rain_</text>
<polyline fill="none" stroke="#000000" points="145,-41.5 284,-41.5 "/>
<text text-anchor="start" x="153" y="-29.5" font-family="Helvetica,sans-Serif" font-size="10.00" fill="#000000">+ DataProcessorSource()</text>
<text text-anchor="start" x="153" y="-18.5" font-family="Helvetica,sans-Serif" font-size="10.00" fill="#000000">+ Compute()</text>
<text text-anchor="start" x="153" y="-7.5" font-family="Helvetica,sans-Serif" font-size="10.00" fill="#000000">+ Regression()</text>
</a>
</g>
</g>
<!-- Node0&#45;&gt;Node2 -->
<g id="edge2" class="edge">
<title>Node0&#45;&gt;Node2</title>
<path fill="none" stroke="#191970" d="M214.5,-128.2098C214.5,-119.5051 214.5,-110.5409 214.5,-101.9407"/>
<polygon fill="none" stroke="#191970" points="211.0001,-128.2716 214.5,-138.2716 218.0001,-128.2716 211.0001,-128.2716"/>
</g>
<!-- Node3 -->
<g id="node4" class="node">
<title>Node3</title>
<g id="a_node4"><a xlink:href="classosse_1_1collaborate_1_1_data_processor_template.html" target="_top" xlink:title="A template satellite&#39;s internal data processor. ">
<polygon fill="#ffffff" stroke="#000000" points="302,-6 302,-96 453,-96 453,-6 302,-6"/>
<text text-anchor="start" x="310" y="-84" font-family="Helvetica,sans-Serif" font-size="10.00" fill="#000000">osse::collaborate::</text>
<text text-anchor="middle" x="377.5" y="-73" font-family="Helvetica,sans-Serif" font-size="10.00" fill="#000000">DataProcessorTemplate</text>
<polyline fill="none" stroke="#000000" points="302,-66 453,-66 "/>
<text text-anchor="middle" x="377.5" y="-54" font-family="Helvetica,sans-Serif" font-size="10.00" fill="#000000"> </text>
<polyline fill="none" stroke="#000000" points="302,-47 453,-47 "/>
<text text-anchor="start" x="310" y="-35" font-family="Helvetica,sans-Serif" font-size="10.00" fill="#000000">+ DataProcessorTemplate()</text>
<text text-anchor="start" x="310" y="-24" font-family="Helvetica,sans-Serif" font-size="10.00" fill="#000000">+ Compute()</text>
<text text-anchor="start" x="310" y="-13" font-family="Helvetica,sans-Serif" font-size="10.00" fill="#000000">+ Regression()</text>
</a>
</g>
</g>
<!-- Node0&#45;&gt;Node3 -->
<g id="edge3" class="edge">
<title>Node0&#45;&gt;Node3</title>
<path fill="none" stroke="#191970" d="M275.7201,-133.7352C290.9259,-121.3746 307.1376,-108.1965 322.0491,-96.0751"/>
<polygon fill="none" stroke="#191970" points="273.4243,-131.0909 267.8723,-140.1145 277.8397,-136.5227 273.4243,-131.0909"/>
</g>
</g>
</svg>
