<?xml version="1.0" encoding="UTF-8" standalone="no"?>
<!DOCTYPE svg PUBLIC "-//W3C//DTD SVG 1.1//EN"
 "http://www.w3.org/Graphics/SVG/1.1/DTD/svg11.dtd">
<!-- Generated by graphviz version 2.40.1 (20161225.0304)
 -->
<!-- Title: osse::collaborate::Sensor Pages: 1 -->
<svg width="425pt" height="292pt"
 viewBox="0.00 0.00 425.00 292.00" xmlns="http://www.w3.org/2000/svg" xmlns:xlink="http://www.w3.org/1999/xlink">
<g id="graph0" class="graph" transform="scale(1 1) rotate(0) translate(4 288)">
<title>osse::collaborate::Sensor</title>
<polygon fill="#ffffff" stroke="transparent" points="-4,4 -4,-288 421,-288 421,4 -4,4"/>
<!-- Node0 -->
<g id="node1" class="node">
<title>Node0</title>
<polygon fill="#bfbfbf" stroke="#000000" points="145,-105.5 145,-283.5 278,-283.5 278,-105.5 145,-105.5"/>
<text text-anchor="start" x="153" y="-271.5" font-family="Helvetica,sans-Serif" font-size="10.00" fill="#000000">osse::collaborate::</text>
<text text-anchor="middle" x="211.5" y="-260.5" font-family="Helvetica,sans-Serif" font-size="10.00" fill="#000000">Sensor</text>
<polyline fill="none" stroke="#000000" points="145,-253.5 278,-253.5 "/>
<text text-anchor="start" x="153" y="-241.5" font-family="Helvetica,sans-Serif" font-size="10.00" fill="#000000">&#45; earth_data_</text>
<text text-anchor="start" x="153" y="-230.5" font-family="Helvetica,sans-Serif" font-size="10.00" fill="#000000">&#45; kVariable_</text>
<text text-anchor="start" x="153" y="-219.5" font-family="Helvetica,sans-Serif" font-size="10.00" fill="#000000">&#45; kPowerConsumedW_</text>
<text text-anchor="start" x="153" y="-208.5" font-family="Helvetica,sans-Serif" font-size="10.00" fill="#000000">&#45; kDurationS_</text>
<text text-anchor="start" x="153" y="-197.5" font-family="Helvetica,sans-Serif" font-size="10.00" fill="#000000">&#45; kTargetValue_</text>
<polyline fill="none" stroke="#000000" points="145,-190.5 278,-190.5 "/>
<text text-anchor="start" x="153" y="-178.5" font-family="Helvetica,sans-Serif" font-size="10.00" fill="#000000">+ Sensor()</text>
<text text-anchor="start" x="153" y="-167.5" font-family="Helvetica,sans-Serif" font-size="10.00" fill="#000000">+ earth_data()</text>
<text text-anchor="start" x="153" y="-156.5" font-family="Helvetica,sans-Serif" font-size="10.00" fill="#000000">+ kVariable()</text>
<text text-anchor="start" x="153" y="-145.5" font-family="Helvetica,sans-Serif" font-size="10.00" fill="#000000">+ kPowerConsumedW()</text>
<text text-anchor="start" x="153" y="-134.5" font-family="Helvetica,sans-Serif" font-size="10.00" fill="#000000">+ kDurationS()</text>
<text text-anchor="start" x="153" y="-123.5" font-family="Helvetica,sans-Serif" font-size="10.00" fill="#000000">+ kTargetValue()</text>
<text text-anchor="start" x="153" y="-112.5" font-family="Helvetica,sans-Serif" font-size="10.00" fill="#000000">+ Update()</text>
</g>
<!-- Node1 -->
<g id="node2" class="node">
<title>Node1</title>
<g id="a_node2"><a xlink:href="classosse_1_1collaborate_1_1_sensor_cloud_radar.html" target="_top" xlink:title="Measures total cloud optical depth. ">
<polygon fill="#ffffff" stroke="#000000" points="0,-.5 0,-68.5 125,-68.5 125,-.5 0,-.5"/>
<text text-anchor="start" x="8" y="-56.5" font-family="Helvetica,sans-Serif" font-size="10.00" fill="#000000">osse::collaborate::</text>
<text text-anchor="middle" x="62.5" y="-45.5" font-family="Helvetica,sans-Serif" font-size="10.00" fill="#000000">SensorCloudRadar</text>
<polyline fill="none" stroke="#000000" points="0,-38.5 125,-38.5 "/>
<text text-anchor="middle" x="62.5" y="-26.5" font-family="Helvetica,sans-Serif" font-size="10.00" fill="#000000"> </text>
<polyline fill="none" stroke="#000000" points="0,-19.5 125,-19.5 "/>
<text text-anchor="start" x="8" y="-7.5" font-family="Helvetica,sans-Serif" font-size="10.00" fill="#000000">+ SensorCloudRadar()</text>
</a>
</g>
</g>
<!-- Node0&#45;&gt;Node1 -->
<g id="edge1" class="edge">
<title>Node0&#45;&gt;Node1</title>
<path fill="none" stroke="#191970" d="M137.8455,-115.4079C122.5852,-99.021 107.2776,-82.5833 94.4842,-68.8455"/>
<polygon fill="none" stroke="#191970" points="135.468,-117.9907 144.8445,-122.9236 140.5908,-113.2201 135.468,-117.9907"/>
</g>
<!-- Node2 -->
<g id="node3" class="node">
<title>Node2</title>
<g id="a_node3"><a xlink:href="classosse_1_1collaborate_1_1_sensor_optical_imager.html" target="_top" xlink:title="Obtains optical images of Earth&#39;s surface. ">
<polygon fill="#ffffff" stroke="#000000" points="143,-.5 143,-68.5 280,-68.5 280,-.5 143,-.5"/>
<text text-anchor="start" x="151" y="-56.5" font-family="Helvetica,sans-Serif" font-size="10.00" fill="#000000">osse::collaborate::</text>
<text text-anchor="middle" x="211.5" y="-45.5" font-family="Helvetica,sans-Serif" font-size="10.00" fill="#000000">SensorOpticalImager</text>
<polyline fill="none" stroke="#000000" points="143,-38.5 280,-38.5 "/>
<text text-anchor="middle" x="211.5" y="-26.5" font-family="Helvetica,sans-Serif" font-size="10.00" fill="#000000"> </text>
<polyline fill="none" stroke="#000000" points="143,-19.5 280,-19.5 "/>
<text text-anchor="start" x="151" y="-7.5" font-family="Helvetica,sans-Serif" font-size="10.00" fill="#000000">+ SensorOpticalImager()</text>
</a>
</g>
</g>
<!-- Node0&#45;&gt;Node2 -->
<g id="edge2" class="edge">
<title>Node0&#45;&gt;Node2</title>
<path fill="none" stroke="#191970" d="M211.5,-94.9715C211.5,-85.7079 211.5,-76.8164 211.5,-68.8363"/>
<polygon fill="none" stroke="#191970" points="208.0001,-95.144 211.5,-105.1441 215.0001,-95.1441 208.0001,-95.144"/>
</g>
<!-- Node3 -->
<g id="node4" class="node">
<title>Node3</title>
<g id="a_node4"><a xlink:href="classosse_1_1collaborate_1_1_sensor_rain_radar.html" target="_top" xlink:title="Measures total precipitation. ">
<polygon fill="#ffffff" stroke="#000000" points="298,-.5 298,-68.5 417,-68.5 417,-.5 298,-.5"/>
<text text-anchor="start" x="306" y="-56.5" font-family="Helvetica,sans-Serif" font-size="10.00" fill="#000000">osse::collaborate::</text>
<text text-anchor="middle" x="357.5" y="-45.5" font-family="Helvetica,sans-Serif" font-size="10.00" fill="#000000">SensorRainRadar</text>
<polyline fill="none" stroke="#000000" points="298,-38.5 417,-38.5 "/>
<text text-anchor="middle" x="357.5" y="-26.5" font-family="Helvetica,sans-Serif" font-size="10.00" fill="#000000"> </text>
<polyline fill="none" stroke="#000000" points="298,-19.5 417,-19.5 "/>
<text text-anchor="start" x="306" y="-7.5" font-family="Helvetica,sans-Serif" font-size="10.00" fill="#000000">+ SensorRainRadar()</text>
</a>
</g>
</g>
<!-- Node0&#45;&gt;Node3 -->
<g id="edge3" class="edge">
<title>Node0&#45;&gt;Node3</title>
<path fill="none" stroke="#191970" d="M285.2155,-113.7159C299.7421,-97.7963 314.231,-81.9181 326.3808,-68.6033"/>
<polygon fill="none" stroke="#191970" points="282.2465,-111.7771 278.0913,-121.5232 287.4173,-116.4955 282.2465,-111.7771"/>
</g>
</g>
</svg>
