<?xml version="1.0" encoding="UTF-8" standalone="no"?>
<!DOCTYPE svg PUBLIC "-//W3C//DTD SVG 1.1//EN"
 "http://www.w3.org/Graphics/SVG/1.1/DTD/svg11.dtd">
<!-- Generated by graphviz version 2.40.1 (20161225.0304)
 -->
<!-- Title: osse::collaborate::PlatformEarth Pages: 1 -->
<svg width="136pt" height="248pt"
 viewBox="0.00 0.00 136.00 248.00" xmlns="http://www.w3.org/2000/svg" xmlns:xlink="http://www.w3.org/1999/xlink">
<g id="graph0" class="graph" transform="scale(1 1) rotate(0) translate(4 244)">
<title>osse::collaborate::PlatformEarth</title>
<polygon fill="#ffffff" stroke="transparent" points="-4,4 -4,-244 132,-244 132,4 -4,4"/>
<!-- Node0 -->
<g id="node1" class="node">
<title>Node0</title>
<polygon fill="#bfbfbf" stroke="#000000" points="0,-.5 0,-101.5 128,-101.5 128,-.5 0,-.5"/>
<text text-anchor="start" x="8" y="-89.5" font-family="Helvetica,sans-Serif" font-size="10.00" fill="#000000">osse::collaborate::</text>
<text text-anchor="middle" x="64" y="-78.5" font-family="Helvetica,sans-Serif" font-size="10.00" fill="#000000">PlatformEarth</text>
<polyline fill="none" stroke="#000000" points="0,-71.5 128,-71.5 "/>
<text text-anchor="start" x="8" y="-59.5" font-family="Helvetica,sans-Serif" font-size="10.00" fill="#000000">&#45; kGeodeticRadM_</text>
<polyline fill="none" stroke="#000000" points="0,-52.5 128,-52.5 "/>
<text text-anchor="start" x="8" y="-40.5" font-family="Helvetica,sans-Serif" font-size="10.00" fill="#000000">+ PlatformEarth()</text>
<text text-anchor="start" x="8" y="-29.5" font-family="Helvetica,sans-Serif" font-size="10.00" fill="#000000">+ PredictOrbitalState()</text>
<text text-anchor="start" x="8" y="-18.5" font-family="Helvetica,sans-Serif" font-size="10.00" fill="#000000">+ PredictOrbitalState()</text>
<text text-anchor="start" x="8" y="-7.5" font-family="Helvetica,sans-Serif" font-size="10.00" fill="#000000">+ kGeodeticRadM()</text>
</g>
<!-- Node1 -->
<g id="node2" class="node">
<title>Node1</title>
<g id="a_node2"><a xlink:href="classosse_1_1collaborate_1_1_platform.html" target="_top" xlink:title="Propogates a node&#39;s position. ">
<polygon fill="#ffffff" stroke="#000000" points="0,-138.5 0,-239.5 128,-239.5 128,-138.5 0,-138.5"/>
<text text-anchor="start" x="8" y="-227.5" font-family="Helvetica,sans-Serif" font-size="10.00" fill="#000000">osse::collaborate::</text>
<text text-anchor="middle" x="64" y="-216.5" font-family="Helvetica,sans-Serif" font-size="10.00" fill="#000000">Platform</text>
<polyline fill="none" stroke="#000000" points="0,-209.5 128,-209.5 "/>
<text text-anchor="start" x="8" y="-197.5" font-family="Helvetica,sans-Serif" font-size="10.00" fill="#000000">&#45; kName_</text>
<polyline fill="none" stroke="#000000" points="0,-190.5 128,-190.5 "/>
<text text-anchor="start" x="8" y="-178.5" font-family="Helvetica,sans-Serif" font-size="10.00" fill="#000000">+ Platform()</text>
<text text-anchor="start" x="8" y="-167.5" font-family="Helvetica,sans-Serif" font-size="10.00" fill="#000000">+ PredictOrbitalState()</text>
<text text-anchor="start" x="8" y="-156.5" font-family="Helvetica,sans-Serif" font-size="10.00" fill="#000000">+ PredictOrbitalState()</text>
<text text-anchor="start" x="8" y="-145.5" font-family="Helvetica,sans-Serif" font-size="10.00" fill="#000000">+ kName()</text>
</a>
</g>
</g>
<!-- Node1&#45;&gt;Node0 -->
<g id="edge1" class="edge">
<title>Node1&#45;&gt;Node0</title>
<path fill="none" stroke="#191970" d="M64,-128.1179C64,-119.2601 64,-110.2213 64,-101.5964"/>
<polygon fill="none" stroke="#191970" points="60.5001,-128.3975 64,-138.3975 67.5001,-128.3975 60.5001,-128.3975"/>
</g>
</g>
</svg>
