<?xml version="1.0" encoding="UTF-8" standalone="no"?>
<!DOCTYPE svg PUBLIC "-//W3C//DTD SVG 1.1//EN"
 "http://www.w3.org/Graphics/SVG/1.1/DTD/svg11.dtd">
<!-- Generated by graphviz version 2.40.1 (20161225.0304)
 -->
<!-- Title: osse::collaborate::DataProcessorSource Pages: 1 -->
<svg width="147pt" height="259pt"
 viewBox="0.00 0.00 147.00 259.00" xmlns="http://www.w3.org/2000/svg" xmlns:xlink="http://www.w3.org/1999/xlink">
<g id="graph0" class="graph" transform="scale(1 1) rotate(0) translate(4 255)">
<title>osse::collaborate::DataProcessorSource</title>
<polygon fill="#ffffff" stroke="transparent" points="-4,4 -4,-255 143,-255 143,4 -4,4"/>
<!-- Node0 -->
<g id="node1" class="node">
<title>Node0</title>
<polygon fill="#bfbfbf" stroke="#000000" points="0,-.5 0,-123.5 139,-123.5 139,-.5 0,-.5"/>
<text text-anchor="start" x="8" y="-111.5" font-family="Helvetica,sans-Serif" font-size="10.00" fill="#000000">osse::collaborate::</text>
<text text-anchor="middle" x="69.5" y="-100.5" font-family="Helvetica,sans-Serif" font-size="10.00" fill="#000000">DataProcessorSource</text>
<polyline fill="none" stroke="#000000" points="0,-93.5 139,-93.5 "/>
<text text-anchor="start" x="8" y="-81.5" font-family="Helvetica,sans-Serif" font-size="10.00" fill="#000000">&#45; regression_step_</text>
<text text-anchor="start" x="8" y="-70.5" font-family="Helvetica,sans-Serif" font-size="10.00" fill="#000000">&#45; threshold_rain_</text>
<text text-anchor="start" x="8" y="-59.5" font-family="Helvetica,sans-Serif" font-size="10.00" fill="#000000">&#45; flag_</text>
<polyline fill="none" stroke="#000000" points="0,-52.5 139,-52.5 "/>
<text text-anchor="start" x="8" y="-40.5" font-family="Helvetica,sans-Serif" font-size="10.00" fill="#000000">+ DataProcessorSource()</text>
<text text-anchor="start" x="8" y="-29.5" font-family="Helvetica,sans-Serif" font-size="10.00" fill="#000000">+ DataProcessorSource()</text>
<text text-anchor="start" x="8" y="-18.5" font-family="Helvetica,sans-Serif" font-size="10.00" fill="#000000">+ Compute()</text>
<text text-anchor="start" x="8" y="-7.5" font-family="Helvetica,sans-Serif" font-size="10.00" fill="#000000">+ Regression()</text>
</g>
<!-- Node1 -->
<g id="node2" class="node">
<title>Node1</title>
<g id="a_node2"><a xlink:href="classosse_1_1collaborate_1_1_data_processor.html" target="_top" xlink:title="A satellite&#39;s internal data processor. ">
<polygon fill="#ffffff" stroke="#000000" points="16.5,-160.5 16.5,-250.5 122.5,-250.5 122.5,-160.5 16.5,-160.5"/>
<text text-anchor="start" x="24.5" y="-238.5" font-family="Helvetica,sans-Serif" font-size="10.00" fill="#000000">osse::collaborate::</text>
<text text-anchor="middle" x="69.5" y="-227.5" font-family="Helvetica,sans-Serif" font-size="10.00" fill="#000000">DataProcessor</text>
<polyline fill="none" stroke="#000000" points="16.5,-220.5 122.5,-220.5 "/>
<text text-anchor="middle" x="69.5" y="-208.5" font-family="Helvetica,sans-Serif" font-size="10.00" fill="#000000"> </text>
<polyline fill="none" stroke="#000000" points="16.5,-201.5 122.5,-201.5 "/>
<text text-anchor="start" x="24.5" y="-189.5" font-family="Helvetica,sans-Serif" font-size="10.00" fill="#000000">+ DataProcessor()</text>
<text text-anchor="start" x="24.5" y="-178.5" font-family="Helvetica,sans-Serif" font-size="10.00" fill="#000000">+ Compute()</text>
<text text-anchor="start" x="24.5" y="-167.5" font-family="Helvetica,sans-Serif" font-size="10.00" fill="#000000">+ Regression()</text>
</a>
</g>
</g>
<!-- Node1&#45;&gt;Node0 -->
<g id="edge1" class="edge">
<title>Node1&#45;&gt;Node0</title>
<path fill="none" stroke="#191970" d="M69.5,-150.4136C69.5,-141.665 69.5,-132.5665 69.5,-123.6783"/>
<polygon fill="none" stroke="#191970" points="66.0001,-150.4894 69.5,-160.4894 73.0001,-150.4895 66.0001,-150.4894"/>
</g>
</g>
</svg>
