<?xml version="1.0" encoding="UTF-8" standalone="no"?>
<!DOCTYPE svg PUBLIC "-//W3C//DTD SVG 1.1//EN"
 "http://www.w3.org/Graphics/SVG/1.1/DTD/svg11.dtd">
<!-- Generated by graphviz version 2.40.1 (20161225.0304)
 -->
<!-- Title: osse::collaborate::Sensor Pages: 1 -->
<svg width="391pt" height="292pt"
 viewBox="0.00 0.00 390.50 292.00" xmlns="http://www.w3.org/2000/svg" xmlns:xlink="http://www.w3.org/1999/xlink">
<g id="graph0" class="graph" transform="scale(1 1) rotate(0) translate(4 288)">
<title>osse::collaborate::Sensor</title>
<polygon fill="#ffffff" stroke="transparent" points="-4,4 -4,-288 386.5,-288 386.5,4 -4,4"/>
<!-- Node0 -->
<g id="node1" class="node">
<title>Node0</title>
<polygon fill="#bfbfbf" stroke="#000000" points="133,-105.5 133,-283.5 255,-283.5 255,-105.5 133,-105.5"/>
<text text-anchor="start" x="141" y="-271.5" font-family="Helvetica,sans-Serif" font-size="10.00" fill="#000000">osse::collaborate::</text>
<text text-anchor="middle" x="194" y="-260.5" font-family="Helvetica,sans-Serif" font-size="10.00" fill="#000000">Sensor</text>
<polyline fill="none" stroke="#000000" points="133,-253.5 255,-253.5 "/>
<text text-anchor="start" x="141" y="-241.5" font-family="Helvetica,sans-Serif" font-size="10.00" fill="#000000">&#45; earth_data_</text>
<text text-anchor="start" x="141" y="-230.5" font-family="Helvetica,sans-Serif" font-size="10.00" fill="#000000">&#45; kVariable_</text>
<text text-anchor="start" x="141" y="-219.5" font-family="Helvetica,sans-Serif" font-size="10.00" fill="#000000">&#45; kPowerConsumedW_</text>
<text text-anchor="start" x="141" y="-208.5" font-family="Helvetica,sans-Serif" font-size="10.00" fill="#000000">&#45; kDurationS_</text>
<text text-anchor="start" x="141" y="-197.5" font-family="Helvetica,sans-Serif" font-size="10.00" fill="#000000">&#45; kTargetValue_</text>
<polyline fill="none" stroke="#000000" points="133,-190.5 255,-190.5 "/>
<text text-anchor="start" x="141" y="-178.5" font-family="Helvetica,sans-Serif" font-size="10.00" fill="#000000">+ Sensor()</text>
<text text-anchor="start" x="141" y="-167.5" font-family="Helvetica,sans-Serif" font-size="10.00" fill="#000000">+ earth_data()</text>
<text text-anchor="start" x="141" y="-156.5" font-family="Helvetica,sans-Serif" font-size="10.00" fill="#000000">+ kVariable()</text>
<text text-anchor="start" x="141" y="-145.5" font-family="Helvetica,sans-Serif" font-size="10.00" fill="#000000">+ kPowerConsumedW()</text>
<text text-anchor="start" x="141" y="-134.5" font-family="Helvetica,sans-Serif" font-size="10.00" fill="#000000">+ kDurationS()</text>
<text text-anchor="start" x="141" y="-123.5" font-family="Helvetica,sans-Serif" font-size="10.00" fill="#000000">+ kTargetValue()</text>
<text text-anchor="start" x="141" y="-112.5" font-family="Helvetica,sans-Serif" font-size="10.00" fill="#000000">+ Update()</text>
</g>
<!-- Node1 -->
<g id="node2" class="node">
<title>Node1</title>
<g id="a_node2"><a xlink:href="classosse_1_1collaborate_1_1_sensor_cloud_radar.html" target="_top" xlink:title="Measures total cloud optical depth. ">
<polygon fill="#ffffff" stroke="#000000" points="0,-.5 0,-68.5 114,-68.5 114,-.5 0,-.5"/>
<text text-anchor="start" x="8" y="-56.5" font-family="Helvetica,sans-Serif" font-size="10.00" fill="#000000">osse::collaborate::</text>
<text text-anchor="middle" x="57" y="-45.5" font-family="Helvetica,sans-Serif" font-size="10.00" fill="#000000">SensorCloudRadar</text>
<polyline fill="none" stroke="#000000" points="0,-38.5 114,-38.5 "/>
<text text-anchor="middle" x="57" y="-26.5" font-family="Helvetica,sans-Serif" font-size="10.00" fill="#000000"> </text>
<polyline fill="none" stroke="#000000" points="0,-19.5 114,-19.5 "/>
<text text-anchor="start" x="8" y="-7.5" font-family="Helvetica,sans-Serif" font-size="10.00" fill="#000000">+ SensorCloudRadar()</text>
</a>
</g>
</g>
<!-- Node0&#45;&gt;Node1 -->
<g id="edge1" class="edge">
<title>Node0&#45;&gt;Node1</title>
<path fill="none" stroke="#191970" d="M125.8982,-114.965C111.9927,-98.7251 98.0654,-82.4595 86.4083,-68.8455"/>
<polygon fill="none" stroke="#191970" points="123.5501,-117.6041 132.7127,-122.9236 128.8672,-113.0512 123.5501,-117.6041"/>
</g>
<!-- Node2 -->
<g id="node3" class="node">
<title>Node2</title>
<g id="a_node3"><a xlink:href="classosse_1_1collaborate_1_1_sensor_optical_imager.html" target="_top" xlink:title="Obtains optical images of Earth&#39;s surface. ">
<polygon fill="#ffffff" stroke="#000000" points="132.5,-.5 132.5,-68.5 255.5,-68.5 255.5,-.5 132.5,-.5"/>
<text text-anchor="start" x="140.5" y="-56.5" font-family="Helvetica,sans-Serif" font-size="10.00" fill="#000000">osse::collaborate::</text>
<text text-anchor="middle" x="194" y="-45.5" font-family="Helvetica,sans-Serif" font-size="10.00" fill="#000000">SensorOpticalImager</text>
<polyline fill="none" stroke="#000000" points="132.5,-38.5 255.5,-38.5 "/>
<text text-anchor="middle" x="194" y="-26.5" font-family="Helvetica,sans-Serif" font-size="10.00" fill="#000000"> </text>
<polyline fill="none" stroke="#000000" points="132.5,-19.5 255.5,-19.5 "/>
<text text-anchor="start" x="140.5" y="-7.5" font-family="Helvetica,sans-Serif" font-size="10.00" fill="#000000">+ SensorOpticalImager()</text>
</a>
</g>
</g>
<!-- Node0&#45;&gt;Node2 -->
<g id="edge2" class="edge">
<title>Node0&#45;&gt;Node2</title>
<path fill="none" stroke="#191970" d="M194,-94.9715C194,-85.7079 194,-76.8164 194,-68.8363"/>
<polygon fill="none" stroke="#191970" points="190.5001,-95.144 194,-105.1441 197.5001,-95.1441 190.5001,-95.144"/>
</g>
<!-- Node3 -->
<g id="node4" class="node">
<title>Node3</title>
<g id="a_node4"><a xlink:href="classosse_1_1collaborate_1_1_sensor_rain_radar.html" target="_top" xlink:title="Measures total precipitation. ">
<polygon fill="#ffffff" stroke="#000000" points="273.5,-.5 273.5,-68.5 382.5,-68.5 382.5,-.5 273.5,-.5"/>
<text text-anchor="start" x="281.5" y="-56.5" font-family="Helvetica,sans-Serif" font-size="10.00" fill="#000000">osse::collaborate::</text>
<text text-anchor="middle" x="328" y="-45.5" font-family="Helvetica,sans-Serif" font-size="10.00" fill="#000000">SensorRainRadar</text>
<polyline fill="none" stroke="#000000" points="273.5,-38.5 382.5,-38.5 "/>
<text text-anchor="middle" x="328" y="-26.5" font-family="Helvetica,sans-Serif" font-size="10.00" fill="#000000"> </text>
<polyline fill="none" stroke="#000000" points="273.5,-19.5 382.5,-19.5 "/>
<text text-anchor="start" x="281.5" y="-7.5" font-family="Helvetica,sans-Serif" font-size="10.00" fill="#000000">+ SensorRainRadar()</text>
</a>
</g>
</g>
<!-- Node0&#45;&gt;Node3 -->
<g id="edge3" class="edge">
<title>Node0&#45;&gt;Node3</title>
<path fill="none" stroke="#191970" d="M261.6567,-113.7159C274.9894,-97.7963 288.2873,-81.9181 299.4385,-68.6033"/>
<polygon fill="none" stroke="#191970" points="258.8555,-111.6095 255.1181,-121.5232 264.2221,-116.1039 258.8555,-111.6095"/>
</g>
</g>
</svg>
