<?xml version="1.0" encoding="UTF-8" standalone="no"?>
<!DOCTYPE svg PUBLIC "-//W3C//DTD SVG 1.1//EN"
 "http://www.w3.org/Graphics/SVG/1.1/DTD/svg11.dtd">
<!-- Generated by graphviz version 2.40.1 (20161225.0304)
 -->
<!-- Title: osse::collaborate::Platform Pages: 1 -->
<svg width="282pt" height="281pt"
 viewBox="0.00 0.00 282.00 281.00" xmlns="http://www.w3.org/2000/svg" xmlns:xlink="http://www.w3.org/1999/xlink">
<g id="graph0" class="graph" transform="scale(1 1) rotate(0) translate(4 277)">
<title>osse::collaborate::Platform</title>
<polygon fill="#ffffff" stroke="transparent" points="-4,4 -4,-277 278,-277 278,4 -4,4"/>
<!-- Node0 -->
<g id="node1" class="node">
<title>Node0</title>
<polygon fill="#bfbfbf" stroke="#000000" points="73,-171.5 73,-272.5 201,-272.5 201,-171.5 73,-171.5"/>
<text text-anchor="start" x="81" y="-260.5" font-family="Helvetica,sans-Serif" font-size="10.00" fill="#000000">osse::collaborate::</text>
<text text-anchor="middle" x="137" y="-249.5" font-family="Helvetica,sans-Serif" font-size="10.00" fill="#000000">Platform</text>
<polyline fill="none" stroke="#000000" points="73,-242.5 201,-242.5 "/>
<text text-anchor="start" x="81" y="-230.5" font-family="Helvetica,sans-Serif" font-size="10.00" fill="#000000">&#45; kName_</text>
<polyline fill="none" stroke="#000000" points="73,-223.5 201,-223.5 "/>
<text text-anchor="start" x="81" y="-211.5" font-family="Helvetica,sans-Serif" font-size="10.00" fill="#000000">+ Platform()</text>
<text text-anchor="start" x="81" y="-200.5" font-family="Helvetica,sans-Serif" font-size="10.00" fill="#000000">+ PredictOrbitalState()</text>
<text text-anchor="start" x="81" y="-189.5" font-family="Helvetica,sans-Serif" font-size="10.00" fill="#000000">+ PredictOrbitalState()</text>
<text text-anchor="start" x="81" y="-178.5" font-family="Helvetica,sans-Serif" font-size="10.00" fill="#000000">+ kName()</text>
</g>
<!-- Node1 -->
<g id="node2" class="node">
<title>Node1</title>
<g id="a_node2"><a xlink:href="classosse_1_1collaborate_1_1_platform_earth.html" target="_top" xlink:title="Propogates the position of a stationary object on Earth&#39;s surface. ">
<polygon fill="#ffffff" stroke="#000000" points="0,-17 0,-118 128,-118 128,-17 0,-17"/>
<text text-anchor="start" x="8" y="-106" font-family="Helvetica,sans-Serif" font-size="10.00" fill="#000000">osse::collaborate::</text>
<text text-anchor="middle" x="64" y="-95" font-family="Helvetica,sans-Serif" font-size="10.00" fill="#000000">PlatformEarth</text>
<polyline fill="none" stroke="#000000" points="0,-88 128,-88 "/>
<text text-anchor="start" x="8" y="-76" font-family="Helvetica,sans-Serif" font-size="10.00" fill="#000000">&#45; kGeodeticRadM_</text>
<polyline fill="none" stroke="#000000" points="0,-69 128,-69 "/>
<text text-anchor="start" x="8" y="-57" font-family="Helvetica,sans-Serif" font-size="10.00" fill="#000000">+ PlatformEarth()</text>
<text text-anchor="start" x="8" y="-46" font-family="Helvetica,sans-Serif" font-size="10.00" fill="#000000">+ PredictOrbitalState()</text>
<text text-anchor="start" x="8" y="-35" font-family="Helvetica,sans-Serif" font-size="10.00" fill="#000000">+ PredictOrbitalState()</text>
<text text-anchor="start" x="8" y="-24" font-family="Helvetica,sans-Serif" font-size="10.00" fill="#000000">+ kGeodeticRadM()</text>
</a>
</g>
</g>
<!-- Node0&#45;&gt;Node1 -->
<g id="edge1" class="edge">
<title>Node0&#45;&gt;Node1</title>
<path fill="none" stroke="#191970" d="M108.6687,-162.0386C101.825,-147.5542 94.5774,-132.2151 87.9566,-118.2027"/>
<polygon fill="none" stroke="#191970" points="105.6604,-163.8646 113.0971,-171.4109 111.9895,-160.8741 105.6604,-163.8646"/>
</g>
<!-- Node2 -->
<g id="node3" class="node">
<title>Node2</title>
<g id="a_node3"><a xlink:href="classosse_1_1collaborate_1_1_platform_orbit.html" target="_top" xlink:title="Propogates the position of a satellite. ">
<polygon fill="#ffffff" stroke="#000000" points="146,-.5 146,-134.5 274,-134.5 274,-.5 146,-.5"/>
<text text-anchor="start" x="154" y="-122.5" font-family="Helvetica,sans-Serif" font-size="10.00" fill="#000000">osse::collaborate::</text>
<text text-anchor="middle" x="210" y="-111.5" font-family="Helvetica,sans-Serif" font-size="10.00" fill="#000000">PlatformOrbit</text>
<polyline fill="none" stroke="#000000" points="146,-104.5 274,-104.5 "/>
<text text-anchor="start" x="154" y="-92.5" font-family="Helvetica,sans-Serif" font-size="10.00" fill="#000000">+ kNumElements</text>
<text text-anchor="start" x="154" y="-81.5" font-family="Helvetica,sans-Serif" font-size="10.00" fill="#000000">&#45; kTle_</text>
<text text-anchor="start" x="154" y="-70.5" font-family="Helvetica,sans-Serif" font-size="10.00" fill="#000000">&#45; kModel_</text>
<polyline fill="none" stroke="#000000" points="146,-63.5 274,-63.5 "/>
<text text-anchor="start" x="154" y="-51.5" font-family="Helvetica,sans-Serif" font-size="10.00" fill="#000000">+ PlatformOrbit()</text>
<text text-anchor="start" x="154" y="-40.5" font-family="Helvetica,sans-Serif" font-size="10.00" fill="#000000">+ PredictOrbitalState()</text>
<text text-anchor="start" x="154" y="-29.5" font-family="Helvetica,sans-Serif" font-size="10.00" fill="#000000">+ PredictOrbitalState()</text>
<text text-anchor="start" x="154" y="-18.5" font-family="Helvetica,sans-Serif" font-size="10.00" fill="#000000">+ Duplicate()</text>
<text text-anchor="start" x="154" y="-7.5" font-family="Helvetica,sans-Serif" font-size="10.00" fill="#000000">+ kTle()</text>
</a>
</g>
</g>
<!-- Node0&#45;&gt;Node2 -->
<g id="edge2" class="edge">
<title>Node0&#45;&gt;Node2</title>
<path fill="none" stroke="#191970" d="M165.291,-162.1239C169.5669,-153.0742 174.0013,-143.689 178.3427,-134.5007"/>
<polygon fill="none" stroke="#191970" points="162.0105,-160.8741 160.9029,-171.4109 168.3396,-163.8646 162.0105,-160.8741"/>
</g>
</g>
</svg>
