<?xml version="1.0" encoding="UTF-8" standalone="no"?>
<!DOCTYPE svg PUBLIC "-//W3C//DTD SVG 1.1//EN"
 "http://www.w3.org/Graphics/SVG/1.1/DTD/svg11.dtd">
<!-- Generated by graphviz version 2.40.1 (20161225.0304)
 -->
<!-- Title: osse::collaborate::DataProcessorSink Pages: 1 -->
<svg width="135pt" height="226pt"
 viewBox="0.00 0.00 135.00 226.00" xmlns="http://www.w3.org/2000/svg" xmlns:xlink="http://www.w3.org/1999/xlink">
<g id="graph0" class="graph" transform="scale(1 1) rotate(0) translate(4 222)">
<title>osse::collaborate::DataProcessorSink</title>
<polygon fill="#ffffff" stroke="transparent" points="-4,4 -4,-222 131,-222 131,4 -4,4"/>
<!-- Node0 -->
<g id="node1" class="node">
<title>Node0</title>
<polygon fill="#bfbfbf" stroke="#000000" points="0,-.5 0,-90.5 127,-90.5 127,-.5 0,-.5"/>
<text text-anchor="start" x="8" y="-78.5" font-family="Helvetica,sans-Serif" font-size="10.00" fill="#000000">osse::collaborate::</text>
<text text-anchor="middle" x="63.5" y="-67.5" font-family="Helvetica,sans-Serif" font-size="10.00" fill="#000000">DataProcessorSink</text>
<polyline fill="none" stroke="#000000" points="0,-60.5 127,-60.5 "/>
<text text-anchor="middle" x="63.5" y="-48.5" font-family="Helvetica,sans-Serif" font-size="10.00" fill="#000000"> </text>
<polyline fill="none" stroke="#000000" points="0,-41.5 127,-41.5 "/>
<text text-anchor="start" x="8" y="-29.5" font-family="Helvetica,sans-Serif" font-size="10.00" fill="#000000">+ DataProcessorSink()</text>
<text text-anchor="start" x="8" y="-18.5" font-family="Helvetica,sans-Serif" font-size="10.00" fill="#000000">+ Compute()</text>
<text text-anchor="start" x="8" y="-7.5" font-family="Helvetica,sans-Serif" font-size="10.00" fill="#000000">+ Regression()</text>
</g>
<!-- Node1 -->
<g id="node2" class="node">
<title>Node1</title>
<g id="a_node2"><a xlink:href="classosse_1_1collaborate_1_1_data_processor.html" target="_top" xlink:title="A satellite&#39;s internal data processor. ">
<polygon fill="#ffffff" stroke="#000000" points="10.5,-127.5 10.5,-217.5 116.5,-217.5 116.5,-127.5 10.5,-127.5"/>
<text text-anchor="start" x="18.5" y="-205.5" font-family="Helvetica,sans-Serif" font-size="10.00" fill="#000000">osse::collaborate::</text>
<text text-anchor="middle" x="63.5" y="-194.5" font-family="Helvetica,sans-Serif" font-size="10.00" fill="#000000">DataProcessor</text>
<polyline fill="none" stroke="#000000" points="10.5,-187.5 116.5,-187.5 "/>
<text text-anchor="middle" x="63.5" y="-175.5" font-family="Helvetica,sans-Serif" font-size="10.00" fill="#000000"> </text>
<polyline fill="none" stroke="#000000" points="10.5,-168.5 116.5,-168.5 "/>
<text text-anchor="start" x="18.5" y="-156.5" font-family="Helvetica,sans-Serif" font-size="10.00" fill="#000000">+ DataProcessor()</text>
<text text-anchor="start" x="18.5" y="-145.5" font-family="Helvetica,sans-Serif" font-size="10.00" fill="#000000">+ Compute()</text>
<text text-anchor="start" x="18.5" y="-134.5" font-family="Helvetica,sans-Serif" font-size="10.00" fill="#000000">+ Regression()</text>
</a>
</g>
</g>
<!-- Node1&#45;&gt;Node0 -->
<g id="edge1" class="edge">
<title>Node1&#45;&gt;Node0</title>
<path fill="none" stroke="#191970" d="M63.5,-117.2012C63.5,-108.4232 63.5,-99.4326 63.5,-90.9156"/>
<polygon fill="none" stroke="#191970" points="60.0001,-117.3669 63.5,-127.367 67.0001,-117.367 60.0001,-117.3669"/>
</g>
</g>
</svg>
