<?xml version="1.0" encoding="UTF-8" standalone="no"?>
<!DOCTYPE svg PUBLIC "-//W3C//DTD SVG 1.1//EN"
 "http://www.w3.org/Graphics/SVG/1.1/DTD/svg11.dtd">
<!-- Generated by graphviz version 2.40.1 (20161225.0304)
 -->
<!-- Title: osse::collaborate::DataProcessor Pages: 1 -->
<svg width="461pt" height="259pt"
 viewBox="0.00 0.00 461.00 259.00" xmlns="http://www.w3.org/2000/svg" xmlns:xlink="http://www.w3.org/1999/xlink">
<g id="graph0" class="graph" transform="scale(1 1) rotate(0) translate(4 255)">
<title>osse::collaborate::DataProcessor</title>
<polygon fill="#ffffff" stroke="transparent" points="-4,4 -4,-255 457,-255 457,4 -4,4"/>
<!-- Node0 -->
<g id="node1" class="node">
<title>Node0</title>
<polygon fill="#bfbfbf" stroke="#000000" points="161.5,-160.5 161.5,-250.5 267.5,-250.5 267.5,-160.5 161.5,-160.5"/>
<text text-anchor="start" x="169.5" y="-238.5" font-family="Helvetica,sans-Serif" font-size="10.00" fill="#000000">osse::collaborate::</text>
<text text-anchor="middle" x="214.5" y="-227.5" font-family="Helvetica,sans-Serif" font-size="10.00" fill="#000000">DataProcessor</text>
<polyline fill="none" stroke="#000000" points="161.5,-220.5 267.5,-220.5 "/>
<text text-anchor="middle" x="214.5" y="-208.5" font-family="Helvetica,sans-Serif" font-size="10.00" fill="#000000"> </text>
<polyline fill="none" stroke="#000000" points="161.5,-201.5 267.5,-201.5 "/>
<text text-anchor="start" x="169.5" y="-189.5" font-family="Helvetica,sans-Serif" font-size="10.00" fill="#000000">+ DataProcessor()</text>
<text text-anchor="start" x="169.5" y="-178.5" font-family="Helvetica,sans-Serif" font-size="10.00" fill="#000000">+ Compute()</text>
<text text-anchor="start" x="169.5" y="-167.5" font-family="Helvetica,sans-Serif" font-size="10.00" fill="#000000">+ Regression()</text>
</g>
<!-- Node1 -->
<g id="node2" class="node">
<title>Node1</title>
<g id="a_node2"><a xlink:href="classosse_1_1collaborate_1_1_data_processor_sink.html" target="_top" xlink:title="A sink satellite&#39;s internal data processor. ">
<polygon fill="#ffffff" stroke="#000000" points="0,-17 0,-107 127,-107 127,-17 0,-17"/>
<text text-anchor="start" x="8" y="-95" font-family="Helvetica,sans-Serif" font-size="10.00" fill="#000000">osse::collaborate::</text>
<text text-anchor="middle" x="63.5" y="-84" font-family="Helvetica,sans-Serif" font-size="10.00" fill="#000000">DataProcessorSink</text>
<polyline fill="none" stroke="#000000" points="0,-77 127,-77 "/>
<text text-anchor="middle" x="63.5" y="-65" font-family="Helvetica,sans-Serif" font-size="10.00" fill="#000000"> </text>
<polyline fill="none" stroke="#000000" points="0,-58 127,-58 "/>
<text text-anchor="start" x="8" y="-46" font-family="Helvetica,sans-Serif" font-size="10.00" fill="#000000">+ DataProcessorSink()</text>
<text text-anchor="start" x="8" y="-35" font-family="Helvetica,sans-Serif" font-size="10.00" fill="#000000">+ Compute()</text>
<text text-anchor="start" x="8" y="-24" font-family="Helvetica,sans-Serif" font-size="10.00" fill="#000000">+ Regression()</text>
</a>
</g>
</g>
<!-- Node0&#45;&gt;Node1 -->
<g id="edge1" class="edge">
<title>Node0&#45;&gt;Node1</title>
<path fill="none" stroke="#191970" d="M159.8847,-153.5973C143.8667,-138.3749 126.4875,-121.8589 110.9544,-107.0974"/>
<polygon fill="none" stroke="#191970" points="157.4771,-156.1377 167.137,-160.4894 162.2992,-151.0635 157.4771,-156.1377"/>
</g>
<!-- Node2 -->
<g id="node3" class="node">
<title>Node2</title>
<g id="a_node3"><a xlink:href="classosse_1_1collaborate_1_1_data_processor_source.html" target="_top" xlink:title="A source/informer satellite&#39;s internal data processor. ">
<polygon fill="#ffffff" stroke="#000000" points="145,-.5 145,-123.5 284,-123.5 284,-.5 145,-.5"/>
<text text-anchor="start" x="153" y="-111.5" font-family="Helvetica,sans-Serif" font-size="10.00" fill="#000000">osse::collaborate::</text>
<text text-anchor="middle" x="214.5" y="-100.5" font-family="Helvetica,sans-Serif" font-size="10.00" fill="#000000">DataProcessorSource</text>
<polyline fill="none" stroke="#000000" points="145,-93.5 284,-93.5 "/>
<text text-anchor="start" x="153" y="-81.5" font-family="Helvetica,sans-Serif" font-size="10.00" fill="#000000">&#45; regression_step_</text>
<text text-anchor="start" x="153" y="-70.5" font-family="Helvetica,sans-Serif" font-size="10.00" fill="#000000">&#45; threshold_rain_</text>
<text text-anchor="start" x="153" y="-59.5" font-family="Helvetica,sans-Serif" font-size="10.00" fill="#000000">&#45; flag_</text>
<polyline fill="none" stroke="#000000" points="145,-52.5 284,-52.5 "/>
<text text-anchor="start" x="153" y="-40.5" font-family="Helvetica,sans-Serif" font-size="10.00" fill="#000000">+ DataProcessorSource()</text>
<text text-anchor="start" x="153" y="-29.5" font-family="Helvetica,sans-Serif" font-size="10.00" fill="#000000">+ DataProcessorSource()</text>
<text text-anchor="start" x="153" y="-18.5" font-family="Helvetica,sans-Serif" font-size="10.00" fill="#000000">+ Compute()</text>
<text text-anchor="start" x="153" y="-7.5" font-family="Helvetica,sans-Serif" font-size="10.00" fill="#000000">+ Regression()</text>
</a>
</g>
</g>
<!-- Node0&#45;&gt;Node2 -->
<g id="edge2" class="edge">
<title>Node0&#45;&gt;Node2</title>
<path fill="none" stroke="#191970" d="M214.5,-150.4136C214.5,-141.665 214.5,-132.5665 214.5,-123.6783"/>
<polygon fill="none" stroke="#191970" points="211.0001,-150.4894 214.5,-160.4894 218.0001,-150.4895 211.0001,-150.4894"/>
</g>
<!-- Node3 -->
<g id="node4" class="node">
<title>Node3</title>
<g id="a_node4"><a xlink:href="classosse_1_1collaborate_1_1_data_processor_template.html" target="_top" xlink:title="A template satellite&#39;s internal data processor. ">
<polygon fill="#ffffff" stroke="#000000" points="302,-17 302,-107 453,-107 453,-17 302,-17"/>
<text text-anchor="start" x="310" y="-95" font-family="Helvetica,sans-Serif" font-size="10.00" fill="#000000">osse::collaborate::</text>
<text text-anchor="middle" x="377.5" y="-84" font-family="Helvetica,sans-Serif" font-size="10.00" fill="#000000">DataProcessorTemplate</text>
<polyline fill="none" stroke="#000000" points="302,-77 453,-77 "/>
<text text-anchor="middle" x="377.5" y="-65" font-family="Helvetica,sans-Serif" font-size="10.00" fill="#000000"> </text>
<polyline fill="none" stroke="#000000" points="302,-58 453,-58 "/>
<text text-anchor="start" x="310" y="-46" font-family="Helvetica,sans-Serif" font-size="10.00" fill="#000000">+ DataProcessorTemplate()</text>
<text text-anchor="start" x="310" y="-35" font-family="Helvetica,sans-Serif" font-size="10.00" fill="#000000">+ Compute()</text>
<text text-anchor="start" x="310" y="-24" font-family="Helvetica,sans-Serif" font-size="10.00" fill="#000000">+ Regression()</text>
</a>
</g>
</g>
<!-- Node0&#45;&gt;Node3 -->
<g id="edge3" class="edge">
<title>Node0&#45;&gt;Node3</title>
<path fill="none" stroke="#191970" d="M273.4556,-153.5973C290.7466,-138.3749 309.5069,-121.8589 326.2744,-107.0974"/>
<polygon fill="none" stroke="#191970" points="270.82,-151.2545 265.627,-160.4894 275.4455,-156.5086 270.82,-151.2545"/>
</g>
</g>
</svg>
