<?xml version="1.0" encoding="UTF-8" standalone="no"?>
<!DOCTYPE svg PUBLIC "-//W3C//DTD SVG 1.1//EN"
 "http://www.w3.org/Graphics/SVG/1.1/DTD/svg11.dtd">
<!-- Generated by graphviz version 2.40.1 (20161225.0304)
 -->
<!-- Title: osse::collaborate::Platform Pages: 1 -->
<svg width="254pt" height="281pt"
 viewBox="0.00 0.00 254.00 281.00" xmlns="http://www.w3.org/2000/svg" xmlns:xlink="http://www.w3.org/1999/xlink">
<g id="graph0" class="graph" transform="scale(1 1) rotate(0) translate(4 277)">
<title>osse::collaborate::Platform</title>
<polygon fill="#ffffff" stroke="transparent" points="-4,4 -4,-277 250,-277 250,4 -4,4"/>
<!-- Node0 -->
<g id="node1" class="node">
<title>Node0</title>
<polygon fill="#bfbfbf" stroke="#000000" points="66,-171.5 66,-272.5 180,-272.5 180,-171.5 66,-171.5"/>
<text text-anchor="start" x="74" y="-260.5" font-family="Helvetica,sans-Serif" font-size="10.00" fill="#000000">osse::collaborate::</text>
<text text-anchor="middle" x="123" y="-249.5" font-family="Helvetica,sans-Serif" font-size="10.00" fill="#000000">Platform</text>
<polyline fill="none" stroke="#000000" points="66,-242.5 180,-242.5 "/>
<text text-anchor="start" x="74" y="-230.5" font-family="Helvetica,sans-Serif" font-size="10.00" fill="#000000">&#45; kName_</text>
<polyline fill="none" stroke="#000000" points="66,-223.5 180,-223.5 "/>
<text text-anchor="start" x="74" y="-211.5" font-family="Helvetica,sans-Serif" font-size="10.00" fill="#000000">+ Platform()</text>
<text text-anchor="start" x="74" y="-200.5" font-family="Helvetica,sans-Serif" font-size="10.00" fill="#000000">+ PredictOrbitalState()</text>
<text text-anchor="start" x="74" y="-189.5" font-family="Helvetica,sans-Serif" font-size="10.00" fill="#000000">+ PredictOrbitalState()</text>
<text text-anchor="start" x="74" y="-178.5" font-family="Helvetica,sans-Serif" font-size="10.00" fill="#000000">+ kName()</text>
</g>
<!-- Node1 -->
<g id="node2" class="node">
<title>Node1</title>
<g id="a_node2"><a xlink:href="classosse_1_1collaborate_1_1_platform_earth.html" target="_top" xlink:title="Propogates the position of a stationary object on Earth&#39;s surface. ">
<polygon fill="#ffffff" stroke="#000000" points="0,-17 0,-118 114,-118 114,-17 0,-17"/>
<text text-anchor="start" x="8" y="-106" font-family="Helvetica,sans-Serif" font-size="10.00" fill="#000000">osse::collaborate::</text>
<text text-anchor="middle" x="57" y="-95" font-family="Helvetica,sans-Serif" font-size="10.00" fill="#000000">PlatformEarth</text>
<polyline fill="none" stroke="#000000" points="0,-88 114,-88 "/>
<text text-anchor="start" x="8" y="-76" font-family="Helvetica,sans-Serif" font-size="10.00" fill="#000000">&#45; kGeodeticRadM_</text>
<polyline fill="none" stroke="#000000" points="0,-69 114,-69 "/>
<text text-anchor="start" x="8" y="-57" font-family="Helvetica,sans-Serif" font-size="10.00" fill="#000000">+ PlatformEarth()</text>
<text text-anchor="start" x="8" y="-46" font-family="Helvetica,sans-Serif" font-size="10.00" fill="#000000">+ PredictOrbitalState()</text>
<text text-anchor="start" x="8" y="-35" font-family="Helvetica,sans-Serif" font-size="10.00" fill="#000000">+ PredictOrbitalState()</text>
<text text-anchor="start" x="8" y="-24" font-family="Helvetica,sans-Serif" font-size="10.00" fill="#000000">+ kGeodeticRadM()</text>
</a>
</g>
</g>
<!-- Node0&#45;&gt;Node1 -->
<g id="edge1" class="edge">
<title>Node0&#45;&gt;Node1</title>
<path fill="none" stroke="#191970" d="M97.3854,-162.0386C91.1979,-147.5542 84.6453,-132.2151 78.6594,-118.2027"/>
<polygon fill="none" stroke="#191970" points="94.242,-163.5898 101.3891,-171.4109 100.6793,-160.8399 94.242,-163.5898"/>
</g>
<!-- Node2 -->
<g id="node3" class="node">
<title>Node2</title>
<g id="a_node3"><a xlink:href="classosse_1_1collaborate_1_1_platform_orbit.html" target="_top" xlink:title="Propogates the position of a satellite. ">
<polygon fill="#ffffff" stroke="#000000" points="132,-.5 132,-134.5 246,-134.5 246,-.5 132,-.5"/>
<text text-anchor="start" x="140" y="-122.5" font-family="Helvetica,sans-Serif" font-size="10.00" fill="#000000">osse::collaborate::</text>
<text text-anchor="middle" x="189" y="-111.5" font-family="Helvetica,sans-Serif" font-size="10.00" fill="#000000">PlatformOrbit</text>
<polyline fill="none" stroke="#000000" points="132,-104.5 246,-104.5 "/>
<text text-anchor="start" x="140" y="-92.5" font-family="Helvetica,sans-Serif" font-size="10.00" fill="#000000">+ kNumElements</text>
<text text-anchor="start" x="140" y="-81.5" font-family="Helvetica,sans-Serif" font-size="10.00" fill="#000000">&#45; kTle_</text>
<text text-anchor="start" x="140" y="-70.5" font-family="Helvetica,sans-Serif" font-size="10.00" fill="#000000">&#45; kModel_</text>
<polyline fill="none" stroke="#000000" points="132,-63.5 246,-63.5 "/>
<text text-anchor="start" x="140" y="-51.5" font-family="Helvetica,sans-Serif" font-size="10.00" fill="#000000">+ PlatformOrbit()</text>
<text text-anchor="start" x="140" y="-40.5" font-family="Helvetica,sans-Serif" font-size="10.00" fill="#000000">+ PredictOrbitalState()</text>
<text text-anchor="start" x="140" y="-29.5" font-family="Helvetica,sans-Serif" font-size="10.00" fill="#000000">+ PredictOrbitalState()</text>
<text text-anchor="start" x="140" y="-18.5" font-family="Helvetica,sans-Serif" font-size="10.00" fill="#000000">+ Duplicate()</text>
<text text-anchor="start" x="140" y="-7.5" font-family="Helvetica,sans-Serif" font-size="10.00" fill="#000000">+ kTle()</text>
</a>
</g>
</g>
<!-- Node0&#45;&gt;Node2 -->
<g id="edge2" class="edge">
<title>Node0&#45;&gt;Node2</title>
<path fill="none" stroke="#191970" d="M148.5781,-162.1239C152.444,-153.0742 156.4533,-143.689 160.3784,-134.5007"/>
<polygon fill="none" stroke="#191970" points="145.3207,-160.8399 144.6109,-171.4109 151.758,-163.5898 145.3207,-160.8399"/>
</g>
</g>
</svg>
