<?xml version="1.0" encoding="UTF-8" standalone="no"?>
<!DOCTYPE svg PUBLIC "-//W3C//DTD SVG 1.1//EN"
 "http://www.w3.org/Graphics/SVG/1.1/DTD/svg11.dtd">
<!-- Generated by graphviz version 2.40.1 (20161225.0304)
 -->
<!-- Title: osse::collaborate::Antenna Pages: 1 -->
<svg width="504pt" height="292pt"
 viewBox="0.00 0.00 503.50 292.00" xmlns="http://www.w3.org/2000/svg" xmlns:xlink="http://www.w3.org/1999/xlink">
<g id="graph0" class="graph" transform="scale(1 1) rotate(0) translate(4 288)">
<title>osse::collaborate::Antenna</title>
<polygon fill="#ffffff" stroke="transparent" points="-4,4 -4,-288 499.5,-288 499.5,4 -4,4"/>
<!-- Node0 -->
<g id="node1" class="node">
<title>Node0</title>
<polygon fill="#bfbfbf" stroke="#000000" points="193.5,-116.5 193.5,-283.5 299.5,-283.5 299.5,-116.5 193.5,-116.5"/>
<text text-anchor="start" x="201.5" y="-271.5" font-family="Helvetica,sans-Serif" font-size="10.00" fill="#000000">osse::collaborate::</text>
<text text-anchor="middle" x="246.5" y="-260.5" font-family="Helvetica,sans-Serif" font-size="10.00" fill="#000000">Antenna</text>
<polyline fill="none" stroke="#000000" points="193.5,-253.5 299.5,-253.5 "/>
<text text-anchor="start" x="201.5" y="-241.5" font-family="Helvetica,sans-Serif" font-size="10.00" fill="#000000"># kMaxGainDb_</text>
<text text-anchor="start" x="201.5" y="-230.5" font-family="Helvetica,sans-Serif" font-size="10.00" fill="#000000"># kRollRad_</text>
<text text-anchor="start" x="201.5" y="-219.5" font-family="Helvetica,sans-Serif" font-size="10.00" fill="#000000"># kPitchRad_</text>
<text text-anchor="start" x="201.5" y="-208.5" font-family="Helvetica,sans-Serif" font-size="10.00" fill="#000000"># kYawRad_</text>
<polyline fill="none" stroke="#000000" points="193.5,-201.5 299.5,-201.5 "/>
<text text-anchor="start" x="201.5" y="-189.5" font-family="Helvetica,sans-Serif" font-size="10.00" fill="#000000">+ Antenna()</text>
<text text-anchor="start" x="201.5" y="-178.5" font-family="Helvetica,sans-Serif" font-size="10.00" fill="#000000">+ GainDb()</text>
<text text-anchor="start" x="201.5" y="-167.5" font-family="Helvetica,sans-Serif" font-size="10.00" fill="#000000">+ Log()</text>
<text text-anchor="start" x="201.5" y="-156.5" font-family="Helvetica,sans-Serif" font-size="10.00" fill="#000000">+ kMaxGainDb()</text>
<text text-anchor="start" x="201.5" y="-145.5" font-family="Helvetica,sans-Serif" font-size="10.00" fill="#000000">+ kRollRad()</text>
<text text-anchor="start" x="201.5" y="-134.5" font-family="Helvetica,sans-Serif" font-size="10.00" fill="#000000">+ kPitchRad()</text>
<text text-anchor="start" x="201.5" y="-123.5" font-family="Helvetica,sans-Serif" font-size="10.00" fill="#000000">+ kYawRad()</text>
</g>
<!-- Node1 -->
<g id="node2" class="node">
<title>Node1</title>
<g id="a_node2"><a xlink:href="classosse_1_1collaborate_1_1_antenna_dipole.html" target="_top" xlink:title="An approximation of a dipole antenna. ">
<polygon fill="#ffffff" stroke="#000000" points="0,-.5 0,-79.5 107,-79.5 107,-.5 0,-.5"/>
<text text-anchor="start" x="8" y="-67.5" font-family="Helvetica,sans-Serif" font-size="10.00" fill="#000000">osse::collaborate::</text>
<text text-anchor="middle" x="53.5" y="-56.5" font-family="Helvetica,sans-Serif" font-size="10.00" fill="#000000">AntennaDipole</text>
<polyline fill="none" stroke="#000000" points="0,-49.5 107,-49.5 "/>
<text text-anchor="middle" x="53.5" y="-37.5" font-family="Helvetica,sans-Serif" font-size="10.00" fill="#000000"> </text>
<polyline fill="none" stroke="#000000" points="0,-30.5 107,-30.5 "/>
<text text-anchor="start" x="8" y="-18.5" font-family="Helvetica,sans-Serif" font-size="10.00" fill="#000000">+ AntennaDipole()</text>
<text text-anchor="start" x="8" y="-7.5" font-family="Helvetica,sans-Serif" font-size="10.00" fill="#000000">+ GainDb()</text>
</a>
</g>
</g>
<!-- Node0&#45;&gt;Node1 -->
<g id="edge1" class="edge">
<title>Node0&#45;&gt;Node1</title>
<path fill="none" stroke="#191970" d="M185.3454,-149.3019C158.1879,-126.7879 126.6968,-100.6813 101.3028,-79.6292"/>
<polygon fill="none" stroke="#191970" points="183.3187,-152.168 193.251,-155.8558 187.7862,-146.779 183.3187,-152.168"/>
</g>
<!-- Node2 -->
<g id="node3" class="node">
<title>Node2</title>
<g id="a_node3"><a xlink:href="classosse_1_1collaborate_1_1_antenna_helical.html" target="_top" xlink:title="An approximation of a helical antenna (more directional than patch) ">
<polygon fill="#ffffff" stroke="#000000" points="125.5,-.5 125.5,-79.5 235.5,-79.5 235.5,-.5 125.5,-.5"/>
<text text-anchor="start" x="133.5" y="-67.5" font-family="Helvetica,sans-Serif" font-size="10.00" fill="#000000">osse::collaborate::</text>
<text text-anchor="middle" x="180.5" y="-56.5" font-family="Helvetica,sans-Serif" font-size="10.00" fill="#000000">AntennaHelical</text>
<polyline fill="none" stroke="#000000" points="125.5,-49.5 235.5,-49.5 "/>
<text text-anchor="middle" x="180.5" y="-37.5" font-family="Helvetica,sans-Serif" font-size="10.00" fill="#000000"> </text>
<polyline fill="none" stroke="#000000" points="125.5,-30.5 235.5,-30.5 "/>
<text text-anchor="start" x="133.5" y="-18.5" font-family="Helvetica,sans-Serif" font-size="10.00" fill="#000000">+ AntennaHelical()</text>
<text text-anchor="start" x="133.5" y="-7.5" font-family="Helvetica,sans-Serif" font-size="10.00" fill="#000000">+ GainDb()</text>
</a>
</g>
</g>
<!-- Node0&#45;&gt;Node2 -->
<g id="edge2" class="edge">
<title>Node0&#45;&gt;Node2</title>
<path fill="none" stroke="#191970" d="M208.0419,-106.7682C204.1564,-97.3489 200.3748,-88.1814 196.9206,-79.8076"/>
<polygon fill="none" stroke="#191970" points="204.9047,-108.3415 211.9536,-116.2512 211.3758,-105.6721 204.9047,-108.3415"/>
</g>
<!-- Node3 -->
<g id="node4" class="node">
<title>Node3</title>
<g id="a_node4"><a xlink:href="classosse_1_1collaborate_1_1_antenna_isotropic.html" target="_top" xlink:title="An isotropic antenna. ">
<polygon fill="#ffffff" stroke="#000000" points="253.5,-.5 253.5,-79.5 371.5,-79.5 371.5,-.5 253.5,-.5"/>
<text text-anchor="start" x="261.5" y="-67.5" font-family="Helvetica,sans-Serif" font-size="10.00" fill="#000000">osse::collaborate::</text>
<text text-anchor="middle" x="312.5" y="-56.5" font-family="Helvetica,sans-Serif" font-size="10.00" fill="#000000">AntennaIsotropic</text>
<polyline fill="none" stroke="#000000" points="253.5,-49.5 371.5,-49.5 "/>
<text text-anchor="middle" x="312.5" y="-37.5" font-family="Helvetica,sans-Serif" font-size="10.00" fill="#000000"> </text>
<polyline fill="none" stroke="#000000" points="253.5,-30.5 371.5,-30.5 "/>
<text text-anchor="start" x="261.5" y="-18.5" font-family="Helvetica,sans-Serif" font-size="10.00" fill="#000000">+ AntennaIsotropic()</text>
<text text-anchor="start" x="261.5" y="-7.5" font-family="Helvetica,sans-Serif" font-size="10.00" fill="#000000">+ GainDb()</text>
</a>
</g>
</g>
<!-- Node0&#45;&gt;Node3 -->
<g id="edge3" class="edge">
<title>Node0&#45;&gt;Node3</title>
<path fill="none" stroke="#191970" d="M284.9581,-106.7682C288.8436,-97.3489 292.6252,-88.1814 296.0794,-79.8076"/>
<polygon fill="none" stroke="#191970" points="281.6242,-105.6721 281.0464,-116.2512 288.0953,-108.3415 281.6242,-105.6721"/>
</g>
<!-- Node4 -->
<g id="node5" class="node">
<title>Node4</title>
<g id="a_node5"><a xlink:href="classosse_1_1collaborate_1_1_antenna_patch.html" target="_top" xlink:title="An approximation of a patch antenna. ">
<polygon fill="#ffffff" stroke="#000000" points="389.5,-.5 389.5,-79.5 495.5,-79.5 495.5,-.5 389.5,-.5"/>
<text text-anchor="start" x="397.5" y="-67.5" font-family="Helvetica,sans-Serif" font-size="10.00" fill="#000000">osse::collaborate::</text>
<text text-anchor="middle" x="442.5" y="-56.5" font-family="Helvetica,sans-Serif" font-size="10.00" fill="#000000">AntennaPatch</text>
<polyline fill="none" stroke="#000000" points="389.5,-49.5 495.5,-49.5 "/>
<text text-anchor="middle" x="442.5" y="-37.5" font-family="Helvetica,sans-Serif" font-size="10.00" fill="#000000"> </text>
<polyline fill="none" stroke="#000000" points="389.5,-30.5 495.5,-30.5 "/>
<text text-anchor="start" x="397.5" y="-18.5" font-family="Helvetica,sans-Serif" font-size="10.00" fill="#000000">+ AntennaPatch()</text>
<text text-anchor="start" x="397.5" y="-7.5" font-family="Helvetica,sans-Serif" font-size="10.00" fill="#000000">+ GainDb()</text>
</a>
</g>
</g>
<!-- Node0&#45;&gt;Node4 -->
<g id="edge4" class="edge">
<title>Node0&#45;&gt;Node4</title>
<path fill="none" stroke="#191970" d="M307.6107,-150.1137C335.3539,-127.4662 367.7155,-101.0486 393.7859,-79.7666"/>
<polygon fill="none" stroke="#191970" points="305.0737,-147.6666 299.5404,-156.7017 309.5004,-153.0892 305.0737,-147.6666"/>
</g>
</g>
</svg>
