<?xml version="1.0" encoding="UTF-8" standalone="no"?>
<!DOCTYPE svg PUBLIC "-//W3C//DTD SVG 1.1//EN"
 "http://www.w3.org/Graphics/SVG/1.1/DTD/svg11.dtd">
<!-- Generated by graphviz version 2.40.1 (20161225.0304)
 -->
<!-- Title: osse::collaborate::Antenna Pages: 1 -->
<svg width="460pt" height="292pt"
 viewBox="0.00 0.00 460.00 292.00" xmlns="http://www.w3.org/2000/svg" xmlns:xlink="http://www.w3.org/1999/xlink">
<g id="graph0" class="graph" transform="scale(1 1) rotate(0) translate(4 288)">
<title>osse::collaborate::Antenna</title>
<polygon fill="#ffffff" stroke="transparent" points="-4,4 -4,-288 456,-288 456,4 -4,4"/>
<!-- Node0 -->
<g id="node1" class="node">
<title>Node0</title>
<polygon fill="#bfbfbf" stroke="#000000" points="176,-116.5 176,-283.5 273,-283.5 273,-116.5 176,-116.5"/>
<text text-anchor="start" x="184" y="-271.5" font-family="Helvetica,sans-Serif" font-size="10.00" fill="#000000">osse::collaborate::</text>
<text text-anchor="middle" x="224.5" y="-260.5" font-family="Helvetica,sans-Serif" font-size="10.00" fill="#000000">Antenna</text>
<polyline fill="none" stroke="#000000" points="176,-253.5 273,-253.5 "/>
<text text-anchor="start" x="184" y="-241.5" font-family="Helvetica,sans-Serif" font-size="10.00" fill="#000000"># kMaxGainDb_</text>
<text text-anchor="start" x="184" y="-230.5" font-family="Helvetica,sans-Serif" font-size="10.00" fill="#000000"># kRollRad_</text>
<text text-anchor="start" x="184" y="-219.5" font-family="Helvetica,sans-Serif" font-size="10.00" fill="#000000"># kPitchRad_</text>
<text text-anchor="start" x="184" y="-208.5" font-family="Helvetica,sans-Serif" font-size="10.00" fill="#000000"># kYawRad_</text>
<polyline fill="none" stroke="#000000" points="176,-201.5 273,-201.5 "/>
<text text-anchor="start" x="184" y="-189.5" font-family="Helvetica,sans-Serif" font-size="10.00" fill="#000000">+ Antenna()</text>
<text text-anchor="start" x="184" y="-178.5" font-family="Helvetica,sans-Serif" font-size="10.00" fill="#000000">+ GainDb()</text>
<text text-anchor="start" x="184" y="-167.5" font-family="Helvetica,sans-Serif" font-size="10.00" fill="#000000">+ Log()</text>
<text text-anchor="start" x="184" y="-156.5" font-family="Helvetica,sans-Serif" font-size="10.00" fill="#000000">+ kMaxGainDb()</text>
<text text-anchor="start" x="184" y="-145.5" font-family="Helvetica,sans-Serif" font-size="10.00" fill="#000000">+ kRollRad()</text>
<text text-anchor="start" x="184" y="-134.5" font-family="Helvetica,sans-Serif" font-size="10.00" fill="#000000">+ kPitchRad()</text>
<text text-anchor="start" x="184" y="-123.5" font-family="Helvetica,sans-Serif" font-size="10.00" fill="#000000">+ kYawRad()</text>
</g>
<!-- Node1 -->
<g id="node2" class="node">
<title>Node1</title>
<g id="a_node2"><a xlink:href="classosse_1_1collaborate_1_1_antenna_dipole.html" target="_top" xlink:title="An approximation of a dipole antenna. ">
<polygon fill="#ffffff" stroke="#000000" points="0,-.5 0,-79.5 97,-79.5 97,-.5 0,-.5"/>
<text text-anchor="start" x="8" y="-67.5" font-family="Helvetica,sans-Serif" font-size="10.00" fill="#000000">osse::collaborate::</text>
<text text-anchor="middle" x="48.5" y="-56.5" font-family="Helvetica,sans-Serif" font-size="10.00" fill="#000000">AntennaDipole</text>
<polyline fill="none" stroke="#000000" points="0,-49.5 97,-49.5 "/>
<text text-anchor="middle" x="48.5" y="-37.5" font-family="Helvetica,sans-Serif" font-size="10.00" fill="#000000"> </text>
<polyline fill="none" stroke="#000000" points="0,-30.5 97,-30.5 "/>
<text text-anchor="start" x="8" y="-18.5" font-family="Helvetica,sans-Serif" font-size="10.00" fill="#000000">+ AntennaDipole()</text>
<text text-anchor="start" x="8" y="-7.5" font-family="Helvetica,sans-Serif" font-size="10.00" fill="#000000">+ GainDb()</text>
</a>
</g>
</g>
<!-- Node0&#45;&gt;Node1 -->
<g id="edge1" class="edge">
<title>Node0&#45;&gt;Node1</title>
<path fill="none" stroke="#191970" d="M168.413,-149.0118C143.7203,-126.5639 115.15,-100.591 92.0922,-79.6292"/>
<polygon fill="none" stroke="#191970" points="166.1875,-151.7188 175.9413,-155.8558 170.8963,-146.5392 166.1875,-151.7188"/>
</g>
<!-- Node2 -->
<g id="node3" class="node">
<title>Node2</title>
<g id="a_node3"><a xlink:href="classosse_1_1collaborate_1_1_antenna_helical.html" target="_top" xlink:title="An approximation of a helical antenna (more directional than patch) ">
<polygon fill="#ffffff" stroke="#000000" points="115.5,-.5 115.5,-79.5 213.5,-79.5 213.5,-.5 115.5,-.5"/>
<text text-anchor="start" x="123.5" y="-67.5" font-family="Helvetica,sans-Serif" font-size="10.00" fill="#000000">osse::collaborate::</text>
<text text-anchor="middle" x="164.5" y="-56.5" font-family="Helvetica,sans-Serif" font-size="10.00" fill="#000000">AntennaHelical</text>
<polyline fill="none" stroke="#000000" points="115.5,-49.5 213.5,-49.5 "/>
<text text-anchor="middle" x="164.5" y="-37.5" font-family="Helvetica,sans-Serif" font-size="10.00" fill="#000000"> </text>
<polyline fill="none" stroke="#000000" points="115.5,-30.5 213.5,-30.5 "/>
<text text-anchor="start" x="123.5" y="-18.5" font-family="Helvetica,sans-Serif" font-size="10.00" fill="#000000">+ AntennaHelical()</text>
<text text-anchor="start" x="123.5" y="-7.5" font-family="Helvetica,sans-Serif" font-size="10.00" fill="#000000">+ GainDb()</text>
</a>
</g>
</g>
<!-- Node0&#45;&gt;Node2 -->
<g id="edge2" class="edge">
<title>Node0&#45;&gt;Node2</title>
<path fill="none" stroke="#191970" d="M189.5381,-106.7682C186.0058,-97.3489 182.568,-88.1814 179.4278,-79.8076"/>
<polygon fill="none" stroke="#191970" points="186.3058,-108.1169 193.0942,-116.2512 192.8601,-105.659 186.3058,-108.1169"/>
</g>
<!-- Node3 -->
<g id="node4" class="node">
<title>Node3</title>
<g id="a_node4"><a xlink:href="classosse_1_1collaborate_1_1_antenna_isotropic.html" target="_top" xlink:title="An isotropic antenna. ">
<polygon fill="#ffffff" stroke="#000000" points="232,-.5 232,-79.5 337,-79.5 337,-.5 232,-.5"/>
<text text-anchor="start" x="240" y="-67.5" font-family="Helvetica,sans-Serif" font-size="10.00" fill="#000000">osse::collaborate::</text>
<text text-anchor="middle" x="284.5" y="-56.5" font-family="Helvetica,sans-Serif" font-size="10.00" fill="#000000">AntennaIsotropic</text>
<polyline fill="none" stroke="#000000" points="232,-49.5 337,-49.5 "/>
<text text-anchor="middle" x="284.5" y="-37.5" font-family="Helvetica,sans-Serif" font-size="10.00" fill="#000000"> </text>
<polyline fill="none" stroke="#000000" points="232,-30.5 337,-30.5 "/>
<text text-anchor="start" x="240" y="-18.5" font-family="Helvetica,sans-Serif" font-size="10.00" fill="#000000">+ AntennaIsotropic()</text>
<text text-anchor="start" x="240" y="-7.5" font-family="Helvetica,sans-Serif" font-size="10.00" fill="#000000">+ GainDb()</text>
</a>
</g>
</g>
<!-- Node0&#45;&gt;Node3 -->
<g id="edge3" class="edge">
<title>Node0&#45;&gt;Node3</title>
<path fill="none" stroke="#191970" d="M259.4619,-106.7682C262.9942,-97.3489 266.432,-88.1814 269.5722,-79.8076"/>
<polygon fill="none" stroke="#191970" points="256.1399,-105.659 255.9058,-116.2512 262.6942,-108.1169 256.1399,-105.659"/>
</g>
<!-- Node4 -->
<g id="node5" class="node">
<title>Node4</title>
<g id="a_node5"><a xlink:href="classosse_1_1collaborate_1_1_antenna_patch.html" target="_top" xlink:title="An approximation of a patch antenna. ">
<polygon fill="#ffffff" stroke="#000000" points="355,-.5 355,-79.5 452,-79.5 452,-.5 355,-.5"/>
<text text-anchor="start" x="363" y="-67.5" font-family="Helvetica,sans-Serif" font-size="10.00" fill="#000000">osse::collaborate::</text>
<text text-anchor="middle" x="403.5" y="-56.5" font-family="Helvetica,sans-Serif" font-size="10.00" fill="#000000">AntennaPatch</text>
<polyline fill="none" stroke="#000000" points="355,-49.5 452,-49.5 "/>
<text text-anchor="middle" x="403.5" y="-37.5" font-family="Helvetica,sans-Serif" font-size="10.00" fill="#000000"> </text>
<polyline fill="none" stroke="#000000" points="355,-30.5 452,-30.5 "/>
<text text-anchor="start" x="363" y="-18.5" font-family="Helvetica,sans-Serif" font-size="10.00" fill="#000000">+ AntennaPatch()</text>
<text text-anchor="start" x="363" y="-7.5" font-family="Helvetica,sans-Serif" font-size="10.00" fill="#000000">+ GainDb()</text>
</a>
</g>
</g>
<!-- Node0&#45;&gt;Node4 -->
<g id="edge4" class="edge">
<title>Node0&#45;&gt;Node4</title>
<path fill="none" stroke="#191970" d="M281.1046,-149.4038C306.3441,-126.8432 335.6382,-100.6586 359.2384,-79.5634"/>
<polygon fill="none" stroke="#191970" points="278.5357,-147.0055 273.4125,-156.2793 283.2008,-152.2245 278.5357,-147.0055"/>
</g>
</g>
</svg>
