<?xml version="1.0" encoding="UTF-8" standalone="no"?>
<!DOCTYPE svg PUBLIC "-//W3C//DTD SVG 1.1//EN"
 "http://www.w3.org/Graphics/SVG/1.1/DTD/svg11.dtd">
<!-- Generated by graphviz version 2.40.1 (20161225.0304)
 -->
<!-- Title: libs/collaborate Pages: 1 -->
<svg width="200pt" height="183pt"
 viewBox="0.00 0.00 200.00 183.00" xmlns="http://www.w3.org/2000/svg" xmlns:xlink="http://www.w3.org/1999/xlink">
<g id="graph0" class="graph" transform="scale(1 1) rotate(0) translate(4 179)">
<title>libs/collaborate</title>
<polygon fill="#ffffff" stroke="transparent" points="-4,4 -4,-179 196,-179 196,4 -4,4"/>
<g id="clust1" class="cluster">
<title>clusterdir_6719ab1f1f7655efc2fa43f7eb574fd1</title>
<g id="a_clust1"><a xlink:href="dir_6719ab1f1f7655efc2fa43f7eb574fd1.html" target="_top" xlink:title="libs">
<polygon fill="#ddddee" stroke="#000000" points="8,-8 8,-167 184,-167 184,-8 8,-8"/>
<text text-anchor="middle" x="96" y="-155" font-family="Helvetica,sans-Serif" font-size="10.00" fill="#000000">libs</text>
</a>
</g>
</g>
<g id="clust2" class="cluster">
<title>clusterdir_1c88e54314b3a40c0293d383d8f8c8f6</title>
<g id="a_clust2"><a xlink:href="dir_1c88e54314b3a40c0293d383d8f8c8f6.html" target="_top">
<polygon fill="#eeeeff" stroke="#000000" points="16,-16 16,-140 176,-140 176,-16 16,-16"/>
</a>
</g>
</g>
<!-- dir_1c88e54314b3a40c0293d383d8f8c8f6 -->
<g id="node1" class="node">
<title>dir_1c88e54314b3a40c0293d383d8f8c8f6</title>
<text text-anchor="middle" x="132" y="-111.5" font-family="Helvetica,sans-Serif" font-size="10.00" fill="#000000">collaborate</text>
</g>
<!-- dir_0ab8f65ea140da09fac1f581ec9a38dc -->
<g id="node2" class="node">
<title>dir_0ab8f65ea140da09fac1f581ec9a38dc</title>
<g id="a_node2"><a xlink:href="dir_0ab8f65ea140da09fac1f581ec9a38dc.html" target="_top" xlink:title="include">
<polygon fill="#ffffff" stroke="#ff0000" points="78,-60 24,-60 24,-24 78,-24 78,-60"/>
<text text-anchor="middle" x="51" y="-39.5" font-family="Helvetica,sans-Serif" font-size="10.00" fill="#000000">include</text>
</a>
</g>
</g>
<!-- dir_9c7ecb416b8c5d13bb4936a158cf249e -->
<g id="node3" class="node">
<title>dir_9c7ecb416b8c5d13bb4936a158cf249e</title>
<g id="a_node3"><a xlink:href="dir_9c7ecb416b8c5d13bb4936a158cf249e.html" target="_top" xlink:title="src">
<polygon fill="#ffffff" stroke="#000000" points="78,-132 24,-132 24,-96 78,-96 78,-132"/>
<text text-anchor="middle" x="51" y="-111.5" font-family="Helvetica,sans-Serif" font-size="10.00" fill="#000000">src</text>
</a>
</g>
</g>
<!-- dir_9c7ecb416b8c5d13bb4936a158cf249e&#45;&gt;dir_0ab8f65ea140da09fac1f581ec9a38dc -->
<g id="edge1" class="edge">
<title>dir_9c7ecb416b8c5d13bb4936a158cf249e&#45;&gt;dir_0ab8f65ea140da09fac1f581ec9a38dc</title>
<path fill="none" stroke="#000000" d="M51,-95.8314C51,-88.131 51,-78.9743 51,-70.4166"/>
<polygon fill="#000000" stroke="#000000" points="54.5001,-70.4132 51,-60.4133 47.5001,-70.4133 54.5001,-70.4132"/>
<g id="a_edge1&#45;headlabel"><a xlink:href="dir_000004_000002.html" target="_top" xlink:title="23">
<text text-anchor="middle" x="57.3393" y="-71.5079" font-family="Helvetica,sans-Serif" font-size="10.00" fill="#000000">23</text>
</a>
</g>
</g>
</g>
</svg>
