<?xml version="1.0" encoding="UTF-8" standalone="no"?>
<!DOCTYPE svg PUBLIC "-//W3C//DTD SVG 1.1//EN"
 "http://www.w3.org/Graphics/SVG/1.1/DTD/svg11.dtd">
<!-- Generated by graphviz version 2.40.1 (20161225.0304)
 -->
<!-- Title: libs/collaborate/include/collaborate/earth.h Pages: 1 -->
<svg width="1027pt" height="708pt"
 viewBox="0.00 0.00 1026.50 708.00" xmlns="http://www.w3.org/2000/svg" xmlns:xlink="http://www.w3.org/1999/xlink">
<g id="graph0" class="graph" transform="scale(1 1) rotate(0) translate(4 704)">
<title>libs/collaborate/include/collaborate/earth.h</title>
<polygon fill="#ffffff" stroke="transparent" points="-4,4 -4,-704 1022.5,-704 1022.5,4 -4,4"/>
<!-- Node7 -->
<g id="node1" class="node">
<title>Node7</title>
<polygon fill="#bfbfbf" stroke="#000000" points="0,-669.5 0,-699.5 116,-699.5 116,-669.5 0,-669.5"/>
<text text-anchor="start" x="8" y="-687.5" font-family="Helvetica,sans-Serif" font-size="10.00" fill="#000000">libs/collaborate/include</text>
<text text-anchor="middle" x="58" y="-676.5" font-family="Helvetica,sans-Serif" font-size="10.00" fill="#000000">/collaborate/earth.h</text>
</g>
<!-- Node8 -->
<g id="node2" class="node">
<title>Node8</title>
<g id="a_node2"><a xlink:href="collaborate_8h_source.html" target="_top" xlink:title="libs/collaborate/include\l/collaborate/collaborate.h">
<polygon fill="#ffffff" stroke="#000000" points="393.5,-.5 393.5,-30.5 518.5,-30.5 518.5,-.5 393.5,-.5"/>
<text text-anchor="start" x="401.5" y="-18.5" font-family="Helvetica,sans-Serif" font-size="10.00" fill="#000000">libs/collaborate/include</text>
<text text-anchor="middle" x="456" y="-7.5" font-family="Helvetica,sans-Serif" font-size="10.00" fill="#000000">/collaborate/collaborate.h</text>
</a>
</g>
</g>
<!-- Node7&#45;&gt;Node8 -->
<g id="edge1" class="edge">
<title>Node7&#45;&gt;Node8</title>
<path fill="none" stroke="#191970" d="M44.241,-660.2452C39.8699,-651.8142 35.3157,-642.1703 32,-633 19.2062,-597.6154 13,-588.1265 13,-550.5 13,-550.5 13,-550.5 13,-166 13,-114.5499 29.9582,-95.1872 73,-67 124.4263,-33.322 298.4773,-21.4702 393.2478,-17.454"/>
<polygon fill="#191970" stroke="#191970" points="41.2111,-662.0011 49.0227,-669.1587 47.3796,-658.692 41.2111,-662.0011"/>
</g>
<!-- Node9 -->
<g id="node3" class="node">
<title>Node9</title>
<g id="a_node3"><a xlink:href="earth__data_8h_source.html" target="_top" xlink:title="libs/collaborate/include\l/collaborate/earth_data.h">
<polygon fill="#ffffff" stroke="#000000" points="41,-602.5 41,-632.5 165,-632.5 165,-602.5 41,-602.5"/>
<text text-anchor="start" x="49" y="-620.5" font-family="Helvetica,sans-Serif" font-size="10.00" fill="#000000">libs/collaborate/include</text>
<text text-anchor="middle" x="103" y="-609.5" font-family="Helvetica,sans-Serif" font-size="10.00" fill="#000000">/collaborate/earth_data.h</text>
</a>
</g>
</g>
<!-- Node7&#45;&gt;Node9 -->
<g id="edge2" class="edge">
<title>Node7&#45;&gt;Node9</title>
<path fill="none" stroke="#191970" d="M73.9357,-660.7735C80.221,-651.4154 87.2553,-640.9421 92.8292,-632.6432"/>
<polygon fill="#191970" stroke="#191970" points="70.8813,-659.0438 68.2112,-669.2967 76.6923,-662.9467 70.8813,-659.0438"/>
</g>
<!-- Node9&#45;&gt;Node8 -->
<g id="edge3" class="edge">
<title>Node9&#45;&gt;Node8</title>
<path fill="none" stroke="#191970" d="M88.0956,-593.5568C72.7299,-566.5405 51,-520.7732 51,-478 51,-478 51,-478 51,-166 51,-95.131 111.461,-96.2769 176,-67 213.8661,-49.8227 322.9041,-32.9789 393.2057,-23.4499"/>
<polygon fill="#191970" stroke="#191970" points="85.1419,-595.4389 93.2192,-602.2951 91.1804,-591.8983 85.1419,-595.4389"/>
</g>
<!-- Node10 -->
<g id="node4" class="node">
<title>Node10</title>
<g id="a_node4"><a xlink:href="sensor_8h_source.html" target="_top" xlink:title="libs/collaborate/include\l/collaborate/sensor.h">
<polygon fill="#ffffff" stroke="#000000" points="649,-535.5 649,-565.5 765,-565.5 765,-535.5 649,-535.5"/>
<text text-anchor="start" x="657" y="-553.5" font-family="Helvetica,sans-Serif" font-size="10.00" fill="#000000">libs/collaborate/include</text>
<text text-anchor="middle" x="707" y="-542.5" font-family="Helvetica,sans-Serif" font-size="10.00" fill="#000000">/collaborate/sensor.h</text>
</a>
</g>
</g>
<!-- Node9&#45;&gt;Node10 -->
<g id="edge4" class="edge">
<title>Node9&#45;&gt;Node10</title>
<path fill="none" stroke="#191970" d="M175.3628,-609.473C296.5247,-596.0329 538.0444,-569.2418 648.9155,-556.9432"/>
<polygon fill="#191970" stroke="#191970" points="174.6348,-606.0322 165.0816,-610.6135 175.4066,-612.9895 174.6348,-606.0322"/>
</g>
<!-- Node10&#45;&gt;Node8 -->
<g id="edge5" class="edge">
<title>Node10&#45;&gt;Node8</title>
<path fill="none" stroke="#191970" d="M716.9003,-525.7928C747.1161,-448.751 834.0689,-213.9414 800,-145 774.7167,-93.8371 749.8438,-90.856 698,-67 640.443,-40.515 568.8737,-27.4532 518.5466,-21.1387"/>
<polygon fill="#191970" stroke="#191970" points="713.6084,-524.5999 713.1896,-535.1865 720.1189,-527.1717 713.6084,-524.5999"/>
</g>
<!-- Node11 -->
<g id="node5" class="node">
<title>Node11</title>
<g id="a_node5"><a xlink:href="sensor__cloud__radar_8h_source.html" target="_top" xlink:title="libs/collaborate/include\l/collaborate/sensor_cloud\l_radar.h">
<polygon fill="#ffffff" stroke="#000000" points="796,-379.5 796,-420.5 924,-420.5 924,-379.5 796,-379.5"/>
<text text-anchor="start" x="804" y="-408.5" font-family="Helvetica,sans-Serif" font-size="10.00" fill="#000000">libs/collaborate/include</text>
<text text-anchor="start" x="804" y="-397.5" font-family="Helvetica,sans-Serif" font-size="10.00" fill="#000000">/collaborate/sensor_cloud</text>
<text text-anchor="middle" x="860" y="-386.5" font-family="Helvetica,sans-Serif" font-size="10.00" fill="#000000">_radar.h</text>
</a>
</g>
</g>
<!-- Node10&#45;&gt;Node11 -->
<g id="edge6" class="edge">
<title>Node10&#45;&gt;Node11</title>
<path fill="none" stroke="#191970" d="M741.5537,-529.9197C754.871,-521.2043 769.8,-510.425 782,-499 807.7138,-474.9196 831.9353,-441.9711 846.3711,-420.8332"/>
<polygon fill="#191970" stroke="#191970" points="739.6215,-527.0007 733.0799,-535.3349 743.391,-532.8992 739.6215,-527.0007"/>
</g>
<!-- Node12 -->
<g id="node6" class="node">
<title>Node12</title>
<g id="a_node6"><a xlink:href="sensor__optical__imager_8h_source.html" target="_top" xlink:title="libs/collaborate/include\l/collaborate/sensor_optical\l_imager.h">
<polygon fill="#ffffff" stroke="#000000" points="885.5,-301.5 885.5,-342.5 1018.5,-342.5 1018.5,-301.5 885.5,-301.5"/>
<text text-anchor="start" x="893.5" y="-330.5" font-family="Helvetica,sans-Serif" font-size="10.00" fill="#000000">libs/collaborate/include</text>
<text text-anchor="start" x="893.5" y="-319.5" font-family="Helvetica,sans-Serif" font-size="10.00" fill="#000000">/collaborate/sensor_optical</text>
<text text-anchor="middle" x="952" y="-308.5" font-family="Helvetica,sans-Serif" font-size="10.00" fill="#000000">_imager.h</text>
</a>
</g>
</g>
<!-- Node10&#45;&gt;Node12 -->
<g id="edge8" class="edge">
<title>Node10&#45;&gt;Node12</title>
<path fill="none" stroke="#191970" d="M769.6155,-532.0384C822.2144,-513.074 894.7428,-478.1255 933,-421 948.7763,-397.4429 952.1943,-364.0555 952.5773,-342.7128"/>
<polygon fill="#191970" stroke="#191970" points="768.3181,-528.7843 760.0388,-535.3951 770.6337,-535.3902 768.3181,-528.7843"/>
</g>
<!-- Node13 -->
<g id="node7" class="node">
<title>Node13</title>
<g id="a_node7"><a xlink:href="sensor__rain__radar_8h_source.html" target="_top" xlink:title="libs/collaborate/include\l/collaborate/sensor_rain\l_radar.h">
<polygon fill="#ffffff" stroke="#000000" points="79,-223.5 79,-264.5 199,-264.5 199,-223.5 79,-223.5"/>
<text text-anchor="start" x="87" y="-252.5" font-family="Helvetica,sans-Serif" font-size="10.00" fill="#000000">libs/collaborate/include</text>
<text text-anchor="start" x="87" y="-241.5" font-family="Helvetica,sans-Serif" font-size="10.00" fill="#000000">/collaborate/sensor_rain</text>
<text text-anchor="middle" x="139" y="-230.5" font-family="Helvetica,sans-Serif" font-size="10.00" fill="#000000">_radar.h</text>
</a>
</g>
</g>
<!-- Node10&#45;&gt;Node13 -->
<g id="edge10" class="edge">
<title>Node10&#45;&gt;Node13</title>
<path fill="none" stroke="#191970" d="M638.4926,-540.1973C518.4176,-520.9239 276.637,-476.3193 213,-421 165.1145,-379.3734 147.5189,-301.686 141.6497,-264.6569"/>
<polygon fill="#191970" stroke="#191970" points="638.2483,-543.7024 648.6741,-541.8176 639.3485,-536.7894 638.2483,-543.7024"/>
</g>
<!-- Node14 -->
<g id="node8" class="node">
<title>Node14</title>
<g id="a_node8"><a xlink:href="subsystem__sensing_8h_source.html" target="_top" xlink:title="libs/collaborate/include\l/collaborate/subsystem\l_sensing.h">
<polygon fill="#ffffff" stroke="#000000" points="525,-457.5 525,-498.5 643,-498.5 643,-457.5 525,-457.5"/>
<text text-anchor="start" x="533" y="-486.5" font-family="Helvetica,sans-Serif" font-size="10.00" fill="#000000">libs/collaborate/include</text>
<text text-anchor="start" x="533" y="-475.5" font-family="Helvetica,sans-Serif" font-size="10.00" fill="#000000">/collaborate/subsystem</text>
<text text-anchor="middle" x="584" y="-464.5" font-family="Helvetica,sans-Serif" font-size="10.00" fill="#000000">_sensing.h</text>
</a>
</g>
</g>
<!-- Node10&#45;&gt;Node14 -->
<g id="edge12" class="edge">
<title>Node10&#45;&gt;Node14</title>
<path fill="none" stroke="#191970" d="M672.5734,-530.2079C655.7802,-520.3094 635.6221,-508.4277 618.7819,-498.5015"/>
<polygon fill="#191970" stroke="#191970" points="671.1222,-533.4153 681.5143,-535.478 674.6767,-527.3849 671.1222,-533.4153"/>
</g>
<!-- Node11&#45;&gt;Node8 -->
<g id="edge7" class="edge">
<title>Node11&#45;&gt;Node8</title>
<path fill="none" stroke="#191970" d="M859.0528,-368.9967C858.1736,-337.5194 857,-287.3741 857,-244 857,-244 857,-244 857,-166 857,-120.7255 866.6053,-97.3391 833,-67 810.1077,-46.3327 619.991,-28.4125 518.8101,-20.2297"/>
<polygon fill="#191970" stroke="#191970" points="855.5633,-369.415 859.349,-379.3104 862.5604,-369.214 855.5633,-369.415"/>
</g>
<!-- Node12&#45;&gt;Node8 -->
<g id="edge9" class="edge">
<title>Node12&#45;&gt;Node8</title>
<path fill="none" stroke="#191970" d="M952.1672,-291.4083C950.6567,-236.9214 938.9905,-123.4986 871,-67 844.4418,-44.9307 628.1563,-27.2206 518.8084,-19.5791"/>
<polygon fill="#191970" stroke="#191970" points="948.6691,-291.5498 952.3475,-301.4855 955.6679,-291.4244 948.6691,-291.5498"/>
</g>
<!-- Node13&#45;&gt;Node8 -->
<g id="edge11" class="edge">
<title>Node13&#45;&gt;Node8</title>
<path fill="none" stroke="#191970" d="M143.0166,-213.4484C149.947,-173.5045 168.0292,-104.2541 213,-67 239.9827,-44.6473 330.6214,-29.9213 393.2307,-22.1462"/>
<polygon fill="#191970" stroke="#191970" points="139.5467,-212.982 141.4146,-223.4109 146.4579,-214.0934 139.5467,-212.982"/>
</g>
<!-- Node14&#45;&gt;Node8 -->
<g id="edge13" class="edge">
<title>Node14&#45;&gt;Node8</title>
<path fill="none" stroke="#191970" d="M514.8627,-462.6148C411.0667,-437.4884 227,-384.1664 227,-322 227,-322 227,-322 227,-166 227,-116.0914 241.2543,-98.4584 280,-67 312.1308,-40.9123 357.0145,-28.0395 393.4133,-21.6874"/>
<polygon fill="#191970" stroke="#191970" points="514.1078,-466.0329 524.648,-464.9577 515.7378,-459.2254 514.1078,-466.0329"/>
</g>
<!-- Node15 -->
<g id="node9" class="node">
<title>Node15</title>
<g id="a_node9"><a xlink:href="node_8h_source.html" target="_top" xlink:title="libs/collaborate/include\l/collaborate/node.h">
<polygon fill="#ffffff" stroke="#000000" points="464,-385 464,-415 580,-415 580,-385 464,-385"/>
<text text-anchor="start" x="472" y="-403" font-family="Helvetica,sans-Serif" font-size="10.00" fill="#000000">libs/collaborate/include</text>
<text text-anchor="middle" x="522" y="-392" font-family="Helvetica,sans-Serif" font-size="10.00" fill="#000000">/collaborate/node.h</text>
</a>
</g>
</g>
<!-- Node14&#45;&gt;Node15 -->
<g id="edge14" class="edge">
<title>Node14&#45;&gt;Node15</title>
<path fill="none" stroke="#191970" d="M560.9753,-449.0334C551.8653,-437.5725 541.7695,-424.8714 534.136,-415.2679"/>
<polygon fill="#191970" stroke="#191970" points="558.4228,-451.447 567.3851,-457.0974 563.9025,-447.0913 558.4228,-451.447"/>
</g>
<!-- Node18 -->
<g id="node12" class="node">
<title>Node18</title>
<g id="a_node12"><a xlink:href="observing__system_8h_source.html" target="_top" xlink:title="libs/collaborate/include\l/collaborate/observing\l_system.h">
<polygon fill="#ffffff" stroke="#000000" points="541,-145.5 541,-186.5 657,-186.5 657,-145.5 541,-145.5"/>
<text text-anchor="start" x="549" y="-174.5" font-family="Helvetica,sans-Serif" font-size="10.00" fill="#000000">libs/collaborate/include</text>
<text text-anchor="start" x="549" y="-163.5" font-family="Helvetica,sans-Serif" font-size="10.00" fill="#000000">/collaborate/observing</text>
<text text-anchor="middle" x="599" y="-152.5" font-family="Helvetica,sans-Serif" font-size="10.00" fill="#000000">_system.h</text>
</a>
</g>
</g>
<!-- Node14&#45;&gt;Node18 -->
<g id="edge34" class="edge">
<title>Node14&#45;&gt;Node18</title>
<path fill="none" stroke="#191970" d="M586.74,-447.4575C587.4913,-438.8984 588.2931,-429.587 589,-421 596.2329,-333.1357 602.546,-311.1479 601,-223 600.7882,-210.9215 600.324,-197.41 599.8961,-186.5744"/>
<polygon fill="#191970" stroke="#191970" points="583.2531,-447.1561 585.8584,-457.4255 590.2259,-447.7728 583.2531,-447.1561"/>
</g>
<!-- Node15&#45;&gt;Node8 -->
<g id="edge19" class="edge">
<title>Node15&#45;&gt;Node8</title>
<path fill="none" stroke="#191970" d="M453.6613,-388.875C377.5258,-372.1255 265,-332.4148 265,-244 265,-244 265,-244 265,-166 265,-94.0202 349.7232,-51.1615 406.3156,-30.5622"/>
<polygon fill="#191970" stroke="#191970" points="453.1749,-392.3495 463.6827,-390.9945 454.6234,-385.501 453.1749,-392.3495"/>
</g>
<!-- Node16 -->
<g id="node10" class="node">
<title>Node16</title>
<g id="a_node10"><a xlink:href="channel_8h_source.html" target="_top" xlink:title="libs/collaborate/include\l/collaborate/channel.h">
<polygon fill="#ffffff" stroke="#000000" points="675,-151 675,-181 791,-181 791,-151 675,-151"/>
<text text-anchor="start" x="683" y="-169" font-family="Helvetica,sans-Serif" font-size="10.00" fill="#000000">libs/collaborate/include</text>
<text text-anchor="middle" x="733" y="-158" font-family="Helvetica,sans-Serif" font-size="10.00" fill="#000000">/collaborate/channel.h</text>
</a>
</g>
</g>
<!-- Node15&#45;&gt;Node16 -->
<g id="edge15" class="edge">
<title>Node15&#45;&gt;Node16</title>
<path fill="none" stroke="#191970" d="M543.001,-377.0603C552.4882,-366.6766 563.8276,-354.2369 574,-343 628.0579,-283.2853 692.0162,-211.8441 719.4271,-181.1883"/>
<polygon fill="#191970" stroke="#191970" points="540.3216,-374.804 536.1571,-384.5461 545.4879,-379.5273 540.3216,-374.804"/>
</g>
<!-- Node15&#45;&gt;Node18 -->
<g id="edge20" class="edge">
<title>Node15&#45;&gt;Node18</title>
<path fill="none" stroke="#191970" d="M535.2947,-375.8144C549.2624,-349.3673 570.8546,-305.3593 583,-265 590.9271,-238.6583 595.1639,-207.121 597.246,-186.8355"/>
<polygon fill="#191970" stroke="#191970" points="532.159,-374.2561 530.5253,-384.7243 538.3304,-377.5597 532.159,-374.2561"/>
</g>
<!-- Node19 -->
<g id="node13" class="node">
<title>Node19</title>
<g id="a_node13"><a xlink:href="scheduler_8h_source.html" target="_top" xlink:title="libs/collaborate/include\l/collaborate/scheduler.h">
<polygon fill="#ffffff" stroke="#000000" points="454,-229 454,-259 574,-259 574,-229 454,-229"/>
<text text-anchor="start" x="462" y="-247" font-family="Helvetica,sans-Serif" font-size="10.00" fill="#000000">libs/collaborate/include</text>
<text text-anchor="middle" x="514" y="-236" font-family="Helvetica,sans-Serif" font-size="10.00" fill="#000000">/collaborate/scheduler.h</text>
</a>
</g>
</g>
<!-- Node15&#45;&gt;Node19 -->
<g id="edge23" class="edge">
<title>Node15&#45;&gt;Node19</title>
<path fill="none" stroke="#191970" d="M520.6977,-374.6059C519.0165,-341.8216 516.1444,-285.8158 514.773,-259.0742"/>
<polygon fill="#191970" stroke="#191970" points="517.2107,-374.9504 521.2184,-384.758 524.2015,-374.5919 517.2107,-374.9504"/>
</g>
<!-- Node20 -->
<g id="node14" class="node">
<title>Node20</title>
<g id="a_node14"><a xlink:href="scheduler__alpha_8h_source.html" target="_top" xlink:title="libs/collaborate/include\l/collaborate/scheduler\l_alpha.h">
<polygon fill="#ffffff" stroke="#000000" points="293,-145.5 293,-186.5 409,-186.5 409,-145.5 293,-145.5"/>
<text text-anchor="start" x="301" y="-174.5" font-family="Helvetica,sans-Serif" font-size="10.00" fill="#000000">libs/collaborate/include</text>
<text text-anchor="start" x="301" y="-163.5" font-family="Helvetica,sans-Serif" font-size="10.00" fill="#000000">/collaborate/scheduler</text>
<text text-anchor="middle" x="351" y="-152.5" font-family="Helvetica,sans-Serif" font-size="10.00" fill="#000000">_alpha.h</text>
</a>
</g>
</g>
<!-- Node15&#45;&gt;Node20 -->
<g id="edge29" class="edge">
<title>Node15&#45;&gt;Node20</title>
<path fill="none" stroke="#191970" d="M453.792,-382.2595C418.322,-371.5995 380.088,-357.3529 369,-343 333.311,-296.8021 340.508,-222.3428 346.7197,-186.5324"/>
<polygon fill="#191970" stroke="#191970" points="453.1172,-385.7091 463.6983,-385.1682 455.0894,-378.9926 453.1172,-385.7091"/>
</g>
<!-- Node21 -->
<g id="node15" class="node">
<title>Node21</title>
<g id="a_node15"><a xlink:href="tree_8h_source.html" target="_top" xlink:title="libs/collaborate/include\l/collaborate/tree.h">
<polygon fill="#ffffff" stroke="#000000" points="378,-307 378,-337 494,-337 494,-307 378,-307"/>
<text text-anchor="start" x="386" y="-325" font-family="Helvetica,sans-Serif" font-size="10.00" fill="#000000">libs/collaborate/include</text>
<text text-anchor="middle" x="436" y="-314" font-family="Helvetica,sans-Serif" font-size="10.00" fill="#000000">/collaborate/tree.h</text>
</a>
</g>
</g>
<!-- Node15&#45;&gt;Node21 -->
<g id="edge30" class="edge">
<title>Node15&#45;&gt;Node21</title>
<path fill="none" stroke="#191970" d="M497.8579,-378.1036C483.5043,-365.0853 465.6547,-348.8962 452.8242,-337.2592"/>
<polygon fill="#191970" stroke="#191970" points="495.6598,-380.8352 505.4183,-384.9608 500.3625,-375.6501 495.6598,-380.8352"/>
</g>
<!-- Node16&#45;&gt;Node8 -->
<g id="edge16" class="edge">
<title>Node16&#45;&gt;Node8</title>
<path fill="none" stroke="#191970" d="M722.6454,-141.2985C711.8326,-118.5487 692.7064,-85.5926 666,-67 642.3549,-50.5386 571.5639,-35.3021 518.6663,-25.7401"/>
<polygon fill="#191970" stroke="#191970" points="719.5715,-142.9941 726.8972,-150.6481 725.9436,-140.0963 719.5715,-142.9941"/>
</g>
<!-- Node17 -->
<g id="node11" class="node">
<title>Node17</title>
<g id="a_node11"><a xlink:href="observing__system__alpha_8h_source.html" target="_top" xlink:title="libs/collaborate/include\l/collaborate/observing\l_system_alpha.h">
<polygon fill="#ffffff" stroke="#000000" points="541,-67.5 541,-108.5 657,-108.5 657,-67.5 541,-67.5"/>
<text text-anchor="start" x="549" y="-96.5" font-family="Helvetica,sans-Serif" font-size="10.00" fill="#000000">libs/collaborate/include</text>
<text text-anchor="start" x="549" y="-85.5" font-family="Helvetica,sans-Serif" font-size="10.00" fill="#000000">/collaborate/observing</text>
<text text-anchor="middle" x="599" y="-74.5" font-family="Helvetica,sans-Serif" font-size="10.00" fill="#000000">_system_alpha.h</text>
</a>
</g>
</g>
<!-- Node16&#45;&gt;Node17 -->
<g id="edge17" class="edge">
<title>Node16&#45;&gt;Node17</title>
<path fill="none" stroke="#191970" d="M698.5039,-145.9202C678.8244,-134.4649 654.2072,-120.1355 634.3822,-108.5956"/>
<polygon fill="#191970" stroke="#191970" points="696.7602,-148.9549 707.1635,-150.9608 700.2817,-142.9052 696.7602,-148.9549"/>
</g>
<!-- Node17&#45;&gt;Node8 -->
<g id="edge18" class="edge">
<title>Node17&#45;&gt;Node8</title>
<path fill="none" stroke="#191970" d="M549.2246,-62.7642C528.0704,-52.0392 504.1127,-39.8928 485.7817,-30.5991"/>
<polygon fill="#191970" stroke="#191970" points="547.9025,-66.018 558.4044,-67.4183 551.068,-59.7746 547.9025,-66.018"/>
</g>
<!-- Node18&#45;&gt;Node8 -->
<g id="edge21" class="edge">
<title>Node18&#45;&gt;Node8</title>
<path fill="none" stroke="#191970" d="M564.8516,-139.0177C553.9733,-129.8866 542.1383,-119.3681 532,-109 506.8448,-83.2747 481.1843,-49.9104 467.0529,-30.7848"/>
<polygon fill="#191970" stroke="#191970" points="562.6295,-141.7218 572.5656,-145.3993 567.0915,-136.3282 562.6295,-141.7218"/>
</g>
<!-- Node18&#45;&gt;Node17 -->
<g id="edge22" class="edge">
<title>Node18&#45;&gt;Node17</title>
<path fill="none" stroke="#191970" d="M599,-135.0789C599,-126.2178 599,-116.7747 599,-108.6898"/>
<polygon fill="#191970" stroke="#191970" points="595.5001,-135.0974 599,-145.0974 602.5001,-135.0975 595.5001,-135.0974"/>
</g>
<!-- Node19&#45;&gt;Node8 -->
<g id="edge24" class="edge">
<title>Node19&#45;&gt;Node8</title>
<path fill="none" stroke="#191970" d="M507.6134,-218.8392C495.5361,-171.2585 469.6833,-69.4073 459.8786,-30.7805"/>
<polygon fill="#191970" stroke="#191970" points="504.2516,-219.8212 510.1044,-228.6527 511.0365,-218.0989 504.2516,-219.8212"/>
</g>
<!-- Node19&#45;&gt;Node17 -->
<g id="edge26" class="edge">
<title>Node19&#45;&gt;Node17</title>
<path fill="none" stroke="#191970" d="M513.9748,-218.7606C514.9905,-197.7397 518.9257,-167.684 532,-145 540.3125,-130.5777 553.6928,-118.1034 566.3184,-108.5328"/>
<polygon fill="#191970" stroke="#191970" points="510.4738,-218.7436 513.6768,-228.8427 517.4708,-218.9505 510.4738,-218.7436"/>
</g>
<!-- Node19&#45;&gt;Node18 -->
<g id="edge25" class="edge">
<title>Node19&#45;&gt;Node18</title>
<path fill="none" stroke="#191970" d="M537.9326,-222.0383C550.0444,-210.924 564.6603,-197.5118 576.5561,-186.5956"/>
<polygon fill="#191970" stroke="#191970" points="535.3904,-219.6208 530.3889,-228.9608 540.1232,-224.7784 535.3904,-219.6208"/>
</g>
<!-- Node19&#45;&gt;Node20 -->
<g id="edge27" class="edge">
<title>Node19&#45;&gt;Node20</title>
<path fill="none" stroke="#191970" d="M473.3264,-224.5366C449.1808,-212.9822 418.5896,-198.3435 394.0395,-186.5956"/>
<polygon fill="#191970" stroke="#191970" points="472.0407,-227.8014 482.572,-228.9608 475.0623,-221.4871 472.0407,-227.8014"/>
</g>
<!-- Node20&#45;&gt;Node8 -->
<g id="edge28" class="edge">
<title>Node20&#45;&gt;Node8</title>
<path fill="none" stroke="#191970" d="M371.2615,-136.9585C393.3733,-105.2649 427.9341,-55.7278 445.2917,-30.8485"/>
<polygon fill="#191970" stroke="#191970" points="368.231,-135.1852 365.3796,-145.3892 373.9719,-139.1905 368.231,-135.1852"/>
</g>
<!-- Node21&#45;&gt;Node8 -->
<g id="edge31" class="edge">
<title>Node21&#45;&gt;Node8</title>
<path fill="none" stroke="#191970" d="M437.6674,-296.447C441.6816,-234.9294 451.7881,-80.047 455.0022,-30.7911"/>
<polygon fill="#191970" stroke="#191970" points="434.1505,-296.5939 436.9918,-306.8006 441.1356,-297.0498 434.1505,-296.5939"/>
</g>
<!-- Node21&#45;&gt;Node19 -->
<g id="edge32" class="edge">
<title>Node21&#45;&gt;Node19</title>
<path fill="none" stroke="#191970" d="M458.2588,-299.7412C471.2141,-286.7859 487.2116,-270.7884 498.7408,-259.2592"/>
<polygon fill="#191970" stroke="#191970" points="455.6354,-297.4148 451.0392,-306.9608 460.5852,-302.3646 455.6354,-297.4148"/>
</g>
<!-- Node21&#45;&gt;Node20 -->
<g id="edge33" class="edge">
<title>Node21&#45;&gt;Node20</title>
<path fill="none" stroke="#191970" d="M422.7356,-297.6559C406.1132,-267.1488 377.9139,-215.3948 362.2808,-186.7036"/>
<polygon fill="#191970" stroke="#191970" points="419.8371,-299.6515 427.6951,-306.758 425.9838,-296.3023 419.8371,-299.6515"/>
</g>
</g>
</svg>
