<?xml version="1.0" encoding="UTF-8" standalone="no"?>
<!DOCTYPE svg PUBLIC "-//W3C//DTD SVG 1.1//EN"
 "http://www.w3.org/Graphics/SVG/1.1/DTD/svg11.dtd">
<!-- Generated by graphviz version 2.40.1 (20161225.0304)
 -->
<!-- Title: libs/collaborate/include/collaborate/earth.h Pages: 1 -->
<!--zoomable 708 -->
<svg id="main" version="1.1" xmlns="http://www.w3.org/2000/svg" xmlns:xlink="http://www.w3.org/1999/xlink" xml:space="preserve" onload="init(evt)">
<style type="text/css"><![CDATA[
.edge:hover path { stroke: red; }
.edge:hover polygon { stroke: red; fill: red; }
]]></style>
<script type="text/javascript"><![CDATA[
var edges = document.getElementsByTagName('g');
if (edges && edges.length) {
  for (var i=0;i<edges.length;i++) {
    if (edges[i].id.substr(0,4)=='edge') {
      edges[i].setAttribute('class','edge');
    }
  }
}
]]></script>
        <defs>
                <circle id="rim" cx="0" cy="0" r="7"/>
                <circle id="rim2" cx="0" cy="0" r="3.5"/>
                <g id="zoomPlus">
                        <use xlink:href="#rim" fill="#404040">
                                <set attributeName="fill" to="#808080" begin="zoomplus.mouseover" end="zoomplus.mouseout"/>
                        </use>
                        <path d="M-4,0h8M0,-4v8" fill="none" stroke="white" stroke-width="1.5" pointer-events="none"/>
                </g>
                <g id="zoomMin">
                        <use xlink:href="#rim" fill="#404040">
                                <set attributeName="fill" to="#808080" begin="zoomminus.mouseover" end="zoomminus.mouseout"/>
                        </use>
                        <path d="M-4,0h8" fill="none" stroke="white" stroke-width="1.5" pointer-events="none"/>
                </g>
                <g id="dirArrow">
                        <path fill="none" stroke="white" stroke-width="1.5" d="M0,-3.0v7 M-2.5,-0.5L0,-3.0L2.5,-0.5"/>
                </g>
               <g id="resetDef">
                       <use xlink:href="#rim2" fill="#404040">
                               <set attributeName="fill" to="#808080" begin="reset.mouseover" end="reset.mouseout"/>
                       </use>
               </g>
        </defs>

<script type="text/javascript">
var viewWidth = 1100;
var viewHeight = 708;
var sectionId = 'dynsection-1';
</script>
<script xlink:href="svgpan.js"/>
<svg id="graph" class="graph">
<g id="viewport">
<title>libs/collaborate/include/collaborate/earth.h</title>
<polygon fill="#ffffff" stroke="transparent" points="-4,4 -4,-704 1096,-704 1096,4 -4,4"/>
<!-- Node7 -->
<g id="node1" class="node">
<title>Node7</title>
<polygon fill="#bfbfbf" stroke="#000000" points="0,-669.5 0,-699.5 130,-699.5 130,-669.5 0,-669.5"/>
<text text-anchor="start" x="8" y="-687.5" font-family="Helvetica,sans-Serif" font-size="10.00" fill="#000000">libs/collaborate/include</text>
<text text-anchor="middle" x="65" y="-676.5" font-family="Helvetica,sans-Serif" font-size="10.00" fill="#000000">/collaborate/earth.h</text>
</g>
<!-- Node8 -->
<g id="node2" class="node">
<title>Node8</title>
<g id="a_node2"><a xlink:href="collaborate_8h_source.html" target="_top" xlink:title="libs/collaborate/include\l/collaborate/collaborate.h">
<polygon fill="#ffffff" stroke="#000000" points="416.5,-.5 416.5,-30.5 557.5,-30.5 557.5,-.5 416.5,-.5"/>
<text text-anchor="start" x="424.5" y="-18.5" font-family="Helvetica,sans-Serif" font-size="10.00" fill="#000000">libs/collaborate/include</text>
<text text-anchor="middle" x="487" y="-7.5" font-family="Helvetica,sans-Serif" font-size="10.00" fill="#000000">/collaborate/collaborate.h</text>
</a>
</g>
</g>
<!-- Node7&#45;&gt;Node8 -->
<g id="edge1" class="edge">
<title>Node7&#45;&gt;Node8</title>
<path fill="none" stroke="#191970" d="M49.1514,-660.7427C44.047,-652.2664 38.7477,-642.4677 35,-633 21.1515,-598.0147 16,-588.1265 16,-550.5 16,-550.5 16,-550.5 16,-166 16,-114.5499 32.8317,-94.993 76,-67 130.6801,-31.542 313.9564,-20.4774 416.3249,-17.039"/>
<polygon fill="#191970" stroke="#191970" points="46.2605,-662.7211 54.5309,-669.3431 52.1952,-659.0089 46.2605,-662.7211"/>
</g>
<!-- Node9 -->
<g id="node3" class="node">
<title>Node9</title>
<g id="a_node3"><a xlink:href="earth__data_8h_source.html" target="_top" xlink:title="libs/collaborate/include\l/collaborate/earth_data.h">
<polygon fill="#ffffff" stroke="#000000" points="44.5,-602.5 44.5,-632.5 183.5,-632.5 183.5,-602.5 44.5,-602.5"/>
<text text-anchor="start" x="52.5" y="-620.5" font-family="Helvetica,sans-Serif" font-size="10.00" fill="#000000">libs/collaborate/include</text>
<text text-anchor="middle" x="114" y="-609.5" font-family="Helvetica,sans-Serif" font-size="10.00" fill="#000000">/collaborate/earth_data.h</text>
</a>
</g>
</g>
<!-- Node7&#45;&gt;Node9 -->
<g id="edge2" class="edge">
<title>Node7&#45;&gt;Node9</title>
<path fill="none" stroke="#191970" d="M82.1408,-661.0626C89.0381,-651.6315 96.7932,-641.0276 102.9251,-632.6432"/>
<polygon fill="#191970" stroke="#191970" points="79.197,-659.1588 76.1189,-669.2967 84.8472,-663.2911 79.197,-659.1588"/>
</g>
<!-- Node9&#45;&gt;Node8 -->
<g id="edge3" class="edge">
<title>Node9&#45;&gt;Node8</title>
<path fill="none" stroke="#191970" d="M96.7461,-593.7926C79.0197,-567.0491 54,-521.5828 54,-478 54,-478 54,-478 54,-166 54,-90.8771 121.7782,-96.1855 191,-67 230.6524,-50.2816 342.1549,-33.7201 416.4157,-24.0584"/>
<polygon fill="#191970" stroke="#191970" points="93.9004,-595.8318 102.4314,-602.1145 99.6804,-591.8831 93.9004,-595.8318"/>
</g>
<!-- Node10 -->
<g id="node4" class="node">
<title>Node10</title>
<g id="a_node4"><a xlink:href="sensor_8h_source.html" target="_top" xlink:title="libs/collaborate/include\l/collaborate/sensor.h">
<polygon fill="#ffffff" stroke="#000000" points="690,-535.5 690,-565.5 820,-565.5 820,-535.5 690,-535.5"/>
<text text-anchor="start" x="698" y="-553.5" font-family="Helvetica,sans-Serif" font-size="10.00" fill="#000000">libs/collaborate/include</text>
<text text-anchor="middle" x="755" y="-542.5" font-family="Helvetica,sans-Serif" font-size="10.00" fill="#000000">/collaborate/sensor.h</text>
</a>
</g>
</g>
<!-- Node9&#45;&gt;Node10 -->
<g id="edge4" class="edge">
<title>Node9&#45;&gt;Node10</title>
<path fill="none" stroke="#191970" d="M193.6604,-609.1736C321.9208,-595.7672 571.7553,-569.6535 689.9896,-557.2952"/>
<polygon fill="#191970" stroke="#191970" points="193.0945,-605.7136 183.5126,-610.2343 193.8223,-612.6756 193.0945,-605.7136"/>
</g>
<!-- Node10&#45;&gt;Node8 -->
<g id="edge5" class="edge">
<title>Node10&#45;&gt;Node8</title>
<path fill="none" stroke="#191970" d="M765.9017,-525.7505C799.1889,-448.5832 895.1007,-213.4426 859,-145 830.3586,-90.6994 801.58,-90.8241 745,-67 684.5926,-41.5643 610.8407,-28.4625 557.6854,-21.8593"/>
<polygon fill="#191970" stroke="#191970" points="762.5885,-524.5932 761.8145,-535.1597 769.009,-527.3822 762.5885,-524.5932"/>
</g>
<!-- Node11 -->
<g id="node5" class="node">
<title>Node11</title>
<g id="a_node5"><a xlink:href="sensor__cloud__radar_8h_source.html" target="_top" xlink:title="libs/collaborate/include\l/collaborate/sensor_cloud\l_radar.h">
<polygon fill="#ffffff" stroke="#000000" points="848.5,-379.5 848.5,-420.5 989.5,-420.5 989.5,-379.5 848.5,-379.5"/>
<text text-anchor="start" x="856.5" y="-408.5" font-family="Helvetica,sans-Serif" font-size="10.00" fill="#000000">libs/collaborate/include</text>
<text text-anchor="start" x="856.5" y="-397.5" font-family="Helvetica,sans-Serif" font-size="10.00" fill="#000000">/collaborate/sensor_cloud</text>
<text text-anchor="middle" x="919" y="-386.5" font-family="Helvetica,sans-Serif" font-size="10.00" fill="#000000">_radar.h</text>
</a>
</g>
</g>
<!-- Node10&#45;&gt;Node11 -->
<g id="edge6" class="edge">
<title>Node10&#45;&gt;Node11</title>
<path fill="none" stroke="#191970" d="M791.2108,-529.9122C805.213,-521.1958 820.9694,-510.4177 834,-499 861.4313,-474.964 887.9786,-442.004 903.9042,-420.8515"/>
<polygon fill="#191970" stroke="#191970" points="789.0326,-527.1404 782.3089,-535.3283 792.6711,-533.1205 789.0326,-527.1404"/>
</g>
<!-- Node12 -->
<g id="node6" class="node">
<title>Node12</title>
<g id="a_node6"><a xlink:href="sensor__optical__imager_8h_source.html" target="_top" xlink:title="libs/collaborate/include\l/collaborate/sensor_optical\l_imager.h">
<polygon fill="#ffffff" stroke="#000000" points="944,-301.5 944,-342.5 1092,-342.5 1092,-301.5 944,-301.5"/>
<text text-anchor="start" x="952" y="-330.5" font-family="Helvetica,sans-Serif" font-size="10.00" fill="#000000">libs/collaborate/include</text>
<text text-anchor="start" x="952" y="-319.5" font-family="Helvetica,sans-Serif" font-size="10.00" fill="#000000">/collaborate/sensor_optical</text>
<text text-anchor="middle" x="1018" y="-308.5" font-family="Helvetica,sans-Serif" font-size="10.00" fill="#000000">_imager.h</text>
</a>
</g>
</g>
<!-- Node10&#45;&gt;Node12 -->
<g id="edge8" class="edge">
<title>Node10&#45;&gt;Node12</title>
<path fill="none" stroke="#191970" d="M825.0153,-532.386C881.3517,-513.9887 957.7042,-479.6656 999,-421 1015.3197,-397.816 1018.5933,-364.3295 1018.7971,-342.8637"/>
<polygon fill="#191970" stroke="#191970" points="823.923,-529.0605 815.4495,-535.4206 826.0398,-535.7328 823.923,-529.0605"/>
</g>
<!-- Node13 -->
<g id="node7" class="node">
<title>Node13</title>
<g id="a_node7"><a xlink:href="sensor__rain__radar_8h_source.html" target="_top" xlink:title="libs/collaborate/include\l/collaborate/sensor_rain\l_radar.h">
<polygon fill="#ffffff" stroke="#000000" points="82,-223.5 82,-264.5 216,-264.5 216,-223.5 82,-223.5"/>
<text text-anchor="start" x="90" y="-252.5" font-family="Helvetica,sans-Serif" font-size="10.00" fill="#000000">libs/collaborate/include</text>
<text text-anchor="start" x="90" y="-241.5" font-family="Helvetica,sans-Serif" font-size="10.00" fill="#000000">/collaborate/sensor_rain</text>
<text text-anchor="middle" x="149" y="-230.5" font-family="Helvetica,sans-Serif" font-size="10.00" fill="#000000">_radar.h</text>
</a>
</g>
</g>
<!-- Node10&#45;&gt;Node13 -->
<g id="edge10" class="edge">
<title>Node10&#45;&gt;Node13</title>
<path fill="none" stroke="#191970" d="M679.7462,-540.1257C551.6097,-521.1524 298.2813,-477.5537 230,-421 180.4199,-379.9355 159.7756,-301.9736 152.4572,-264.7673"/>
<polygon fill="#191970" stroke="#191970" points="679.4725,-543.623 689.8749,-541.6128 680.4894,-536.6972 679.4725,-543.623"/>
</g>
<!-- Node14 -->
<g id="node8" class="node">
<title>Node14</title>
<g id="a_node8"><a xlink:href="subsystem__sensing_8h_source.html" target="_top" xlink:title="libs/collaborate/include\l/collaborate/subsystem\l_sensing.h">
<polygon fill="#ffffff" stroke="#000000" points="559.5,-457.5 559.5,-498.5 690.5,-498.5 690.5,-457.5 559.5,-457.5"/>
<text text-anchor="start" x="567.5" y="-486.5" font-family="Helvetica,sans-Serif" font-size="10.00" fill="#000000">libs/collaborate/include</text>
<text text-anchor="start" x="567.5" y="-475.5" font-family="Helvetica,sans-Serif" font-size="10.00" fill="#000000">/collaborate/subsystem</text>
<text text-anchor="middle" x="625" y="-464.5" font-family="Helvetica,sans-Serif" font-size="10.00" fill="#000000">_sensing.h</text>
</a>
</g>
</g>
<!-- Node10&#45;&gt;Node14 -->
<g id="edge12" class="edge">
<title>Node10&#45;&gt;Node14</title>
<path fill="none" stroke="#191970" d="M719.1062,-530.4823C701.26,-520.5296 679.7248,-508.5196 661.7613,-498.5015"/>
<polygon fill="#191970" stroke="#191970" points="717.6255,-533.664 728.0639,-535.478 721.035,-527.5504 717.6255,-533.664"/>
</g>
<!-- Node11&#45;&gt;Node8 -->
<g id="edge7" class="edge">
<title>Node11&#45;&gt;Node8</title>
<path fill="none" stroke="#191970" d="M918.0528,-368.9967C917.1736,-337.5194 916,-287.3741 916,-244 916,-244 916,-244 916,-166 916,-120.7255 925.7458,-97.1828 892,-67 867.566,-45.1459 666.9428,-27.9829 557.5391,-20.1437"/>
<polygon fill="#191970" stroke="#191970" points="914.5633,-369.415 918.349,-379.3104 921.5604,-369.214 914.5633,-369.415"/>
</g>
<!-- Node12&#45;&gt;Node8 -->
<g id="edge9" class="edge">
<title>Node12&#45;&gt;Node8</title>
<path fill="none" stroke="#191970" d="M1017.3124,-291.2788C1014.2823,-236.5851 999.4656,-122.8433 930,-67 901.5997,-44.169 675.4191,-27.0674 557.6916,-19.6147"/>
<polygon fill="#191970" stroke="#191970" points="1013.8218,-291.5656 1017.774,-301.3956 1020.8145,-291.2464 1013.8218,-291.5656"/>
</g>
<!-- Node13&#45;&gt;Node8 -->
<g id="edge11" class="edge">
<title>Node13&#45;&gt;Node8</title>
<path fill="none" stroke="#191970" d="M154.2219,-213.3072C162.7287,-173.2059 183.5459,-103.7803 230,-67 258.3628,-44.5436 350.6334,-30.1157 416.4851,-22.4062"/>
<polygon fill="#191970" stroke="#191970" points="150.7503,-212.8196 152.2267,-223.3111 157.6151,-214.1888 150.7503,-212.8196"/>
</g>
<!-- Node14&#45;&gt;Node8 -->
<g id="edge13" class="edge">
<title>Node14&#45;&gt;Node8</title>
<path fill="none" stroke="#191970" d="M549.2435,-463.0283C438.1279,-438.8653 244,-387.3055 244,-322 244,-322 244,-322 244,-166 244,-115.6658 259.4079,-98.0805 299,-67 317.4337,-52.5292 370.9488,-38.6423 416.1906,-28.9431"/>
<polygon fill="#191970" stroke="#191970" points="548.5575,-466.4607 559.0698,-465.1409 550.0289,-459.6171 548.5575,-466.4607"/>
</g>
<!-- Node15 -->
<g id="node9" class="node">
<title>Node15</title>
<g id="a_node9"><a xlink:href="node_8h_source.html" target="_top" xlink:title="libs/collaborate/include\l/collaborate/node.h">
<polygon fill="#ffffff" stroke="#000000" points="495,-385 495,-415 625,-415 625,-385 495,-385"/>
<text text-anchor="start" x="503" y="-403" font-family="Helvetica,sans-Serif" font-size="10.00" fill="#000000">libs/collaborate/include</text>
<text text-anchor="middle" x="560" y="-392" font-family="Helvetica,sans-Serif" font-size="10.00" fill="#000000">/collaborate/node.h</text>
</a>
</g>
</g>
<!-- Node14&#45;&gt;Node15 -->
<g id="edge14" class="edge">
<title>Node14&#45;&gt;Node15</title>
<path fill="none" stroke="#191970" d="M601.139,-449.3668C591.5162,-437.8194 580.8038,-424.9646 572.7232,-415.2679"/>
<polygon fill="#191970" stroke="#191970" points="598.4905,-451.6559 607.5812,-457.0974 603.8681,-447.1745 598.4905,-451.6559"/>
</g>
<!-- Node18 -->
<g id="node12" class="node">
<title>Node18</title>
<g id="a_node12"><a xlink:href="observing__system_8h_source.html" target="_top" xlink:title="libs/collaborate/include\l/collaborate/observing\l_system.h">
<polygon fill="#ffffff" stroke="#000000" points="572,-145.5 572,-186.5 702,-186.5 702,-145.5 572,-145.5"/>
<text text-anchor="start" x="580" y="-174.5" font-family="Helvetica,sans-Serif" font-size="10.00" fill="#000000">libs/collaborate/include</text>
<text text-anchor="start" x="580" y="-163.5" font-family="Helvetica,sans-Serif" font-size="10.00" fill="#000000">/collaborate/observing</text>
<text text-anchor="middle" x="637" y="-152.5" font-family="Helvetica,sans-Serif" font-size="10.00" fill="#000000">_system.h</text>
</a>
</g>
</g>
<!-- Node14&#45;&gt;Node18 -->
<g id="edge34" class="edge">
<title>Node14&#45;&gt;Node18</title>
<path fill="none" stroke="#191970" d="M630.5274,-447.5412C631.8847,-438.9827 633.1816,-429.6508 634,-421 642.2145,-334.1681 639.5629,-229.9704 637.9044,-186.554"/>
<polygon fill="#191970" stroke="#191970" points="627.0594,-447.0603 628.87,-457.4993 633.9644,-448.2097 627.0594,-447.0603"/>
</g>
<!-- Node15&#45;&gt;Node8 -->
<g id="edge19" class="edge">
<title>Node15&#45;&gt;Node8</title>
<path fill="none" stroke="#191970" d="M484.7298,-390.4601C402.3999,-375.3197 282,-337.239 282,-244 282,-244 282,-244 282,-166 282,-92.046 369.7614,-50.4381 430.4402,-30.5083"/>
<polygon fill="#191970" stroke="#191970" points="484.3659,-393.9498 494.8214,-392.2372 485.5799,-387.0559 484.3659,-393.9498"/>
</g>
<!-- Node16 -->
<g id="node10" class="node">
<title>Node16</title>
<g id="a_node10"><a xlink:href="channel_8h_source.html" target="_top" xlink:title="libs/collaborate/include\l/collaborate/channel.h">
<polygon fill="#ffffff" stroke="#000000" points="720,-151 720,-181 850,-181 850,-151 720,-151"/>
<text text-anchor="start" x="728" y="-169" font-family="Helvetica,sans-Serif" font-size="10.00" fill="#000000">libs/collaborate/include</text>
<text text-anchor="middle" x="785" y="-158" font-family="Helvetica,sans-Serif" font-size="10.00" fill="#000000">/collaborate/channel.h</text>
</a>
</g>
</g>
<!-- Node15&#45;&gt;Node16 -->
<g id="edge15" class="edge">
<title>Node15&#45;&gt;Node16</title>
<path fill="none" stroke="#191970" d="M581.8189,-377.3084C627.4759,-329.8251 732.0355,-221.0831 770.4753,-181.1057"/>
<polygon fill="#191970" stroke="#191970" points="579.1711,-375.0124 574.7629,-384.6466 584.2169,-379.8641 579.1711,-375.0124"/>
</g>
<!-- Node15&#45;&gt;Node18 -->
<g id="edge20" class="edge">
<title>Node15&#45;&gt;Node18</title>
<path fill="none" stroke="#191970" d="M573.2947,-375.8144C587.2624,-349.3673 608.8546,-305.3593 621,-265 628.9271,-238.6583 633.1639,-207.121 635.246,-186.8355"/>
<polygon fill="#191970" stroke="#191970" points="570.159,-374.2561 568.5253,-384.7243 576.3304,-377.5597 570.159,-374.2561"/>
</g>
<!-- Node19 -->
<g id="node13" class="node">
<title>Node19</title>
<g id="a_node13"><a xlink:href="scheduler_8h_source.html" target="_top" xlink:title="libs/collaborate/include\l/collaborate/scheduler.h">
<polygon fill="#ffffff" stroke="#000000" points="478.5,-229 478.5,-259 611.5,-259 611.5,-229 478.5,-229"/>
<text text-anchor="start" x="486.5" y="-247" font-family="Helvetica,sans-Serif" font-size="10.00" fill="#000000">libs/collaborate/include</text>
<text text-anchor="middle" x="545" y="-236" font-family="Helvetica,sans-Serif" font-size="10.00" fill="#000000">/collaborate/scheduler.h</text>
</a>
</g>
</g>
<!-- Node15&#45;&gt;Node19 -->
<g id="edge23" class="edge">
<title>Node15&#45;&gt;Node19</title>
<path fill="none" stroke="#191970" d="M557.5583,-374.6059C554.4059,-341.8216 549.0207,-285.8158 546.4494,-259.0742"/>
<polygon fill="#191970" stroke="#191970" points="554.0933,-375.139 558.5344,-384.758 561.0611,-374.4689 554.0933,-375.139"/>
</g>
<!-- Node20 -->
<g id="node14" class="node">
<title>Node20</title>
<g id="a_node14"><a xlink:href="scheduler__alpha_8h_source.html" target="_top" xlink:title="libs/collaborate/include\l/collaborate/scheduler\l_alpha.h">
<polygon fill="#ffffff" stroke="#000000" points="310,-145.5 310,-186.5 440,-186.5 440,-145.5 310,-145.5"/>
<text text-anchor="start" x="318" y="-174.5" font-family="Helvetica,sans-Serif" font-size="10.00" fill="#000000">libs/collaborate/include</text>
<text text-anchor="start" x="318" y="-163.5" font-family="Helvetica,sans-Serif" font-size="10.00" fill="#000000">/collaborate/scheduler</text>
<text text-anchor="middle" x="375" y="-152.5" font-family="Helvetica,sans-Serif" font-size="10.00" fill="#000000">_alpha.h</text>
</a>
</g>
</g>
<!-- Node15&#45;&gt;Node20 -->
<g id="edge29" class="edge">
<title>Node15&#45;&gt;Node20</title>
<path fill="none" stroke="#191970" d="M484.9412,-382.8202C446.4417,-372.4245 405.1257,-358.2548 393,-343 356.6746,-297.3008 364.1748,-222.6039 370.5889,-186.6349"/>
<polygon fill="#191970" stroke="#191970" points="484.0871,-386.2146 494.6491,-385.3803 485.8721,-379.446 484.0871,-386.2146"/>
</g>
<!-- Node21 -->
<g id="node15" class="node">
<title>Node21</title>
<g id="a_node15"><a xlink:href="tree_8h_source.html" target="_top" xlink:title="libs/collaborate/include\l/collaborate/tree.h">
<polygon fill="#ffffff" stroke="#000000" points="402,-307 402,-337 532,-337 532,-307 402,-307"/>
<text text-anchor="start" x="410" y="-325" font-family="Helvetica,sans-Serif" font-size="10.00" fill="#000000">libs/collaborate/include</text>
<text text-anchor="middle" x="467" y="-314" font-family="Helvetica,sans-Serif" font-size="10.00" fill="#000000">/collaborate/tree.h</text>
</a>
</g>
</g>
<!-- Node15&#45;&gt;Node21 -->
<g id="edge30" class="edge">
<title>Node15&#45;&gt;Node21</title>
<path fill="none" stroke="#191970" d="M534.323,-378.4644C518.7288,-365.3854 499.197,-349.0039 485.1936,-337.2592"/>
<polygon fill="#191970" stroke="#191970" points="532.1576,-381.2163 542.0687,-384.9608 536.6559,-375.853 532.1576,-381.2163"/>
</g>
<!-- Node16&#45;&gt;Node8 -->
<g id="edge16" class="edge">
<title>Node16&#45;&gt;Node8</title>
<path fill="none" stroke="#191970" d="M773.3459,-141.8829C761.0393,-119.0397 739.4743,-85.5518 711,-67 685.9249,-50.6629 613.3304,-35.7897 557.5121,-26.2738"/>
<polygon fill="#191970" stroke="#191970" points="770.3355,-143.6807 778.0465,-150.9465 776.5496,-140.4579 770.3355,-143.6807"/>
</g>
<!-- Node17 -->
<g id="node11" class="node">
<title>Node17</title>
<g id="a_node11"><a xlink:href="observing__system__alpha_8h_source.html" target="_top" xlink:title="libs/collaborate/include\l/collaborate/observing\l_system_alpha.h">
<polygon fill="#ffffff" stroke="#000000" points="572,-67.5 572,-108.5 702,-108.5 702,-67.5 572,-67.5"/>
<text text-anchor="start" x="580" y="-96.5" font-family="Helvetica,sans-Serif" font-size="10.00" fill="#000000">libs/collaborate/include</text>
<text text-anchor="start" x="580" y="-85.5" font-family="Helvetica,sans-Serif" font-size="10.00" fill="#000000">/collaborate/observing</text>
<text text-anchor="middle" x="637" y="-74.5" font-family="Helvetica,sans-Serif" font-size="10.00" fill="#000000">_system_alpha.h</text>
</a>
</g>
</g>
<!-- Node16&#45;&gt;Node17 -->
<g id="edge17" class="edge">
<title>Node16&#45;&gt;Node17</title>
<path fill="none" stroke="#191970" d="M747.486,-146.2291C725.6546,-134.7234 698.1724,-120.2395 676.0789,-108.5956"/>
<polygon fill="#191970" stroke="#191970" points="745.9857,-149.3947 756.4641,-150.9608 749.2494,-143.2021 745.9857,-149.3947"/>
</g>
<!-- Node17&#45;&gt;Node8 -->
<g id="edge18" class="edge">
<title>Node17&#45;&gt;Node8</title>
<path fill="none" stroke="#191970" d="M585.3844,-63.0524C563.0495,-52.2573 537.6403,-39.9762 518.2395,-30.5991"/>
<polygon fill="#191970" stroke="#191970" points="583.8906,-66.2178 594.4172,-67.4183 586.9369,-59.9154 583.8906,-66.2178"/>
</g>
<!-- Node18&#45;&gt;Node8 -->
<g id="edge21" class="edge">
<title>Node18&#45;&gt;Node8</title>
<path fill="none" stroke="#191970" d="M598.8172,-139.2624C586.865,-130.2034 573.948,-119.6652 563,-109 537.0776,-83.7473 511.4833,-49.9256 497.6118,-30.6488"/>
<polygon fill="#191970" stroke="#191970" points="596.7904,-142.1169 606.9017,-145.2812 600.9705,-136.502 596.7904,-142.1169"/>
</g>
<!-- Node18&#45;&gt;Node17 -->
<g id="edge22" class="edge">
<title>Node18&#45;&gt;Node17</title>
<path fill="none" stroke="#191970" d="M637,-135.0789C637,-126.2178 637,-116.7747 637,-108.6898"/>
<polygon fill="#191970" stroke="#191970" points="633.5001,-135.0974 637,-145.0974 640.5001,-135.0975 633.5001,-135.0974"/>
</g>
<!-- Node19&#45;&gt;Node8 -->
<g id="edge24" class="edge">
<title>Node19&#45;&gt;Node8</title>
<path fill="none" stroke="#191970" d="M538.6134,-218.8392C526.5361,-171.2585 500.6833,-69.4073 490.8786,-30.7805"/>
<polygon fill="#191970" stroke="#191970" points="535.2516,-219.8212 541.1044,-228.6527 542.0365,-218.0989 535.2516,-219.8212"/>
</g>
<!-- Node19&#45;&gt;Node17 -->
<g id="edge26" class="edge">
<title>Node19&#45;&gt;Node17</title>
<path fill="none" stroke="#191970" d="M544.6927,-218.5934C545.537,-197.4708 549.3786,-167.3598 563,-145 571.943,-130.3199 586.1672,-118.0242 599.7659,-108.6553"/>
<polygon fill="#191970" stroke="#191970" points="541.1907,-218.6627 544.4885,-228.7312 548.1893,-218.8037 541.1907,-218.6627"/>
</g>
<!-- Node19&#45;&gt;Node18 -->
<g id="edge25" class="edge">
<title>Node19&#45;&gt;Node18</title>
<path fill="none" stroke="#191970" d="M570.5298,-222.3552C583.7112,-211.1797 599.7097,-197.6157 612.7077,-186.5956"/>
<polygon fill="#191970" stroke="#191970" points="568.1027,-219.8243 562.7385,-228.9608 572.6295,-225.1636 568.1027,-219.8243"/>
</g>
<!-- Node19&#45;&gt;Node20 -->
<g id="edge27" class="edge">
<title>Node19&#45;&gt;Node20</title>
<path fill="none" stroke="#191970" d="M502.9136,-224.6898C477.6796,-213.1118 445.6055,-198.3955 419.8879,-186.5956"/>
<polygon fill="#191970" stroke="#191970" points="501.6737,-227.9717 512.2223,-228.9608 504.5929,-221.6094 501.6737,-227.9717"/>
</g>
<!-- Node20&#45;&gt;Node8 -->
<g id="edge28" class="edge">
<title>Node20&#45;&gt;Node8</title>
<path fill="none" stroke="#191970" d="M396.3106,-137.3638C419.8828,-105.6888 456.9839,-55.8342 475.5778,-30.8485"/>
<polygon fill="#191970" stroke="#191970" points="393.5006,-135.2773 390.3383,-145.3892 399.1163,-139.4564 393.5006,-135.2773"/>
</g>
<!-- Node21&#45;&gt;Node8 -->
<g id="edge31" class="edge">
<title>Node21&#45;&gt;Node8</title>
<path fill="none" stroke="#191970" d="M467.4074,-296.7436C467.8166,-276.7291 468.5947,-248.0605 470,-223 474.0475,-150.8234 482.1468,-64.7748 485.4965,-30.5823"/>
<polygon fill="#191970" stroke="#191970" points="463.9052,-296.8304 467.2163,-306.8945 470.904,-296.9622 463.9052,-296.8304"/>
</g>
<!-- Node21&#45;&gt;Node19 -->
<g id="edge32" class="edge">
<title>Node21&#45;&gt;Node19</title>
<path fill="none" stroke="#191970" d="M489.2588,-299.7412C502.2141,-286.7859 518.2116,-270.7884 529.7408,-259.2592"/>
<polygon fill="#191970" stroke="#191970" points="486.6354,-297.4148 482.0392,-306.9608 491.5852,-302.3646 486.6354,-297.4148"/>
</g>
<!-- Node21&#45;&gt;Node20 -->
<g id="edge33" class="edge">
<title>Node21&#45;&gt;Node20</title>
<path fill="none" stroke="#191970" d="M452.8762,-298.0509C434.9164,-267.5974 404.2035,-215.5191 387.2098,-186.7036"/>
<polygon fill="#191970" stroke="#191970" points="449.9165,-299.9223 458.0111,-306.758 455.946,-296.3664 449.9165,-299.9223"/>
</g>
</g>
</svg>
        <g id="navigator" transform="translate(0 0)" fill="#404254">
                <rect fill="#f2f5e9" fill-opacity="0.5" stroke="#606060" stroke-width=".5" x="0" y="0" width="60" height="60"/>
                <use id="zoomplus" xlink:href="#zoomPlus" x="17" y="9" onmousedown="handleZoom(evt,'in')"/>
                <use id="zoomminus" xlink:href="#zoomMin" x="42" y="9" onmousedown="handleZoom(evt,'out')"/>
                <use id="reset" xlink:href="#resetDef" x="30" y="36" onmousedown="handleReset()"/>
                <g id="arrowUp" xlink:href="#dirArrow" transform="translate(30 24)" onmousedown="handlePan(0,-1)">
                  <use xlink:href="#rim" fill="#404040">
                        <set attributeName="fill" to="#808080" begin="arrowUp.mouseover" end="arrowUp.mouseout"/>
                  </use>
                  <path fill="none" stroke="white" stroke-width="1.5" d="M0,-3.0v7 M-2.5,-0.5L0,-3.0L2.5,-0.5"/>
                </g>
                <g id="arrowRight" xlink:href="#dirArrow" transform="rotate(90) translate(36 -43)" onmousedown="handlePan(1,0)">
                  <use xlink:href="#rim" fill="#404040">
                        <set attributeName="fill" to="#808080" begin="arrowRight.mouseover" end="arrowRight.mouseout"/>
                  </use>
                  <path fill="none" stroke="white" stroke-width="1.5" d="M0,-3.0v7 M-2.5,-0.5L0,-3.0L2.5,-0.5"/>
                </g>
                <g id="arrowDown" xlink:href="#dirArrow" transform="rotate(180) translate(-30 -48)" onmousedown="handlePan(0,1)">
                  <use xlink:href="#rim" fill="#404040">
                        <set attributeName="fill" to="#808080" begin="arrowDown.mouseover" end="arrowDown.mouseout"/>
                  </use>
                  <path fill="none" stroke="white" stroke-width="1.5" d="M0,-3.0v7 M-2.5,-0.5L0,-3.0L2.5,-0.5"/>
                </g>
                <g id="arrowLeft" xlink:href="#dirArrow" transform="rotate(270) translate(-36 17)" onmousedown="handlePan(-1,0)">
                  <use xlink:href="#rim" fill="#404040">
                        <set attributeName="fill" to="#808080" begin="arrowLeft.mouseover" end="arrowLeft.mouseout"/>
                  </use>
                  <path fill="none" stroke="white" stroke-width="1.5" d="M0,-3.0v7 M-2.5,-0.5L0,-3.0L2.5,-0.5"/>
                </g>
        </g>
        <svg viewBox="0 0 15 15" width="100%" height="30px" preserveAspectRatio="xMaxYMin meet">
         <g id="arrow_out" transform="scale(0.3 0.3)">
          <a xlink:href="earth_8h__dep__incl_org.svg" target="_base">
           <rect id="button" ry="5" rx="5" y="6" x="6" height="38" width="38"
                fill="#f2f5e9" fill-opacity="0.5" stroke="#606060" stroke-width="1.0"/>
           <path id="arrow"
             d="M 11.500037,31.436501 C 11.940474,20.09759 22.043105,11.32322 32.158766,21.979434 L 37.068811,17.246167 C 37.068811,17.246167 37.088388,32 37.088388,32 L 22.160133,31.978069 C 22.160133,31.978069 26.997745,27.140456 26.997745,27.140456 C 18.528582,18.264221 13.291696,25.230495 11.500037,31.436501 z"
             style="fill:#404040;"/>
          </a>
         </g>
        </svg>
</svg>
