<?xml version="1.0" encoding="UTF-8" standalone="no"?>
<!DOCTYPE svg PUBLIC "-//W3C//DTD SVG 1.1//EN"
 "http://www.w3.org/Graphics/SVG/1.1/DTD/svg11.dtd">
<!-- Generated by graphviz version 2.40.1 (20161225.0304)
 -->
<!-- Title: libs/collaborate/include/collaborate/earth.h Pages: 1 -->
<svg width="286pt" height="151pt"
 viewBox="0.00 0.00 286.00 151.00" xmlns="http://www.w3.org/2000/svg" xmlns:xlink="http://www.w3.org/1999/xlink">
<g id="graph0" class="graph" transform="scale(1 1) rotate(0) translate(4 147)">
<title>libs/collaborate/include/collaborate/earth.h</title>
<polygon fill="#ffffff" stroke="transparent" points="-4,4 -4,-147 282,-147 282,4 -4,4"/>
<!-- Node0 -->
<g id="node1" class="node">
<title>Node0</title>
<polygon fill="#bfbfbf" stroke="#000000" points="25.5,-112.5 25.5,-142.5 155.5,-142.5 155.5,-112.5 25.5,-112.5"/>
<text text-anchor="start" x="33.5" y="-130.5" font-family="Helvetica,sans-Serif" font-size="10.00" fill="#000000">libs/collaborate/include</text>
<text text-anchor="middle" x="90.5" y="-119.5" font-family="Helvetica,sans-Serif" font-size="10.00" fill="#000000">/collaborate/earth.h</text>
</g>
<!-- Node1 -->
<g id="node2" class="node">
<title>Node1</title>
<polygon fill="#ffffff" stroke="#bfbfbf" points="0,-56.5 0,-75.5 47,-75.5 47,-56.5 0,-56.5"/>
<text text-anchor="middle" x="23.5" y="-63.5" font-family="Helvetica,sans-Serif" font-size="10.00" fill="#000000">cmath</text>
</g>
<!-- Node0&#45;&gt;Node1 -->
<g id="edge1" class="edge">
<title>Node0&#45;&gt;Node1</title>
<path fill="none" stroke="#191970" d="M73.9382,-112.2977C64.1535,-103.3163 51.7526,-91.9334 41.6957,-82.702"/>
<polygon fill="#191970" stroke="#191970" points="43.9613,-80.0307 34.2275,-75.8469 39.2278,-85.1876 43.9613,-80.0307"/>
</g>
<!-- Node2 -->
<g id="node3" class="node">
<title>Node2</title>
<polygon fill="#ffffff" stroke="#bfbfbf" points="65.5,-56.5 65.5,-75.5 115.5,-75.5 115.5,-56.5 65.5,-56.5"/>
<text text-anchor="middle" x="90.5" y="-63.5" font-family="Helvetica,sans-Serif" font-size="10.00" fill="#000000">cstdint</text>
</g>
<!-- Node0&#45;&gt;Node2 -->
<g id="edge2" class="edge">
<title>Node0&#45;&gt;Node2</title>
<path fill="none" stroke="#191970" d="M90.5,-112.2977C90.5,-104.3834 90.5,-94.6043 90.5,-86.0759"/>
<polygon fill="#191970" stroke="#191970" points="94.0001,-85.8469 90.5,-75.8469 87.0001,-85.847 94.0001,-85.8469"/>
</g>
<!-- Node3 -->
<g id="node4" class="node">
<title>Node3</title>
<g id="a_node4"><a xlink:href="vector_8h_source.html" target="_top" xlink:title="collaborate/vector.h">
<polygon fill="#ffffff" stroke="#000000" points="134,-56.5 134,-75.5 247,-75.5 247,-56.5 134,-56.5"/>
<text text-anchor="middle" x="190.5" y="-63.5" font-family="Helvetica,sans-Serif" font-size="10.00" fill="#000000">collaborate/vector.h</text>
</a>
</g>
</g>
<!-- Node0&#45;&gt;Node3 -->
<g id="edge3" class="edge">
<title>Node0&#45;&gt;Node3</title>
<path fill="none" stroke="#191970" d="M114.9628,-112.4554C130.6235,-102.8241 150.8532,-90.3828 166.4356,-80.7996"/>
<polygon fill="#191970" stroke="#191970" points="168.319,-83.7503 175.0035,-75.5303 164.652,-77.7876 168.319,-83.7503"/>
</g>
<!-- Node4 -->
<g id="node5" class="node">
<title>Node4</title>
<polygon fill="#ffffff" stroke="#bfbfbf" points="106.5,-.5 106.5,-19.5 150.5,-19.5 150.5,-.5 106.5,-.5"/>
<text text-anchor="middle" x="128.5" y="-7.5" font-family="Helvetica,sans-Serif" font-size="10.00" fill="#000000">limits</text>
</g>
<!-- Node3&#45;&gt;Node4 -->
<g id="edge4" class="edge">
<title>Node3&#45;&gt;Node4</title>
<path fill="none" stroke="#191970" d="M179.7004,-56.2455C170.6322,-48.0549 157.4794,-36.1749 146.7755,-26.5069"/>
<polygon fill="#191970" stroke="#191970" points="148.9429,-23.7482 139.1758,-19.6427 144.2509,-28.9429 148.9429,-23.7482"/>
</g>
<!-- Node5 -->
<g id="node6" class="node">
<title>Node5</title>
<polygon fill="#ffffff" stroke="#bfbfbf" points="168.5,-.5 168.5,-19.5 212.5,-19.5 212.5,-.5 168.5,-.5"/>
<text text-anchor="middle" x="190.5" y="-7.5" font-family="Helvetica,sans-Serif" font-size="10.00" fill="#000000">string</text>
</g>
<!-- Node3&#45;&gt;Node5 -->
<g id="edge5" class="edge">
<title>Node3&#45;&gt;Node5</title>
<path fill="none" stroke="#191970" d="M190.5,-56.2455C190.5,-48.9382 190.5,-38.6944 190.5,-29.7046"/>
<polygon fill="#191970" stroke="#191970" points="194.0001,-29.6426 190.5,-19.6427 187.0001,-29.6427 194.0001,-29.6426"/>
</g>
<!-- Node6 -->
<g id="node7" class="node">
<title>Node6</title>
<polygon fill="#ffffff" stroke="#bfbfbf" points="231,-.5 231,-19.5 278,-19.5 278,-.5 231,-.5"/>
<text text-anchor="middle" x="254.5" y="-7.5" font-family="Helvetica,sans-Serif" font-size="10.00" fill="#000000">vector</text>
</g>
<!-- Node3&#45;&gt;Node6 -->
<g id="edge6" class="edge">
<title>Node3&#45;&gt;Node6</title>
<path fill="none" stroke="#191970" d="M201.6479,-56.2455C211.0087,-48.0549 224.5858,-36.1749 235.6349,-26.5069"/>
<polygon fill="#191970" stroke="#191970" points="238.2588,-28.8618 243.4798,-19.6427 233.6492,-23.5937 238.2588,-28.8618"/>
</g>
</g>
</svg>
