<?xml version="1.0" encoding="UTF-8" standalone="no"?>
<!DOCTYPE svg PUBLIC "-//W3C//DTD SVG 1.1//EN"
 "http://www.w3.org/Graphics/SVG/1.1/DTD/svg11.dtd">
<!-- Generated by graphviz version 2.40.1 (20161225.0304)
 -->
<!-- Title: libs/collaborate/include/collaborate/earth.h Pages: 1 -->
<svg width="268pt" height="151pt"
 viewBox="0.00 0.00 268.00 151.00" xmlns="http://www.w3.org/2000/svg" xmlns:xlink="http://www.w3.org/1999/xlink">
<g id="graph0" class="graph" transform="scale(1 1) rotate(0) translate(4 147)">
<title>libs/collaborate/include/collaborate/earth.h</title>
<polygon fill="#ffffff" stroke="transparent" points="-4,4 -4,-147 264,-147 264,4 -4,4"/>
<!-- Node0 -->
<g id="node1" class="node">
<title>Node0</title>
<polygon fill="#bfbfbf" stroke="#000000" points="27,-112.5 27,-142.5 143,-142.5 143,-112.5 27,-112.5"/>
<text text-anchor="start" x="35" y="-130.5" font-family="Helvetica,sans-Serif" font-size="10.00" fill="#000000">libs/collaborate/include</text>
<text text-anchor="middle" x="85" y="-119.5" font-family="Helvetica,sans-Serif" font-size="10.00" fill="#000000">/collaborate/earth.h</text>
</g>
<!-- Node1 -->
<g id="node2" class="node">
<title>Node1</title>
<polygon fill="#ffffff" stroke="#bfbfbf" points="0,-56.5 0,-75.5 44,-75.5 44,-56.5 0,-56.5"/>
<text text-anchor="middle" x="22" y="-63.5" font-family="Helvetica,sans-Serif" font-size="10.00" fill="#000000">cmath</text>
</g>
<!-- Node0&#45;&gt;Node1 -->
<g id="edge1" class="edge">
<title>Node0&#45;&gt;Node1</title>
<path fill="none" stroke="#191970" d="M69.427,-112.2977C60.3175,-103.4052 48.7966,-92.1586 39.3909,-82.9769"/>
<polygon fill="#191970" stroke="#191970" points="41.6878,-80.3278 32.0871,-75.8469 36.798,-85.3368 41.6878,-80.3278"/>
</g>
<!-- Node2 -->
<g id="node3" class="node">
<title>Node2</title>
<polygon fill="#ffffff" stroke="#bfbfbf" points="62,-56.5 62,-75.5 108,-75.5 108,-56.5 62,-56.5"/>
<text text-anchor="middle" x="85" y="-63.5" font-family="Helvetica,sans-Serif" font-size="10.00" fill="#000000">cstdint</text>
</g>
<!-- Node0&#45;&gt;Node2 -->
<g id="edge2" class="edge">
<title>Node0&#45;&gt;Node2</title>
<path fill="none" stroke="#191970" d="M85,-112.2977C85,-104.3834 85,-94.6043 85,-86.0759"/>
<polygon fill="#191970" stroke="#191970" points="88.5001,-85.8469 85,-75.8469 81.5001,-85.847 88.5001,-85.8469"/>
</g>
<!-- Node3 -->
<g id="node4" class="node">
<title>Node3</title>
<g id="a_node4"><a xlink:href="vector_8h_source.html" target="_top" xlink:title="collaborate/vector.h">
<polygon fill="#ffffff" stroke="#000000" points="126,-56.5 126,-75.5 228,-75.5 228,-56.5 126,-56.5"/>
<text text-anchor="middle" x="177" y="-63.5" font-family="Helvetica,sans-Serif" font-size="10.00" fill="#000000">collaborate/vector.h</text>
</a>
</g>
</g>
<!-- Node0&#45;&gt;Node3 -->
<g id="edge3" class="edge">
<title>Node0&#45;&gt;Node3</title>
<path fill="none" stroke="#191970" d="M107.7416,-112.2977C121.7967,-102.9022 139.783,-90.8787 153.9036,-81.4395"/>
<polygon fill="#191970" stroke="#191970" points="156.1759,-84.1305 162.5444,-75.6633 152.2857,-78.311 156.1759,-84.1305"/>
</g>
<!-- Node4 -->
<g id="node5" class="node">
<title>Node4</title>
<polygon fill="#ffffff" stroke="#bfbfbf" points="98,-.5 98,-19.5 138,-19.5 138,-.5 98,-.5"/>
<text text-anchor="middle" x="118" y="-7.5" font-family="Helvetica,sans-Serif" font-size="10.00" fill="#000000">limits</text>
</g>
<!-- Node3&#45;&gt;Node4 -->
<g id="edge4" class="edge">
<title>Node3&#45;&gt;Node4</title>
<path fill="none" stroke="#191970" d="M166.723,-56.2455C158.1782,-48.1352 145.8222,-36.4075 135.6915,-26.7919"/>
<polygon fill="#191970" stroke="#191970" points="137.8218,-23.9884 128.1592,-19.6427 133.0028,-29.0655 137.8218,-23.9884"/>
</g>
<!-- Node5 -->
<g id="node6" class="node">
<title>Node5</title>
<polygon fill="#ffffff" stroke="#bfbfbf" points="156.5,-.5 156.5,-19.5 197.5,-19.5 197.5,-.5 156.5,-.5"/>
<text text-anchor="middle" x="177" y="-7.5" font-family="Helvetica,sans-Serif" font-size="10.00" fill="#000000">string</text>
</g>
<!-- Node3&#45;&gt;Node5 -->
<g id="edge5" class="edge">
<title>Node3&#45;&gt;Node5</title>
<path fill="none" stroke="#191970" d="M177,-56.2455C177,-48.9382 177,-38.6944 177,-29.7046"/>
<polygon fill="#191970" stroke="#191970" points="180.5001,-29.6426 177,-19.6427 173.5001,-29.6427 180.5001,-29.6426"/>
</g>
<!-- Node6 -->
<g id="node7" class="node">
<title>Node6</title>
<polygon fill="#ffffff" stroke="#bfbfbf" points="216,-.5 216,-19.5 260,-19.5 260,-.5 216,-.5"/>
<text text-anchor="middle" x="238" y="-7.5" font-family="Helvetica,sans-Serif" font-size="10.00" fill="#000000">vector</text>
</g>
<!-- Node3&#45;&gt;Node6 -->
<g id="edge6" class="edge">
<title>Node3&#45;&gt;Node6</title>
<path fill="none" stroke="#191970" d="M187.6254,-56.2455C196.5473,-48.0549 209.488,-36.1749 220.0192,-26.5069"/>
<polygon fill="#191970" stroke="#191970" points="222.4968,-28.9837 227.4964,-19.6427 217.7629,-23.8271 222.4968,-28.9837"/>
</g>
</g>
</svg>
