<?xml version="1.0" encoding="UTF-8" standalone="no"?>
<!DOCTYPE svg PUBLIC "-//W3C//DTD SVG 1.1//EN"
 "http://www.w3.org/Graphics/SVG/1.1/DTD/svg11.dtd">
<!-- Generated by graphviz version 2.40.1 (20161225.0304)
 -->
<!-- Title: Graphical Class Hierarchy Pages: 1 -->
<svg width="256pt" height="137pt"
 viewBox="0.00 0.00 256.00 137.00" xmlns="http://www.w3.org/2000/svg" xmlns:xlink="http://www.w3.org/1999/xlink">
<g id="graph0" class="graph" transform="scale(1 1) rotate(0) translate(4 133)">
<title>Graphical Class Hierarchy</title>
<polygon fill="#ffffff" stroke="transparent" points="-4,4 -4,-133 252,-133 252,4 -4,4"/>
<!-- Node0 -->
<g id="node1" class="node">
<title>Node0</title>
<g id="a_node1"><a xlink:href="classosse_1_1collaborate_1_1_packet.html" target="_top" xlink:title="An abstract container for information. ">
<polygon fill="#ffffff" stroke="#000000" points="0,-49.5 0,-79.5 106,-79.5 106,-49.5 0,-49.5"/>
<text text-anchor="start" x="8" y="-67.5" font-family="Helvetica,sans-Serif" font-size="10.00" fill="#000000">osse::collaborate::</text>
<text text-anchor="middle" x="53" y="-56.5" font-family="Helvetica,sans-Serif" font-size="10.00" fill="#000000">Packet</text>
</a>
</g>
</g>
<!-- Node1 -->
<g id="node2" class="node">
<title>Node1</title>
<g id="a_node2"><a xlink:href="classosse_1_1collaborate_1_1_packet_forward.html" target="_top" xlink:title="A packet of control data. ">
<polygon fill="#ffffff" stroke="#000000" points="142,-98.5 142,-128.5 248,-128.5 248,-98.5 142,-98.5"/>
<text text-anchor="start" x="150" y="-116.5" font-family="Helvetica,sans-Serif" font-size="10.00" fill="#000000">osse::collaborate::</text>
<text text-anchor="middle" x="195" y="-105.5" font-family="Helvetica,sans-Serif" font-size="10.00" fill="#000000">PacketForward</text>
</a>
</g>
</g>
<!-- Node0&#45;&gt;Node1 -->
<g id="edge1" class="edge">
<title>Node0&#45;&gt;Node1</title>
<path fill="none" stroke="#191970" d="M106.2924,-82.8896C121.0776,-87.9916 136.957,-93.4711 151.1367,-98.3641"/>
<polygon fill="#191970" stroke="#191970" points="107.3581,-79.5549 96.7634,-79.6014 105.0747,-86.172 107.3581,-79.5549"/>
</g>
<!-- Node2 -->
<g id="node3" class="node">
<title>Node2</title>
<g id="a_node3"><a xlink:href="classosse_1_1collaborate_1_1_packet_raw.html" target="_top" xlink:title="A packet of raw measurement data. ">
<polygon fill="#ffffff" stroke="#000000" points="142,-49.5 142,-79.5 248,-79.5 248,-49.5 142,-49.5"/>
<text text-anchor="start" x="150" y="-67.5" font-family="Helvetica,sans-Serif" font-size="10.00" fill="#000000">osse::collaborate::</text>
<text text-anchor="middle" x="195" y="-56.5" font-family="Helvetica,sans-Serif" font-size="10.00" fill="#000000">PacketRaw</text>
</a>
</g>
</g>
<!-- Node0&#45;&gt;Node2 -->
<g id="edge2" class="edge">
<title>Node0&#45;&gt;Node2</title>
<path fill="none" stroke="#191970" d="M116.5173,-64.5C124.9959,-64.5 133.6185,-64.5 141.8941,-64.5"/>
<polygon fill="#191970" stroke="#191970" points="116.2796,-61.0001 106.2796,-64.5 116.2795,-68.0001 116.2796,-61.0001"/>
</g>
<!-- Node3 -->
<g id="node4" class="node">
<title>Node3</title>
<g id="a_node4"><a xlink:href="classosse_1_1collaborate_1_1_packet_return.html" target="_top" xlink:title="A packet of return data. ">
<polygon fill="#ffffff" stroke="#000000" points="142,-.5 142,-30.5 248,-30.5 248,-.5 142,-.5"/>
<text text-anchor="start" x="150" y="-18.5" font-family="Helvetica,sans-Serif" font-size="10.00" fill="#000000">osse::collaborate::</text>
<text text-anchor="middle" x="195" y="-7.5" font-family="Helvetica,sans-Serif" font-size="10.00" fill="#000000">PacketReturn</text>
</a>
</g>
</g>
<!-- Node0&#45;&gt;Node3 -->
<g id="edge3" class="edge">
<title>Node0&#45;&gt;Node3</title>
<path fill="none" stroke="#191970" d="M106.2924,-46.1104C121.0776,-41.0084 136.957,-35.5289 151.1367,-30.6359"/>
<polygon fill="#191970" stroke="#191970" points="105.0747,-42.828 96.7634,-49.3986 107.3581,-49.4451 105.0747,-42.828"/>
</g>
</g>
</svg>
