<?xml version="1.0" encoding="UTF-8" standalone="no"?>
<!DOCTYPE svg PUBLIC "-//W3C//DTD SVG 1.1//EN"
 "http://www.w3.org/Graphics/SVG/1.1/DTD/svg11.dtd">
<!-- Generated by graphviz version 2.40.1 (20161225.0304)
 -->
<!-- Title: Graphical Class Hierarchy Pages: 1 -->
<svg width="249pt" height="137pt"
 viewBox="0.00 0.00 249.00 137.00" xmlns="http://www.w3.org/2000/svg" xmlns:xlink="http://www.w3.org/1999/xlink">
<g id="graph0" class="graph" transform="scale(1 1) rotate(0) translate(4 133)">
<title>Graphical Class Hierarchy</title>
<polygon fill="#ffffff" stroke="transparent" points="-4,4 -4,-133 245,-133 245,4 -4,4"/>
<!-- Node0 -->
<g id="node1" class="node">
<title>Node0</title>
<g id="a_node1"><a xlink:href="classosse_1_1collaborate_1_1_sensor.html" target="_top" xlink:title="Measures scientific data. ">
<polygon fill="#ffffff" stroke="#000000" points="0,-49.5 0,-79.5 97,-79.5 97,-49.5 0,-49.5"/>
<text text-anchor="start" x="8" y="-67.5" font-family="Helvetica,sans-Serif" font-size="10.00" fill="#000000">osse::collaborate::</text>
<text text-anchor="middle" x="48.5" y="-56.5" font-family="Helvetica,sans-Serif" font-size="10.00" fill="#000000">Sensor</text>
</a>
</g>
</g>
<!-- Node1 -->
<g id="node2" class="node">
<title>Node1</title>
<g id="a_node2"><a xlink:href="classosse_1_1collaborate_1_1_sensor_cloud_radar.html" target="_top" xlink:title="Measures total cloud optical depth. ">
<polygon fill="#ffffff" stroke="#000000" points="137.5,-98.5 137.5,-128.5 236.5,-128.5 236.5,-98.5 137.5,-98.5"/>
<text text-anchor="start" x="145.5" y="-116.5" font-family="Helvetica,sans-Serif" font-size="10.00" fill="#000000">osse::collaborate::</text>
<text text-anchor="middle" x="187" y="-105.5" font-family="Helvetica,sans-Serif" font-size="10.00" fill="#000000">SensorCloudRadar</text>
</a>
</g>
</g>
<!-- Node0&#45;&gt;Node1 -->
<g id="edge1" class="edge">
<title>Node0&#45;&gt;Node1</title>
<path fill="none" stroke="#191970" d="M100.8912,-83.0355C115.1945,-88.0959 130.5194,-93.5177 144.2178,-98.3641"/>
<polygon fill="#191970" stroke="#191970" points="101.7795,-79.6372 91.1847,-79.6014 99.4447,-86.2364 101.7795,-79.6372"/>
</g>
<!-- Node2 -->
<g id="node3" class="node">
<title>Node2</title>
<g id="a_node3"><a xlink:href="classosse_1_1collaborate_1_1_sensor_optical_imager.html" target="_top" xlink:title="Obtains optical images of Earth&#39;s surface. ">
<polygon fill="#ffffff" stroke="#000000" points="133,-49.5 133,-79.5 241,-79.5 241,-49.5 133,-49.5"/>
<text text-anchor="start" x="141" y="-67.5" font-family="Helvetica,sans-Serif" font-size="10.00" fill="#000000">osse::collaborate::</text>
<text text-anchor="middle" x="187" y="-56.5" font-family="Helvetica,sans-Serif" font-size="10.00" fill="#000000">SensorOpticalImager</text>
</a>
</g>
</g>
<!-- Node0&#45;&gt;Node2 -->
<g id="edge2" class="edge">
<title>Node0&#45;&gt;Node2</title>
<path fill="none" stroke="#191970" d="M107.4984,-64.5C115.9479,-64.5 124.6057,-64.5 132.9534,-64.5"/>
<polygon fill="#191970" stroke="#191970" points="107.33,-61.0001 97.3299,-64.5 107.3299,-68.0001 107.33,-61.0001"/>
</g>
<!-- Node3 -->
<g id="node4" class="node">
<title>Node3</title>
<g id="a_node4"><a xlink:href="classosse_1_1collaborate_1_1_sensor_rain_radar.html" target="_top" xlink:title="Measures total precipitation. ">
<polygon fill="#ffffff" stroke="#000000" points="138.5,-.5 138.5,-30.5 235.5,-30.5 235.5,-.5 138.5,-.5"/>
<text text-anchor="start" x="146.5" y="-18.5" font-family="Helvetica,sans-Serif" font-size="10.00" fill="#000000">osse::collaborate::</text>
<text text-anchor="middle" x="187" y="-7.5" font-family="Helvetica,sans-Serif" font-size="10.00" fill="#000000">SensorRainRadar</text>
</a>
</g>
</g>
<!-- Node0&#45;&gt;Node3 -->
<g id="edge3" class="edge">
<title>Node0&#45;&gt;Node3</title>
<path fill="none" stroke="#191970" d="M100.8912,-45.9645C115.1945,-40.9041 130.5194,-35.4823 144.2178,-30.6359"/>
<polygon fill="#191970" stroke="#191970" points="99.4447,-42.7636 91.1847,-49.3986 101.7795,-49.3628 99.4447,-42.7636"/>
</g>
</g>
</svg>
