<?xml version="1.0" encoding="UTF-8" standalone="no"?>
<!DOCTYPE svg PUBLIC "-//W3C//DTD SVG 1.1//EN"
 "http://www.w3.org/Graphics/SVG/1.1/DTD/svg11.dtd">
<!-- Generated by graphviz version 2.40.1 (20161225.0304)
 -->
<!-- Title: Graphical Class Hierarchy Pages: 1 -->
<svg width="282pt" height="137pt"
 viewBox="0.00 0.00 282.00 137.00" xmlns="http://www.w3.org/2000/svg" xmlns:xlink="http://www.w3.org/1999/xlink">
<g id="graph0" class="graph" transform="scale(1 1) rotate(0) translate(4 133)">
<title>Graphical Class Hierarchy</title>
<polygon fill="#ffffff" stroke="transparent" points="-4,4 -4,-133 278,-133 278,4 -4,4"/>
<!-- Node0 -->
<g id="node1" class="node">
<title>Node0</title>
<g id="a_node1"><a xlink:href="classosse_1_1collaborate_1_1_data_processor.html" target="_top" xlink:title="A satellite&#39;s internal data processor. ">
<polygon fill="#ffffff" stroke="#000000" points="0,-49.5 0,-79.5 106,-79.5 106,-49.5 0,-49.5"/>
<text text-anchor="start" x="8" y="-67.5" font-family="Helvetica,sans-Serif" font-size="10.00" fill="#000000">osse::collaborate::</text>
<text text-anchor="middle" x="53" y="-56.5" font-family="Helvetica,sans-Serif" font-size="10.00" fill="#000000">DataProcessor</text>
</a>
</g>
</g>
<!-- Node1 -->
<g id="node2" class="node">
<title>Node1</title>
<g id="a_node2"><a xlink:href="classosse_1_1collaborate_1_1_data_processor_sink.html" target="_top" xlink:title="A sink satellite&#39;s internal data processor. ">
<polygon fill="#ffffff" stroke="#000000" points="154,-98.5 154,-128.5 262,-128.5 262,-98.5 154,-98.5"/>
<text text-anchor="start" x="162" y="-116.5" font-family="Helvetica,sans-Serif" font-size="10.00" fill="#000000">osse::collaborate::</text>
<text text-anchor="middle" x="208" y="-105.5" font-family="Helvetica,sans-Serif" font-size="10.00" fill="#000000">DataProcessorSink</text>
</a>
</g>
</g>
<!-- Node0&#45;&gt;Node1 -->
<g id="edge1" class="edge">
<title>Node0&#45;&gt;Node1</title>
<path fill="none" stroke="#191970" d="M110.7583,-82.7591C127.1067,-87.9273 144.7107,-93.4924 160.3879,-98.4484"/>
<polygon fill="#191970" stroke="#191970" points="111.3598,-79.2785 100.7699,-79.6014 109.2497,-85.953 111.3598,-79.2785"/>
</g>
<!-- Node2 -->
<g id="node3" class="node">
<title>Node2</title>
<g id="a_node3"><a xlink:href="classosse_1_1collaborate_1_1_data_processor_source.html" target="_top" xlink:title="A source/informer satellite&#39;s internal data processor. ">
<polygon fill="#ffffff" stroke="#000000" points="148,-49.5 148,-79.5 268,-79.5 268,-49.5 148,-49.5"/>
<text text-anchor="start" x="156" y="-67.5" font-family="Helvetica,sans-Serif" font-size="10.00" fill="#000000">osse::collaborate::</text>
<text text-anchor="middle" x="208" y="-56.5" font-family="Helvetica,sans-Serif" font-size="10.00" fill="#000000">DataProcessorSource</text>
</a>
</g>
</g>
<!-- Node0&#45;&gt;Node2 -->
<g id="edge2" class="edge">
<title>Node0&#45;&gt;Node2</title>
<path fill="none" stroke="#191970" d="M116.5629,-64.5C126.9269,-64.5 137.6347,-64.5 147.9118,-64.5"/>
<polygon fill="#191970" stroke="#191970" points="116.3422,-61.0001 106.3422,-64.5 116.3422,-68.0001 116.3422,-61.0001"/>
</g>
<!-- Node3 -->
<g id="node4" class="node">
<title>Node3</title>
<g id="a_node4"><a xlink:href="classosse_1_1collaborate_1_1_data_processor_template.html" target="_top" xlink:title="A template satellite&#39;s internal data processor. ">
<polygon fill="#ffffff" stroke="#000000" points="142,-.5 142,-30.5 274,-30.5 274,-.5 142,-.5"/>
<text text-anchor="start" x="150" y="-18.5" font-family="Helvetica,sans-Serif" font-size="10.00" fill="#000000">osse::collaborate::</text>
<text text-anchor="middle" x="208" y="-7.5" font-family="Helvetica,sans-Serif" font-size="10.00" fill="#000000">DataProcessorTemplate</text>
</a>
</g>
</g>
<!-- Node0&#45;&gt;Node3 -->
<g id="edge3" class="edge">
<title>Node0&#45;&gt;Node3</title>
<path fill="none" stroke="#191970" d="M110.7583,-46.2409C127.1067,-41.0727 144.7107,-35.5076 160.3879,-30.5516"/>
<polygon fill="#191970" stroke="#191970" points="109.2497,-43.047 100.7699,-49.3986 111.3598,-49.7215 109.2497,-43.047"/>
</g>
</g>
</svg>
