<?xml version="1.0" encoding="UTF-8" standalone="no"?>
<!DOCTYPE svg PUBLIC "-//W3C//DTD SVG 1.1//EN"
 "http://www.w3.org/Graphics/SVG/1.1/DTD/svg11.dtd">
<!-- Generated by graphviz version 2.40.1 (20161225.0304)
 -->
<!-- Title: Graphical Class Hierarchy Pages: 1 -->
<svg width="256pt" height="186pt"
 viewBox="0.00 0.00 256.00 186.00" xmlns="http://www.w3.org/2000/svg" xmlns:xlink="http://www.w3.org/1999/xlink">
<g id="graph0" class="graph" transform="scale(1 1) rotate(0) translate(4 182)">
<title>Graphical Class Hierarchy</title>
<polygon fill="#ffffff" stroke="transparent" points="-4,4 -4,-182 252,-182 252,4 -4,4"/>
<!-- Node0 -->
<g id="node1" class="node">
<title>Node0</title>
<g id="a_node1"><a xlink:href="classosse_1_1collaborate_1_1_antenna.html" target="_top" xlink:title="Abstract antenna. ">
<polygon fill="#ffffff" stroke="#000000" points="0,-73.5 0,-103.5 106,-103.5 106,-73.5 0,-73.5"/>
<text text-anchor="start" x="8" y="-91.5" font-family="Helvetica,sans-Serif" font-size="10.00" fill="#000000">osse::collaborate::</text>
<text text-anchor="middle" x="53" y="-80.5" font-family="Helvetica,sans-Serif" font-size="10.00" fill="#000000">Antenna</text>
</a>
</g>
</g>
<!-- Node1 -->
<g id="node2" class="node">
<title>Node1</title>
<g id="a_node2"><a xlink:href="classosse_1_1collaborate_1_1_antenna_dipole.html" target="_top" xlink:title="An approximation of a dipole antenna. ">
<polygon fill="#ffffff" stroke="#000000" points="142,-147.5 142,-177.5 248,-177.5 248,-147.5 142,-147.5"/>
<text text-anchor="start" x="150" y="-165.5" font-family="Helvetica,sans-Serif" font-size="10.00" fill="#000000">osse::collaborate::</text>
<text text-anchor="middle" x="195" y="-154.5" font-family="Helvetica,sans-Serif" font-size="10.00" fill="#000000">AntennaDipole</text>
</a>
</g>
</g>
<!-- Node0&#45;&gt;Node1 -->
<g id="edge1" class="edge">
<title>Node0&#45;&gt;Node1</title>
<path fill="none" stroke="#191970" d="M87.0967,-108.5695C103.5129,-117.9958 123.5879,-129.1813 142,-138.5 147.9481,-141.5104 154.352,-144.5638 160.5813,-147.438"/>
<polygon fill="#191970" stroke="#191970" points="88.7964,-105.5094 78.3868,-103.5367 85.2942,-111.5703 88.7964,-105.5094"/>
</g>
<!-- Node2 -->
<g id="node3" class="node">
<title>Node2</title>
<g id="a_node3"><a xlink:href="classosse_1_1collaborate_1_1_antenna_helical.html" target="_top" xlink:title="An approximation of a helical antenna (more directional than patch) ">
<polygon fill="#ffffff" stroke="#000000" points="142,-98.5 142,-128.5 248,-128.5 248,-98.5 142,-98.5"/>
<text text-anchor="start" x="150" y="-116.5" font-family="Helvetica,sans-Serif" font-size="10.00" fill="#000000">osse::collaborate::</text>
<text text-anchor="middle" x="195" y="-105.5" font-family="Helvetica,sans-Serif" font-size="10.00" fill="#000000">AntennaHelical</text>
</a>
</g>
</g>
<!-- Node0&#45;&gt;Node2 -->
<g id="edge2" class="edge">
<title>Node0&#45;&gt;Node2</title>
<path fill="none" stroke="#191970" d="M116.2378,-99.6334C124.8064,-101.142 133.5275,-102.6774 141.8941,-104.1504"/>
<polygon fill="#191970" stroke="#191970" points="116.735,-96.1672 106.2796,-97.8802 115.5212,-103.0612 116.735,-96.1672"/>
</g>
<!-- Node3 -->
<g id="node4" class="node">
<title>Node3</title>
<g id="a_node4"><a xlink:href="classosse_1_1collaborate_1_1_antenna_isotropic.html" target="_top" xlink:title="An isotropic antenna. ">
<polygon fill="#ffffff" stroke="#000000" points="142,-49.5 142,-79.5 248,-79.5 248,-49.5 142,-49.5"/>
<text text-anchor="start" x="150" y="-67.5" font-family="Helvetica,sans-Serif" font-size="10.00" fill="#000000">osse::collaborate::</text>
<text text-anchor="middle" x="195" y="-56.5" font-family="Helvetica,sans-Serif" font-size="10.00" fill="#000000">AntennaIsotropic</text>
</a>
</g>
</g>
<!-- Node0&#45;&gt;Node3 -->
<g id="edge3" class="edge">
<title>Node0&#45;&gt;Node3</title>
<path fill="none" stroke="#191970" d="M116.2378,-77.8119C124.8064,-76.3637 133.5275,-74.8897 141.8941,-73.4756"/>
<polygon fill="#191970" stroke="#191970" points="115.5564,-74.3774 106.2796,-79.495 116.723,-81.2795 115.5564,-74.3774"/>
</g>
<!-- Node4 -->
<g id="node5" class="node">
<title>Node4</title>
<g id="a_node5"><a xlink:href="classosse_1_1collaborate_1_1_antenna_patch.html" target="_top" xlink:title="An approximation of a patch antenna. ">
<polygon fill="#ffffff" stroke="#000000" points="142,-.5 142,-30.5 248,-30.5 248,-.5 142,-.5"/>
<text text-anchor="start" x="150" y="-18.5" font-family="Helvetica,sans-Serif" font-size="10.00" fill="#000000">osse::collaborate::</text>
<text text-anchor="middle" x="195" y="-7.5" font-family="Helvetica,sans-Serif" font-size="10.00" fill="#000000">AntennaPatch</text>
</a>
</g>
</g>
<!-- Node0&#45;&gt;Node4 -->
<g id="edge4" class="edge">
<title>Node0&#45;&gt;Node4</title>
<path fill="none" stroke="#191970" d="M89.1342,-68.441C105.2151,-59.6623 124.447,-49.3652 142,-40.5 148.5385,-37.1977 155.5914,-33.7755 162.3523,-30.5619"/>
<polygon fill="#191970" stroke="#191970" points="87.1529,-65.5356 80.0667,-73.4119 90.518,-71.6738 87.1529,-65.5356"/>
</g>
</g>
</svg>
