<?xml version="1.0" encoding="UTF-8" standalone="no"?>
<!DOCTYPE svg PUBLIC "-//W3C//DTD SVG 1.1//EN"
 "http://www.w3.org/Graphics/SVG/1.1/DTD/svg11.dtd">
<!-- Generated by graphviz version 2.40.1 (20161225.0304)
 -->
<!-- Title: Graphical Class Hierarchy Pages: 1 -->
<svg width="269pt" height="137pt"
 viewBox="0.00 0.00 269.00 137.00" xmlns="http://www.w3.org/2000/svg" xmlns:xlink="http://www.w3.org/1999/xlink">
<g id="graph0" class="graph" transform="scale(1 1) rotate(0) translate(4 133)">
<title>Graphical Class Hierarchy</title>
<polygon fill="#ffffff" stroke="transparent" points="-4,4 -4,-133 265,-133 265,4 -4,4"/>
<!-- Node0 -->
<g id="node1" class="node">
<title>Node0</title>
<g id="a_node1"><a xlink:href="classosse_1_1collaborate_1_1_sensor.html" target="_top" xlink:title="Measures scientific data. ">
<polygon fill="#ffffff" stroke="#000000" points="0,-49.5 0,-79.5 106,-79.5 106,-49.5 0,-49.5"/>
<text text-anchor="start" x="8" y="-67.5" font-family="Helvetica,sans-Serif" font-size="10.00" fill="#000000">osse::collaborate::</text>
<text text-anchor="middle" x="53" y="-56.5" font-family="Helvetica,sans-Serif" font-size="10.00" fill="#000000">Sensor</text>
</a>
</g>
</g>
<!-- Node1 -->
<g id="node2" class="node">
<title>Node1</title>
<g id="a_node2"><a xlink:href="classosse_1_1collaborate_1_1_sensor_cloud_radar.html" target="_top" xlink:title="Measures total cloud optical depth. ">
<polygon fill="#ffffff" stroke="#000000" points="148.5,-98.5 148.5,-128.5 254.5,-128.5 254.5,-98.5 148.5,-98.5"/>
<text text-anchor="start" x="156.5" y="-116.5" font-family="Helvetica,sans-Serif" font-size="10.00" fill="#000000">osse::collaborate::</text>
<text text-anchor="middle" x="201.5" y="-105.5" font-family="Helvetica,sans-Serif" font-size="10.00" fill="#000000">SensorCloudRadar</text>
</a>
</g>
</g>
<!-- Node0&#45;&gt;Node1 -->
<g id="edge1" class="edge">
<title>Node0&#45;&gt;Node1</title>
<path fill="none" stroke="#191970" d="M108.3362,-82.7591C123.999,-87.9273 140.8648,-93.4924 155.8845,-98.4484"/>
<polygon fill="#191970" stroke="#191970" points="109.3597,-79.4113 98.7666,-79.6014 107.1663,-86.0587 109.3597,-79.4113"/>
</g>
<!-- Node2 -->
<g id="node3" class="node">
<title>Node2</title>
<g id="a_node3"><a xlink:href="classosse_1_1collaborate_1_1_sensor_optical_imager.html" target="_top" xlink:title="Obtains optical images of Earth&#39;s surface. ">
<polygon fill="#ffffff" stroke="#000000" points="142,-49.5 142,-79.5 261,-79.5 261,-49.5 142,-49.5"/>
<text text-anchor="start" x="150" y="-67.5" font-family="Helvetica,sans-Serif" font-size="10.00" fill="#000000">osse::collaborate::</text>
<text text-anchor="middle" x="201.5" y="-56.5" font-family="Helvetica,sans-Serif" font-size="10.00" fill="#000000">SensorOpticalImager</text>
</a>
</g>
</g>
<!-- Node0&#45;&gt;Node2 -->
<g id="edge2" class="edge">
<title>Node0&#45;&gt;Node2</title>
<path fill="none" stroke="#191970" d="M116.3802,-64.5C124.8353,-64.5 133.4826,-64.5 141.8707,-64.5"/>
<polygon fill="#191970" stroke="#191970" points="116.1925,-61.0001 106.1925,-64.5 116.1924,-68.0001 116.1925,-61.0001"/>
</g>
<!-- Node3 -->
<g id="node4" class="node">
<title>Node3</title>
<g id="a_node4"><a xlink:href="classosse_1_1collaborate_1_1_sensor_rain_radar.html" target="_top" xlink:title="Measures total precipitation. ">
<polygon fill="#ffffff" stroke="#000000" points="148.5,-.5 148.5,-30.5 254.5,-30.5 254.5,-.5 148.5,-.5"/>
<text text-anchor="start" x="156.5" y="-18.5" font-family="Helvetica,sans-Serif" font-size="10.00" fill="#000000">osse::collaborate::</text>
<text text-anchor="middle" x="201.5" y="-7.5" font-family="Helvetica,sans-Serif" font-size="10.00" fill="#000000">SensorRainRadar</text>
</a>
</g>
</g>
<!-- Node0&#45;&gt;Node3 -->
<g id="edge3" class="edge">
<title>Node0&#45;&gt;Node3</title>
<path fill="none" stroke="#191970" d="M108.3362,-46.2409C123.999,-41.0727 140.8648,-35.5076 155.8845,-30.5516"/>
<polygon fill="#191970" stroke="#191970" points="107.1663,-42.9413 98.7666,-49.3986 109.3597,-49.5887 107.1663,-42.9413"/>
</g>
</g>
</svg>
