<?xml version="1.0" encoding="UTF-8" standalone="no"?>
<!DOCTYPE svg PUBLIC "-//W3C//DTD SVG 1.1//EN"
 "http://www.w3.org/Graphics/SVG/1.1/DTD/svg11.dtd">
<!-- Generated by graphviz version 2.40.1 (20161225.0304)
 -->
<!-- Title: Graphical Class Hierarchy Pages: 1 -->
<svg width="238pt" height="186pt"
 viewBox="0.00 0.00 238.00 186.00" xmlns="http://www.w3.org/2000/svg" xmlns:xlink="http://www.w3.org/1999/xlink">
<g id="graph0" class="graph" transform="scale(1 1) rotate(0) translate(4 182)">
<title>Graphical Class Hierarchy</title>
<polygon fill="#ffffff" stroke="transparent" points="-4,4 -4,-182 234,-182 234,4 -4,4"/>
<!-- Node0 -->
<g id="node1" class="node">
<title>Node0</title>
<g id="a_node1"><a xlink:href="classosse_1_1collaborate_1_1_antenna.html" target="_top" xlink:title="Abstract antenna. ">
<polygon fill="#ffffff" stroke="#000000" points="0,-73.5 0,-103.5 97,-103.5 97,-73.5 0,-73.5"/>
<text text-anchor="start" x="8" y="-91.5" font-family="Helvetica,sans-Serif" font-size="10.00" fill="#000000">osse::collaborate::</text>
<text text-anchor="middle" x="48.5" y="-80.5" font-family="Helvetica,sans-Serif" font-size="10.00" fill="#000000">Antenna</text>
</a>
</g>
</g>
<!-- Node1 -->
<g id="node2" class="node">
<title>Node1</title>
<g id="a_node2"><a xlink:href="classosse_1_1collaborate_1_1_antenna_dipole.html" target="_top" xlink:title="An approximation of a dipole antenna. ">
<polygon fill="#ffffff" stroke="#000000" points="133,-147.5 133,-177.5 230,-177.5 230,-147.5 133,-147.5"/>
<text text-anchor="start" x="141" y="-165.5" font-family="Helvetica,sans-Serif" font-size="10.00" fill="#000000">osse::collaborate::</text>
<text text-anchor="middle" x="181.5" y="-154.5" font-family="Helvetica,sans-Serif" font-size="10.00" fill="#000000">AntennaDipole</text>
</a>
</g>
</g>
<!-- Node0&#45;&gt;Node1 -->
<g id="edge1" class="edge">
<title>Node0&#45;&gt;Node1</title>
<path fill="none" stroke="#191970" d="M81.6745,-108.9069C97.1217,-118.2076 115.8393,-129.1938 133,-138.5 138.5332,-141.5006 144.4922,-144.5745 150.2751,-147.4778"/>
<polygon fill="#191970" stroke="#191970" points="83.3608,-105.8364 72.9938,-103.651 79.7353,-111.8244 83.3608,-105.8364"/>
</g>
<!-- Node2 -->
<g id="node3" class="node">
<title>Node2</title>
<g id="a_node3"><a xlink:href="classosse_1_1collaborate_1_1_antenna_helical.html" target="_top" xlink:title="An approximation of a helical antenna (more directional than patch) ">
<polygon fill="#ffffff" stroke="#000000" points="133,-98.5 133,-128.5 230,-128.5 230,-98.5 133,-98.5"/>
<text text-anchor="start" x="141" y="-116.5" font-family="Helvetica,sans-Serif" font-size="10.00" fill="#000000">osse::collaborate::</text>
<text text-anchor="middle" x="181.5" y="-105.5" font-family="Helvetica,sans-Serif" font-size="10.00" fill="#000000">AntennaHelical</text>
</a>
</g>
</g>
<!-- Node0&#45;&gt;Node2 -->
<g id="edge2" class="edge">
<title>Node0&#45;&gt;Node2</title>
<path fill="none" stroke="#191970" d="M107.1762,-99.5294C115.7131,-101.134 124.4244,-102.7715 132.7368,-104.334"/>
<polygon fill="#191970" stroke="#191970" points="107.7436,-96.0748 97.2691,-97.6671 106.4504,-102.9543 107.7436,-96.0748"/>
</g>
<!-- Node3 -->
<g id="node4" class="node">
<title>Node3</title>
<g id="a_node4"><a xlink:href="classosse_1_1collaborate_1_1_antenna_isotropic.html" target="_top" xlink:title="An isotropic antenna. ">
<polygon fill="#ffffff" stroke="#000000" points="133,-49.5 133,-79.5 230,-79.5 230,-49.5 133,-49.5"/>
<text text-anchor="start" x="141" y="-67.5" font-family="Helvetica,sans-Serif" font-size="10.00" fill="#000000">osse::collaborate::</text>
<text text-anchor="middle" x="181.5" y="-56.5" font-family="Helvetica,sans-Serif" font-size="10.00" fill="#000000">AntennaIsotropic</text>
</a>
</g>
</g>
<!-- Node0&#45;&gt;Node3 -->
<g id="edge3" class="edge">
<title>Node0&#45;&gt;Node3</title>
<path fill="none" stroke="#191970" d="M107.1762,-77.9118C115.7131,-76.3713 124.4244,-74.7994 132.7368,-73.2994"/>
<polygon fill="#191970" stroke="#191970" points="106.4886,-74.4793 97.2691,-79.6996 107.7317,-81.368 106.4886,-74.4793"/>
</g>
<!-- Node4 -->
<g id="node5" class="node">
<title>Node4</title>
<g id="a_node5"><a xlink:href="classosse_1_1collaborate_1_1_antenna_patch.html" target="_top" xlink:title="An approximation of a patch antenna. ">
<polygon fill="#ffffff" stroke="#000000" points="133,-.5 133,-30.5 230,-30.5 230,-.5 133,-.5"/>
<text text-anchor="start" x="141" y="-18.5" font-family="Helvetica,sans-Serif" font-size="10.00" fill="#000000">osse::collaborate::</text>
<text text-anchor="middle" x="181.5" y="-7.5" font-family="Helvetica,sans-Serif" font-size="10.00" fill="#000000">AntennaPatch</text>
</a>
</g>
</g>
<!-- Node0&#45;&gt;Node4 -->
<g id="edge4" class="edge">
<title>Node0&#45;&gt;Node4</title>
<path fill="none" stroke="#191970" d="M83.6208,-68.1267C98.7377,-59.4676 116.659,-49.3481 133,-40.5 139.081,-37.2073 145.6377,-33.7597 151.9043,-30.5131"/>
<polygon fill="#191970" stroke="#191970" points="81.5362,-65.2878 74.6099,-73.3051 85.0241,-71.357 81.5362,-65.2878"/>
</g>
</g>
</svg>
