<?xml version="1.0" encoding="UTF-8" standalone="no"?>
<!DOCTYPE svg PUBLIC "-//W3C//DTD SVG 1.1//EN"
 "http://www.w3.org/Graphics/SVG/1.1/DTD/svg11.dtd">
<!-- Generated by graphviz version 2.40.1 (20161225.0304)
 -->
<!-- Title: Graphical Class Hierarchy Pages: 1 -->
<svg width="256pt" height="88pt"
 viewBox="0.00 0.00 256.00 88.00" xmlns="http://www.w3.org/2000/svg" xmlns:xlink="http://www.w3.org/1999/xlink">
<g id="graph0" class="graph" transform="scale(1 1) rotate(0) translate(4 84)">
<title>Graphical Class Hierarchy</title>
<polygon fill="#ffffff" stroke="transparent" points="-4,4 -4,-84 252,-84 252,4 -4,4"/>
<!-- Node0 -->
<g id="node1" class="node">
<title>Node0</title>
<g id="a_node1"><a xlink:href="classosse_1_1collaborate_1_1_graph.html" target="_top" xlink:title="Abstract graph. ">
<polygon fill="#ffffff" stroke="#000000" points="0,-24.5 0,-54.5 106,-54.5 106,-24.5 0,-24.5"/>
<text text-anchor="start" x="8" y="-42.5" font-family="Helvetica,sans-Serif" font-size="10.00" fill="#000000">osse::collaborate::</text>
<text text-anchor="middle" x="53" y="-31.5" font-family="Helvetica,sans-Serif" font-size="10.00" fill="#000000">Graph</text>
</a>
</g>
</g>
<!-- Node1 -->
<g id="node2" class="node">
<title>Node1</title>
<g id="a_node2"><a xlink:href="classosse_1_1collaborate_1_1_graph_unweighted.html" target="_top" xlink:title="Concrete graph with unweighted edges. ">
<polygon fill="#ffffff" stroke="#000000" points="142,-49.5 142,-79.5 248,-79.5 248,-49.5 142,-49.5"/>
<text text-anchor="start" x="150" y="-67.5" font-family="Helvetica,sans-Serif" font-size="10.00" fill="#000000">osse::collaborate::</text>
<text text-anchor="middle" x="195" y="-56.5" font-family="Helvetica,sans-Serif" font-size="10.00" fill="#000000">GraphUnweighted</text>
</a>
</g>
</g>
<!-- Node0&#45;&gt;Node1 -->
<g id="edge1" class="edge">
<title>Node0&#45;&gt;Node1</title>
<path fill="none" stroke="#191970" d="M116.2378,-50.6334C124.8064,-52.142 133.5275,-53.6774 141.8941,-55.1504"/>
<polygon fill="#191970" stroke="#191970" points="116.735,-47.1672 106.2796,-48.8802 115.5212,-54.0612 116.735,-47.1672"/>
</g>
<!-- Node2 -->
<g id="node3" class="node">
<title>Node2</title>
<g id="a_node3"><a xlink:href="classosse_1_1collaborate_1_1_graph_weighted.html" target="_top" xlink:title="Concrete graph with weighted edges. ">
<polygon fill="#ffffff" stroke="#000000" points="142,-.5 142,-30.5 248,-30.5 248,-.5 142,-.5"/>
<text text-anchor="start" x="150" y="-18.5" font-family="Helvetica,sans-Serif" font-size="10.00" fill="#000000">osse::collaborate::</text>
<text text-anchor="middle" x="195" y="-7.5" font-family="Helvetica,sans-Serif" font-size="10.00" fill="#000000">GraphWeighted</text>
</a>
</g>
</g>
<!-- Node0&#45;&gt;Node2 -->
<g id="edge2" class="edge">
<title>Node0&#45;&gt;Node2</title>
<path fill="none" stroke="#191970" d="M116.2378,-28.8119C124.8064,-27.3637 133.5275,-25.8897 141.8941,-24.4756"/>
<polygon fill="#191970" stroke="#191970" points="115.5564,-25.3774 106.2796,-30.495 116.723,-32.2795 115.5564,-25.3774"/>
</g>
</g>
</svg>
