<?xml version="1.0" encoding="UTF-8" standalone="no"?>
<!DOCTYPE svg PUBLIC "-//W3C//DTD SVG 1.1//EN"
 "http://www.w3.org/Graphics/SVG/1.1/DTD/svg11.dtd">
<!-- Generated by graphviz version 2.40.1 (20161225.0304)
 -->
<!-- Title: libs/collaborate/include/collaborate/util.h Pages: 1 -->
<svg width="699pt" height="95pt"
 viewBox="0.00 0.00 698.50 95.00" xmlns="http://www.w3.org/2000/svg" xmlns:xlink="http://www.w3.org/1999/xlink">
<g id="graph0" class="graph" transform="scale(1 1) rotate(0) translate(4 91)">
<title>libs/collaborate/include/collaborate/util.h</title>
<polygon fill="#ffffff" stroke="transparent" points="-4,4 -4,-91 694.5,-91 694.5,4 -4,4"/>
<!-- Node0 -->
<g id="node1" class="node">
<title>Node0</title>
<polygon fill="#bfbfbf" stroke="#000000" points="288,-56.5 288,-86.5 418,-86.5 418,-56.5 288,-56.5"/>
<text text-anchor="start" x="296" y="-74.5" font-family="Helvetica,sans-Serif" font-size="10.00" fill="#000000">libs/collaborate/include</text>
<text text-anchor="middle" x="353" y="-63.5" font-family="Helvetica,sans-Serif" font-size="10.00" fill="#000000">/collaborate/util.h</text>
</g>
<!-- Node1 -->
<g id="node2" class="node">
<title>Node1</title>
<polygon fill="#ffffff" stroke="#bfbfbf" points="0,-.5 0,-19.5 64,-19.5 64,-.5 0,-.5"/>
<text text-anchor="middle" x="32" y="-7.5" font-family="Helvetica,sans-Serif" font-size="10.00" fill="#000000">algorithm</text>
</g>
<!-- Node0&#45;&gt;Node1 -->
<g id="edge1" class="edge">
<title>Node0&#45;&gt;Node1</title>
<path fill="none" stroke="#191970" d="M287.7271,-60.5854C233.1788,-51.2149 153.122,-36.8858 74.2944,-20.1906"/>
<polygon fill="#191970" stroke="#191970" points="74.699,-16.6982 64.1889,-18.0356 73.2391,-23.5443 74.699,-16.6982"/>
</g>
<!-- Node2 -->
<g id="node3" class="node">
<title>Node2</title>
<polygon fill="#ffffff" stroke="#bfbfbf" points="82,-.5 82,-19.5 132,-19.5 132,-.5 82,-.5"/>
<text text-anchor="middle" x="107" y="-7.5" font-family="Helvetica,sans-Serif" font-size="10.00" fill="#000000">climits</text>
</g>
<!-- Node0&#45;&gt;Node2 -->
<g id="edge2" class="edge">
<title>Node0&#45;&gt;Node2</title>
<path fill="none" stroke="#191970" d="M287.8463,-56.522C248.188,-47.2076 196.295,-34.6717 142.0142,-20.1904"/>
<polygon fill="#191970" stroke="#191970" points="142.7786,-16.7717 132.2132,-17.5612 140.9648,-23.5327 142.7786,-16.7717"/>
</g>
<!-- Node3 -->
<g id="node4" class="node">
<title>Node3</title>
<polygon fill="#ffffff" stroke="#bfbfbf" points="150.5,-.5 150.5,-19.5 197.5,-19.5 197.5,-.5 150.5,-.5"/>
<text text-anchor="middle" x="174" y="-7.5" font-family="Helvetica,sans-Serif" font-size="10.00" fill="#000000">cmath</text>
</g>
<!-- Node0&#45;&gt;Node3 -->
<g id="edge3" class="edge">
<title>Node0&#45;&gt;Node3</title>
<path fill="none" stroke="#191970" d="M309.2117,-56.4554C277.7327,-45.64 235.9408,-31.2813 207.1961,-21.4054"/>
<polygon fill="#191970" stroke="#191970" points="208.2058,-18.0515 197.6111,-18.1122 205.9312,-24.6717 208.2058,-18.0515"/>
</g>
<!-- Node4 -->
<g id="node5" class="node">
<title>Node4</title>
<polygon fill="#ffffff" stroke="#bfbfbf" points="215.5,-.5 215.5,-19.5 274.5,-19.5 274.5,-.5 215.5,-.5"/>
<text text-anchor="middle" x="245" y="-7.5" font-family="Helvetica,sans-Serif" font-size="10.00" fill="#000000">complex</text>
</g>
<!-- Node0&#45;&gt;Node4 -->
<g id="edge4" class="edge">
<title>Node0&#45;&gt;Node4</title>
<path fill="none" stroke="#191970" d="M326.5802,-56.4554C309.5086,-46.734 287.4098,-34.15 270.5191,-24.5317"/>
<polygon fill="#191970" stroke="#191970" points="272.158,-21.4373 261.7362,-19.5303 268.6941,-27.5202 272.158,-21.4373"/>
</g>
<!-- Node5 -->
<g id="node6" class="node">
<title>Node5</title>
<polygon fill="#ffffff" stroke="#bfbfbf" points="293,-.5 293,-19.5 343,-19.5 343,-.5 293,-.5"/>
<text text-anchor="middle" x="318" y="-7.5" font-family="Helvetica,sans-Serif" font-size="10.00" fill="#000000">cstdint</text>
</g>
<!-- Node0&#45;&gt;Node5 -->
<g id="edge5" class="edge">
<title>Node0&#45;&gt;Node5</title>
<path fill="none" stroke="#191970" d="M344.3483,-56.2977C339.5912,-47.9388 333.6502,-37.4997 328.6143,-28.6509"/>
<polygon fill="#191970" stroke="#191970" points="331.5921,-26.8069 323.6039,-19.8469 325.5083,-30.2692 331.5921,-26.8069"/>
</g>
<!-- Node6 -->
<g id="node7" class="node">
<title>Node6</title>
<polygon fill="#ffffff" stroke="#bfbfbf" points="361,-.5 361,-19.5 417,-19.5 417,-.5 361,-.5"/>
<text text-anchor="middle" x="389" y="-7.5" font-family="Helvetica,sans-Serif" font-size="10.00" fill="#000000">iomanip</text>
</g>
<!-- Node0&#45;&gt;Node6 -->
<g id="edge6" class="edge">
<title>Node0&#45;&gt;Node6</title>
<path fill="none" stroke="#191970" d="M361.8989,-56.2977C366.7919,-47.9388 372.9026,-37.4997 378.0824,-28.6509"/>
<polygon fill="#191970" stroke="#191970" points="381.2047,-30.2452 383.2359,-19.8469 375.1635,-26.7089 381.2047,-30.2452"/>
</g>
<!-- Node7 -->
<g id="node8" class="node">
<title>Node7</title>
<polygon fill="#ffffff" stroke="#bfbfbf" points="435,-.5 435,-19.5 489,-19.5 489,-.5 435,-.5"/>
<text text-anchor="middle" x="462" y="-7.5" font-family="Helvetica,sans-Serif" font-size="10.00" fill="#000000">random</text>
</g>
<!-- Node0&#45;&gt;Node7 -->
<g id="edge7" class="edge">
<title>Node0&#45;&gt;Node7</title>
<path fill="none" stroke="#191970" d="M379.6644,-56.4554C396.8941,-46.734 419.1975,-34.15 436.2446,-24.5317"/>
<polygon fill="#191970" stroke="#191970" points="438.1194,-27.4926 445.1089,-19.5303 434.6796,-21.3961 438.1194,-27.4926"/>
</g>
<!-- Node8 -->
<g id="node9" class="node">
<title>Node8</title>
<polygon fill="#ffffff" stroke="#bfbfbf" points="507,-.5 507,-19.5 563,-19.5 563,-.5 507,-.5"/>
<text text-anchor="middle" x="535" y="-7.5" font-family="Helvetica,sans-Serif" font-size="10.00" fill="#000000">sstream</text>
</g>
<!-- Node0&#45;&gt;Node8 -->
<g id="edge8" class="edge">
<title>Node0&#45;&gt;Node8</title>
<path fill="none" stroke="#191970" d="M397.5222,-56.4554C428.0226,-46.149 468.045,-32.6249 497.0358,-22.8286"/>
<polygon fill="#191970" stroke="#191970" points="498.4432,-26.0475 506.7965,-19.5303 496.2022,-19.4159 498.4432,-26.0475"/>
</g>
<!-- Node9 -->
<g id="node10" class="node">
<title>Node9</title>
<polygon fill="#ffffff" stroke="#bfbfbf" points="581,-.5 581,-19.5 625,-19.5 625,-.5 581,-.5"/>
<text text-anchor="middle" x="603" y="-7.5" font-family="Helvetica,sans-Serif" font-size="10.00" fill="#000000">string</text>
</g>
<!-- Node0&#45;&gt;Node9 -->
<g id="edge9" class="edge">
<title>Node0&#45;&gt;Node9</title>
<path fill="none" stroke="#191970" d="M418.0341,-57.6576C459.3939,-48.5187 514.247,-35.7833 570.8714,-20.1666"/>
<polygon fill="#191970" stroke="#191970" points="572.0187,-23.4804 580.7143,-17.4275 570.142,-16.7367 572.0187,-23.4804"/>
</g>
<!-- Node10 -->
<g id="node11" class="node">
<title>Node10</title>
<polygon fill="#ffffff" stroke="#bfbfbf" points="643.5,-.5 643.5,-19.5 690.5,-19.5 690.5,-.5 643.5,-.5"/>
<text text-anchor="middle" x="667" y="-7.5" font-family="Helvetica,sans-Serif" font-size="10.00" fill="#000000">vector</text>
</g>
<!-- Node0&#45;&gt;Node10 -->
<g id="edge10" class="edge">
<title>Node0&#45;&gt;Node10</title>
<path fill="none" stroke="#191970" d="M418.1716,-61.6981C473.0593,-52.9556 553.7806,-38.9616 633.1242,-19.9941"/>
<polygon fill="#191970" stroke="#191970" points="634.3986,-23.2868 643.295,-17.5332 632.7523,-16.4832 634.3986,-23.2868"/>
</g>
</g>
</svg>
