<?xml version="1.0" encoding="UTF-8" standalone="no"?>
<!DOCTYPE svg PUBLIC "-//W3C//DTD SVG 1.1//EN"
 "http://www.w3.org/Graphics/SVG/1.1/DTD/svg11.dtd">
<!-- Generated by graphviz version 2.40.1 (20161225.0304)
 -->
<!-- Title: libs/collaborate/include/collaborate/util.h Pages: 1 -->
<svg width="654pt" height="95pt"
 viewBox="0.00 0.00 654.00 95.00" xmlns="http://www.w3.org/2000/svg" xmlns:xlink="http://www.w3.org/1999/xlink">
<g id="graph0" class="graph" transform="scale(1 1) rotate(0) translate(4 91)">
<title>libs/collaborate/include/collaborate/util.h</title>
<polygon fill="#ffffff" stroke="transparent" points="-4,4 -4,-91 650,-91 650,4 -4,4"/>
<!-- Node0 -->
<g id="node1" class="node">
<title>Node0</title>
<polygon fill="#bfbfbf" stroke="#000000" points="270,-56.5 270,-86.5 386,-86.5 386,-56.5 270,-56.5"/>
<text text-anchor="start" x="278" y="-74.5" font-family="Helvetica,sans-Serif" font-size="10.00" fill="#000000">libs/collaborate/include</text>
<text text-anchor="middle" x="328" y="-63.5" font-family="Helvetica,sans-Serif" font-size="10.00" fill="#000000">/collaborate/util.h</text>
</g>
<!-- Node1 -->
<g id="node2" class="node">
<title>Node1</title>
<polygon fill="#ffffff" stroke="#bfbfbf" points="0,-.5 0,-19.5 56,-19.5 56,-.5 0,-.5"/>
<text text-anchor="middle" x="28" y="-7.5" font-family="Helvetica,sans-Serif" font-size="10.00" fill="#000000">algorithm</text>
</g>
<!-- Node0&#45;&gt;Node1 -->
<g id="edge1" class="edge">
<title>Node0&#45;&gt;Node1</title>
<path fill="none" stroke="#191970" d="M269.7715,-61.3169C218.6079,-52.0932 141.948,-37.6061 66.397,-20.2104"/>
<polygon fill="#191970" stroke="#191970" points="66.7624,-16.7022 56.2299,-17.8499 65.1793,-23.5208 66.7624,-16.7022"/>
</g>
<!-- Node2 -->
<g id="node3" class="node">
<title>Node2</title>
<polygon fill="#ffffff" stroke="#bfbfbf" points="74.5,-.5 74.5,-19.5 119.5,-19.5 119.5,-.5 74.5,-.5"/>
<text text-anchor="middle" x="97" y="-7.5" font-family="Helvetica,sans-Serif" font-size="10.00" fill="#000000">climits</text>
</g>
<!-- Node0&#45;&gt;Node2 -->
<g id="edge2" class="edge">
<title>Node0&#45;&gt;Node2</title>
<path fill="none" stroke="#191970" d="M269.8872,-57.2694C232.4232,-47.9091 182.4533,-35.0796 129.5866,-20.0692"/>
<polygon fill="#191970" stroke="#191970" points="130.2606,-16.6218 119.6839,-17.2414 128.3385,-23.3528 130.2606,-16.6218"/>
</g>
<!-- Node3 -->
<g id="node4" class="node">
<title>Node3</title>
<polygon fill="#ffffff" stroke="#bfbfbf" points="138,-.5 138,-19.5 182,-19.5 182,-.5 138,-.5"/>
<text text-anchor="middle" x="160" y="-7.5" font-family="Helvetica,sans-Serif" font-size="10.00" fill="#000000">cmath</text>
</g>
<!-- Node0&#45;&gt;Node3 -->
<g id="edge3" class="edge">
<title>Node0&#45;&gt;Node3</title>
<path fill="none" stroke="#191970" d="M286.9026,-56.4554C257.6161,-45.7345 218.8188,-31.5319 191.8657,-21.6651"/>
<polygon fill="#191970" stroke="#191970" points="192.7539,-18.2632 182.1602,-18.1122 190.3475,-24.8366 192.7539,-18.2632"/>
</g>
<!-- Node4 -->
<g id="node5" class="node">
<title>Node4</title>
<polygon fill="#ffffff" stroke="#bfbfbf" points="200.5,-.5 200.5,-19.5 253.5,-19.5 253.5,-.5 200.5,-.5"/>
<text text-anchor="middle" x="227" y="-7.5" font-family="Helvetica,sans-Serif" font-size="10.00" fill="#000000">complex</text>
</g>
<!-- Node0&#45;&gt;Node4 -->
<g id="edge4" class="edge">
<title>Node0&#45;&gt;Node4</title>
<path fill="none" stroke="#191970" d="M303.2926,-56.4554C287.4753,-46.8241 267.0433,-34.3828 251.3051,-24.7996"/>
<polygon fill="#191970" stroke="#191970" points="253.0129,-21.7418 242.6514,-19.5303 249.3723,-27.7206 253.0129,-21.7418"/>
</g>
<!-- Node5 -->
<g id="node6" class="node">
<title>Node5</title>
<polygon fill="#ffffff" stroke="#bfbfbf" points="272,-.5 272,-19.5 318,-19.5 318,-.5 272,-.5"/>
<text text-anchor="middle" x="295" y="-7.5" font-family="Helvetica,sans-Serif" font-size="10.00" fill="#000000">cstdint</text>
</g>
<!-- Node0&#45;&gt;Node5 -->
<g id="edge5" class="edge">
<title>Node0&#45;&gt;Node5</title>
<path fill="none" stroke="#191970" d="M319.8427,-56.2977C315.4051,-48.0277 309.875,-37.7215 305.1596,-28.9339"/>
<polygon fill="#191970" stroke="#191970" points="308.096,-27.0037 300.2837,-19.8469 301.9279,-30.3134 308.096,-27.0037"/>
</g>
<!-- Node6 -->
<g id="node7" class="node">
<title>Node6</title>
<polygon fill="#ffffff" stroke="#bfbfbf" points="336,-.5 336,-19.5 386,-19.5 386,-.5 336,-.5"/>
<text text-anchor="middle" x="361" y="-7.5" font-family="Helvetica,sans-Serif" font-size="10.00" fill="#000000">iomanip</text>
</g>
<!-- Node0&#45;&gt;Node6 -->
<g id="edge6" class="edge">
<title>Node0&#45;&gt;Node6</title>
<path fill="none" stroke="#191970" d="M336.1573,-56.2977C340.5949,-48.0277 346.125,-37.7215 350.8404,-28.9339"/>
<polygon fill="#191970" stroke="#191970" points="354.0721,-30.3134 355.7163,-19.8469 347.904,-27.0037 354.0721,-30.3134"/>
</g>
<!-- Node7 -->
<g id="node8" class="node">
<title>Node7</title>
<polygon fill="#ffffff" stroke="#bfbfbf" points="404.5,-.5 404.5,-19.5 453.5,-19.5 453.5,-.5 404.5,-.5"/>
<text text-anchor="middle" x="429" y="-7.5" font-family="Helvetica,sans-Serif" font-size="10.00" fill="#000000">random</text>
</g>
<!-- Node0&#45;&gt;Node7 -->
<g id="edge7" class="edge">
<title>Node0&#45;&gt;Node7</title>
<path fill="none" stroke="#191970" d="M352.7074,-56.4554C368.5247,-46.8241 388.9567,-34.3828 404.6949,-24.7996"/>
<polygon fill="#191970" stroke="#191970" points="406.6277,-27.7206 413.3486,-19.5303 402.9871,-21.7418 406.6277,-27.7206"/>
</g>
<!-- Node8 -->
<g id="node9" class="node">
<title>Node8</title>
<polygon fill="#ffffff" stroke="#bfbfbf" points="472,-.5 472,-19.5 524,-19.5 524,-.5 472,-.5"/>
<text text-anchor="middle" x="498" y="-7.5" font-family="Helvetica,sans-Serif" font-size="10.00" fill="#000000">sstream</text>
</g>
<!-- Node0&#45;&gt;Node8 -->
<g id="edge8" class="edge">
<title>Node0&#45;&gt;Node8</title>
<path fill="none" stroke="#191970" d="M369.5867,-56.4554C398.0392,-46.1623 435.3629,-32.6599 462.4338,-22.8666"/>
<polygon fill="#191970" stroke="#191970" points="463.6951,-26.1324 471.908,-19.4392 461.3137,-19.5499 463.6951,-26.1324"/>
</g>
<!-- Node9 -->
<g id="node10" class="node">
<title>Node9</title>
<polygon fill="#ffffff" stroke="#bfbfbf" points="542.5,-.5 542.5,-19.5 583.5,-19.5 583.5,-.5 542.5,-.5"/>
<text text-anchor="middle" x="563" y="-7.5" font-family="Helvetica,sans-Serif" font-size="10.00" fill="#000000">string</text>
</g>
<!-- Node0&#45;&gt;Node9 -->
<g id="edge9" class="edge">
<title>Node0&#45;&gt;Node9</title>
<path fill="none" stroke="#191970" d="M386.1927,-58.1205C425.0669,-48.8983 477.5119,-35.9134 532.4814,-19.9914"/>
<polygon fill="#191970" stroke="#191970" points="533.7902,-23.2554 542.4077,-17.0918 531.8274,-16.5362 533.7902,-23.2554"/>
</g>
<!-- Node10 -->
<g id="node11" class="node">
<title>Node10</title>
<polygon fill="#ffffff" stroke="#bfbfbf" points="602,-.5 602,-19.5 646,-19.5 646,-.5 602,-.5"/>
<text text-anchor="middle" x="624" y="-7.5" font-family="Helvetica,sans-Serif" font-size="10.00" fill="#000000">vector</text>
</g>
<!-- Node0&#45;&gt;Node10 -->
<g id="edge10" class="edge">
<title>Node0&#45;&gt;Node10</title>
<path fill="none" stroke="#191970" d="M386.0857,-62.2786C437.862,-53.5919 515.8196,-39.369 591.9822,-20.041"/>
<polygon fill="#191970" stroke="#191970" points="592.9283,-23.4117 601.7426,-17.5331 591.1861,-16.6319 592.9283,-23.4117"/>
</g>
</g>
</svg>
